<?xml version="1.0" encoding="utf-8"?>
<!-- Generator: Adobe Illustrator 27.0.0, SVG Export Plug-In . SVG Version: 6.00 Build 0)  -->
<svg version="1.1" id="Layer_1" xmlns="http://www.w3.org/2000/svg" xmlns:xlink="http://www.w3.org/1999/xlink" x="0px" y="0px"
	 viewBox="0 0 935.8 521.2" enable-background="new 0 0 935.8 521.2" xml:space="preserve">
<g display="none">
	<g id="Logo_in_black" display="inline">
		<path d="M455.5,288.1v0.8c-0.3,5.6-1.9,11-4.8,16.2c-0.6,1-1.1,1.9-1.9,2.9c-1.5,2.4-3.3,4.5-5.4,6.5c-1.2,1.3-3.3,1.4-4.7,0.2
			c-0.4-0.4-0.6-0.8-0.9-1.4c-1.3-2.7-2.3-5.4-2.8-8.2c-1-5.4-0.7-10.7,1.9-16.1v-0.1c0.2-0.2,0.2-0.6,0.4-0.8
			c1.2-2.4,2.7-4.8,4-7.1l-0.8-0.7l-6.2,6.6c-1-6.5,6.3-20.8,13.5-26.5c3.7,3.6,4.9,8.3,6,13.1C455.1,278.5,455.7,283.3,455.5,288.1
			z"/>
		<path d="M547.9,234.1c-1.8,9.9-3.7,19.5-5.8,30.4l-5.4-13.9c-2.9,4.5-5.5,8.7-8.4,13c-1.7-5.1,0.2-9.8,2-14.4
			C534.4,239.4,540.8,234.1,547.9,234.1z"/>
		<path d="M510.3,288.1c-0.1,0.2-0.2,0.6-0.2,0.8c-1.9,5.8-4.9,11.3-8.8,16.2c-1,1.1-2,2.3-3,3.3c-0.4,0.2-0.8,0.4-1.2,0.6
			c-0.5-1.3-1-2.7-1.4-4c-1.8-5.4-3.2-10.8-4-16.2c-0.1-0.2-0.1-0.6-0.2-0.8c-0.5-3.3-0.7-6.6-0.7-10c-0.2-4.6,1.2-9.2,4.1-12.8
			c3-3.6,6-7.3,9.2-10.7c1.5-1.6,3.3-2.4,4.6,0.6C513,265.9,513.5,277.5,510.3,288.1z"/>
		<path d="M408.2,362.2c-0.6,10.7-10.1,17.5-10.1,17.5s1.2-2,2-6.7C400.9,368.2,408.2,362.2,408.2,362.2z"/>
		<path d="M438.7,352.8c3.1-6.1,4-12-1.9-17.7c5-0.2,8.1,1.3,9.6,4.9C448,344,444.8,349.3,438.7,352.8z"/>
		<path d="M406.5,288.8c-0.5,5.3-0.2,10.7,0.8,16.2c0.2,1.3,0.5,2.6,0.7,3.9c1.8,8.1,2.4,16.3-0.2,24.5c-1.9,5.9-11.2,15-18.3,17.2
			c2.4-2.4,4.1-4.3,5.9-6.1c4.8-5.2,6.6-11.1,4.6-18.1c-1.9-6.6-4.1-13.2-6.2-19.8c-0.2-0.5-0.3-1-0.4-1.5c-1.6-5.8-2-11.2-1.4-16.2
			c0-0.2,0.1-0.6,0.1-0.8c1.7-10.7,8.4-19.5,19.9-25.7c2.6-1.4,5.3-2.4,7.9-3.7l0.8,1c-1.8,2.4-3.6,4.9-5.6,7.3
			c-5.1,6.6-7.7,13.8-8.6,21.1C406.6,288.3,406.5,288.6,406.5,288.8z"/>
		<path d="M554.2,337.4c-4.4,7.3-9.4,13.9-12.3,21.2c-2.9,7.4-3.6,15.7-5.4,23.8c-9.7-10-8.8-28.1,2-36.2c3.9-2.7,7.9-5.2,12.1-7.5
			C551.7,338.2,552.9,337.7,554.2,337.4z"/>
		<path d="M350.6,450.5L350.6,450.5c0.1-0.2,0.2-0.4,0.2-0.6C350.7,450.2,350.7,450.3,350.6,450.5z"/>
		<path d="M780.3,53.3c-7.1,0-14.3-0.4-21.3-1.2c-7.6-0.8-14.2-2.8-20.5-4.6c-8.6-2.6-17.6-5.2-29.8-5.2c-2.4,0-4.9,0.1-7.4,0.3
			c-8.5,0.7-24.8,6.2-33.6,9.2c-4,1.4-6,2-6.7,2.1c-1.8,0.2-7.6,0.4-17.8,0.4c-26.1,0-71.7-0.8-72.2-0.8h-0.5l-0.3-0.5
			c-4.7-7.7-18-28-23.6-29.3c-0.3-0.1-0.8-0.1-1.2-0.1c-7.5,0-23.2,11.5-23.3,11.6l-0.7,0.5l-0.6-0.5c-0.2-0.1-15.8-14.1-31.5-14.1
			c-14,0-23.9,10.9-29.3,32.5l-0.4,1.5l-1.2-1c-0.1-0.1-11.4-9.1-21.1-9.8c-0.2,0-0.5,0-0.7,0c-9.8,0-24.9,11.8-30.8,28.7l-0.4,1.2
			l-1.1-0.7c-0.1-0.1-8.4-5.7-18.3-5.7c-12.9,0-22.3,9.2-27.9,27.2l-0.2,0.5l-0.5,0.2c-1.6,0.5-159.4,45.3-233,88.6
			c0.9-0.2,1.8-0.3,2.9-0.5c99.4-16.7,164.8-25.1,194.3-25.1c7,0,11.9,0.5,14.8,1.5l0.9,0.3l-0.2,0.9c-0.1,0.3-7.2,28.6,12.5,64.1
			c20,36,29.5,82.3,27.2,106.3c-5.2,54-20.7,102.7-25,115.7c-0.1,0.2-0.1,0.4-0.2,0.6s-0.1,0.4-0.2,0.5c-0.2,0.5-0.3,1-0.5,1.4
			c-0.1,0.2-0.1,0.4-0.2,0.6c-5.4,15.5-12.2,33.9-14.7,35.8h263.9c-0.2-0.8-6.8-17.2-9.4-34.8c0-0.3-0.1-0.7-0.2-1h0.1
			c-0.1-0.3-0.2-1.2-0.4-2.5l-10.8-66c0-0.2-2-17.3-2-47.1c0-29.9,3.1-47.1,3.1-47.2l0.1-0.7c0.5-3.5,0.9-7,1.5-10.8v-0.2l0.1-0.2
			c0.4-0.7,40.2-66.3,58.1-85.3L620,108l1-0.2c1.9-0.5,45.5-11.5,50.5-11.5h0.2c1,0.1,2.7,0.1,4.8,0.1c7.1,0,17.9,0,21.5,2
			c0,0,0.2,0.1,0.9,0.1c5.5,0,24.6-5,56.9-14.9c3.3-1,3.3-1,3.5-1h1v12.6c6.4-7.3,29.4-32.2,51.3-44.2
			C804.5,51.9,793.8,53.3,780.3,53.3z M522.7,42.4c4.7-3.6,9.6-6,15.7-6.2c0.4,0,0.9,0,1.3,0c0.5,0,0.9,0,1.4,0.1
			c8.8,0.7,16.9,9.8,15.4,18.9c-1.1,6.6-2.3,13.1-3.7,19.6c-0.3,1.2-1.2,2.2-2.4,2.6c-8.7,1.7-17.6,2.5-26.4,2.5l0,0
			c-5.3,0-10.6-0.3-16-0.9c3.2-10.5,6.2-20.7,9.7-30.6C518.4,46,520.7,43.9,522.7,42.4z M464.4,71.2c0.6-2.3,0.9-4.6,1.3-6.9
			c0.2-1.2,0.3-2.3,0.5-3.5s0.3-2.3,0.5-3.5l0,0c2.2-14.7,13.3-20.4,25.4-24.8c0,0,0.1,0,0.2-0.1c0.6-0.2,1.2-0.3,2-0.3
			c5,0.1,12.8,5.2,14.2,9.4c0.1,0.4,0.2,0.8,0.1,1.2l0,0c0,0.1,0,0.2,0,0.3l0,0c-2,11.7-4.1,23.4-6.2,35.2l0,0
			c-0.1,0.2-0.2,0.5-0.4,0.7c-3.2-0.2-6.1-0.7-9.1-0.7l0,0c-2.7,0-4.3,0.4-5.3,1.4s-1.3,2.7-1.3,5.4c0,2.6,0.3,5.1,0.7,7.6
			c0.2,1.2,0.5,2.5,0.8,3.6c0.2,0.6,0.3,1.2,0.5,1.8c1.7,5.3,4.2,10.4,6.8,15.5c0.8,1.2,1.2,2.7,1.3,4.1c-0.7,9.8-1.5,19.5-2.5,29.2
			c-0.2,2.2-0.7,4-1.5,5.4c-0.4,0.7-0.8,1.3-1.3,1.8c0,0,0,0.1-0.1,0.1c-1.6,1.6-3.9,2.5-6.8,2.6h-0.1c-0.8,0-1.7,0-2.7-0.1
			c-0.6-0.1-1.2-0.1-1.8-0.1c-0.6,0-1.2,0-1.8,0c-0.9,0.1-1.8,0.1-2.6,0.1c-9.8,0-12.8-5.8-13.8-15c-1.1-10-1.6-20-1.7-30
			C459.3,98.2,461,84.5,464.4,71.2z M408.5,154.6L408.5,154.6C408.5,154.6,408.5,154.5,408.5,154.6l0.7-0.1
			c0.4-18.7,0.6-37.4,1.4-56.1c0.4-9,1.9-18,3.1-26.9c0.1-1.3,0.7-2.5,1.7-3.4c6.6-4,13.2-8.1,20.1-11.7c4.8-2.6,9.5-0.8,12.8,2.8
			c3.7,4,6.8,8.5,9.4,13.3c0.7,1.7,1,3.5,1,5.2c0,1.1-0.1,2.1-0.3,3.2c-0.5,2.9-1.1,5.7-1.6,8.6c-2.2,12-4.5,24-6.9,36
			c-1.8,9.4-3.6,18.8-5.5,28.2c-0.6,3.3-1.5,6.6-2.1,10c-1.6,9-3.7,9-10.7,10.5c-3.9,0.7-7.8,1.1-11.7,1c-5.9,0-9.6-3.2-10.4-9.1
			C409,162.2,408.8,158.4,408.5,154.6L408.5,154.6C408.5,154.7,408.5,154.6,408.5,154.6z M369.6,154.2c0.1-13.1,0.5-26.2,0.9-39.4
			c0.2-4.4,0.3-8.8,0.4-13.1c0.1-4,0.5-8.1,0.8-12.2c0.2-2.5,0.9-4.6,2.1-6.3c1.7-2.4,4.4-3.9,8-4.2c7.2-0.6,14.3,0.2,20.7,4.3
			c1.6,1.1,2.8,3,3,4.9c0.3,6.8,0.2,13.6,0.2,20.4l0.3,0.1c-0.7,12.2-1.2,24.5-2.1,36.6c-0.5,7.1-4.2,12.8-9,17.7
			c-0.3,0.3-0.7,0.7-1,1c-0.9,1-2.2,1.6-3.5,1.7c-5.1-0.4-10.1-1-15.2-1.9C369.8,163,369.5,158.1,369.6,154.2z M159.3,173
			c52-25.2,201.5-69.4,201.5-69.4s-1.5,29.2-0.8,46C237.2,153.3,160.5,172.7,159.3,173z M388.1,428.1c-4.4,8.6-9.7,15-13.7,19.5
			c2.1-6.1,3.2-13.2,3.8-19.4c0.5-4.7,0.6-8.9,0.8-11.8c0.4-8.7,17.6-18.2,17.6-18.2C395.5,410.3,392.1,420.2,388.1,428.1z
			 M423.5,437.4c-0.8,7.9-8.7,13.1-8.7,13.1c1.8-4.1-0.4-13.8,0.3-22.3c0.3-2.9,0.8-5.6,2.1-7.9c4.8-9.1,6.3-10.3,6.3-10.3
			c-2.5,6.8-1.5,12.8-0.7,18.3C423.3,431.5,423.8,434.5,423.5,437.4z M456.9,441.4c-8,9.2-15.5-0.5-15.1-12.7
			c0.1-4.1,1.1-8.6,3.3-12.7c0,0,0.3,6.3,2.2,9.9c2,3.6,4-15.9,4-15.9s8,9.3,9.1,19.1C461,433.3,460.2,437.7,456.9,441.4z
			 M543.1,434.9c-0.7-1-1.1-1.9-1.2-2.9c-0.8-7.9-0.2-11.3-4.2-22c0,0,5.4,11.1,10.1,20.2c1.1,2.2,2.7,4.1,4.4,5.9
			c5.6,5.8,13,10,14.8,14.3C566.5,450.2,548,442.2,543.1,434.9z M625.4,178c2.3,7.6-0.2,13.9-4.3,19.7
			c-9.4,13.6-19.3,26.8-28.7,40.4c-6.8,9.9-14.2,19.7-19.6,30.4c-3,6.2-4.9,12.8-5.5,19.6c-0.1,0.2-0.1,0.6-0.1,0.8
			c-0.1,0.9-0.2,1.9-0.2,2.8c-0.2,4.5-0.5,8.9-0.6,13.4c-0.7,19.1-1,38.2-1.3,57.3c-0.1,6.1,8.9,57.9,12.2,79.4
			c0.6,4.3,1.1,7.4,1.1,8.6c0,0-0.6-3.5-1.8-8.9c-3.6-15.7-12.9-47.6-31.2-56.8c-5.3-2.7,9.4,35.5,7.4,32.7
			c-6.2-8.9-13.4-12.7-19.3-17.5c-7.1-5.8-17.4-36.7-17.8-37.7c0.2,1,5.6,34,9.4,41c1.3,2.4,8.1,26,6.8,30.2
			c-0.7,2.3-4.4-23-14.7-19.8c-5.4,1.7-10.6,10-14.2,17.6c-3.3,6.7-5.3,12.8-5.3,12.8c-0.2-1.7,1.1-6.6,2.7-13
			c3.3-12.7,8.4-31.2,6.9-40.7c-2.2-14.2-4.2-28.3-4.4-32.9c-0.5-10.5,4-17.1,13.9-20.7c6.8-2.5,14-4,21-6.5c3.7-1.5,7-3.5,10.1-5.9
			c4.9-3.7,5.9-8.9,3.2-14.5c-0.8-1.6-1.6-3.2-2.5-4.8c-1.1-2-2.3-3.8-3.6-5.7c-2.3-3-3.1-6.9-2.3-10.5c0.1-0.2,0.2-0.6,0.2-0.8
			c0.1-0.3,0.2-0.7,0.4-1.1c0.8-2.2,1.4-4.5,2-6.8c-3.2,2.4-5.5,5.1-6.9,8c-0.2,0.2-0.3,0.6-0.4,0.8c-2,4.7-1.6,10.1,0.7,16.1
			c0,0.1,0,0.1,0,0.1c2.4,6.2,1.7,9.7-2.8,13.7c-3.6,3.2-5.8,3.2-12.1-0.2c-0.5-0.2-1.1-0.4-1.6-0.6c0.1,1.5,0.2,2.8,0.3,4.1
			c-3.6,0.5-7.5,0.5-11.1,1.5c-7.2,2.2-21,17.3-21,27c0,15.9,3.9,6.7,5.9,31.8c1.2,14.5-7,33.7-14.2,47.5
			c-5.2,10-9.9,17.2-10.4,18.1c0.2-0.5,3.3-8.4,6.8-18.2c4.2-11.9,8.8-26.8,9.5-35.5c1.3-16.3-4.5-36.4-4.5-36.4
			c-1.4,5.2-6.6,26.9-7.7,31c0,0-2.2-20.7-2.4-23.2c-0.7-6,3.7-12.1,7.9-16.2c7.7-7.7,7.8-15.1,0.1-22.9c-2.8-2.8-5.8-5.3-8.7-8
			c-5.6-5-6.7-8.8-3.6-13.5c0.8-1.2,1.9-2.5,3.2-3.9c0.7-0.7,1.1-1.4,2-2.3c-3.3,0.6-6.9,2.9-10.2,6.2c-7,7.2-12.6,18.9-10.9,26.6
			l4.1-8.4c2.3,4,4.4,8.4,7.1,12.3c3.1,4.5,3.5,5.2-0.6,8.7c-2.8,2.4-12.4,17.5-3.6,25.7c15,13.8,0.6,34.5-0.9,35.5
			c0,0,7.6-11.2,0.9-25.8c-6.8-14.6-19-19.4-19-19.4s3.1,2,7.2,10.7c7.8,16.7-8.5,32.4-9.3,31c0,0,4.4-15.3-0.4-26
			c0,5.4-8.5,12.3-17,17.8c-8.4,5.5-12.7,19.7-12.7,19.7s0.6-14.6,5.9-21.7c8.8-12,19.2-31.6,12.3-51.1c-2.9-8.2-5.1-29.9-6.6-30.7
			c0.3,2.7,1.9,48.1-10.9,66.1c-0.7,1.2-19.3,18.5-20.4,19.3c-0.8-7.2,5.9-24.1,13.2-37.4c-2.2,2.1-15.8,8.5-26,36.4
			c1.1-6.2,4.9-22.7,5.9-29c3.1-20.1,3.1-40.2,1.2-60.3c-0.2-2.9-0.6-5.9-0.9-8.9c-0.2-2.4-0.6-4.9-1-7.3c0-0.2,0-0.6-0.1-0.8
			c-1.9-11.9-4.9-23.6-9.1-34.9c-2.8-7.4-6.9-14.2-10.5-21.1c-7.7-14.4-12.4-30.3-13.8-46.6c0-0.2-0.1-0.6-0.1-0.8
			c-1.8-9.3,1.2-11.8,10.4-10.5c16.4,2.4,31.4,8.3,45.9,16.2c12.4,6.5,23.8,14.7,33.8,24.5c2.3,2.4,2.4,3.9-0.2,5.9
			c-7.6,6.2-11.3,14.9-14.6,23.8c-0.2,0.5-0.3,1-0.4,1.5c0,0.5,0.1,1,0.2,1.5c0.6-0.4,1.1-0.6,1.3-0.9c7.5-13.5,18.4-24.2,29.2-34.8
			c9.3-9.1,20-16.2,31.3-22.6c17-9.6,35.5-16.3,54.6-20c1.6-0.2,3.2-0.5,4.8-0.8c3.3-1.1,6.6-2.4,10.1-3.6
			c-4.8-12.7-0.3-24.5,0.7-36.2l10.6-2.3c0-0.4-0.1-0.9-0.1-1.4c-0.9-0.2-1.8-0.4-2.8-0.4c-19.7,1.2-38.9-1.5-57.8-6.4
			c-1.2-0.3-2.3-1-3-1.9c-6.8-9.7-12.3-19.9-13.1-32.1v-1.1c7.4,0,14.6-0.1,21.7,0c15.5,0.3,30.8,0.3,45.8-4
			c5.3-1.5,10.8-2.6,16.3-3.5c10.9-1.8,28.8,9.9,31.2,21.9c2.7,13.1,6.6,26,10.1,39C617.9,150.5,621.4,164.4,625.4,178z M778.3,58
			c-5.8,1.6-17.5,11-23.1,14.6c-5.7,3.6-12.7,6.6-16.8,7.9c-4.2,1.3-31.9,11.5-42.9,10.2c-3.9-0.5-19.7-3.2-27.2-1.6
			c-8.1,1.7-51.3,12.4-51.3,12.4c-1.3-6.2-7-17.3-13.7-23.2c-17.2-15.4-33.6-10.8-33.6-10.8l1.6-7.5h0.1v-0.1
			c7.3-0.7,81.7,2.4,92.1-0.2c8.6-2.1,30.5-10.6,37-10.6s11.8,1.9,35.2,7.1C758.4,61.4,777.5,58.1,778.3,58c0,0-0.1,0-0.3,0
			C778.2,58.1,778.3,58,778.3,58z"/>
		<path stroke="#000000" stroke-width="9" stroke-linecap="round" stroke-miterlimit="10" d="M660.2,60c0,0,1.4,25.1,8.6,30.9"/>
		<path stroke="#000000" stroke-width="9" stroke-linecap="round" stroke-miterlimit="10" d="M641.5,60c0,0,1.5,28.8,9.3,35.5"/>
		<g>
			<line fill="none" x1="811.4" y1="50.7" x2="811.4" y2="142.1"/>
			<path d="M811.7,50.7c0.2,22.6,0.8,45.9,2,68.6c0.5,7.6,1.4,15.2,1.6,22.9c0,5.2-7.6,5.3-7.7,0c0.2-7.6,1.1-15.2,1.6-22.9
				c0.7-11,0.9-23.2,1.3-34.3c0.3-11.1,0.6-23.3,0.6-34.3c0-0.1,0.1-0.2,0.3-0.2C811.6,50.4,811.7,50.6,811.7,50.7L811.7,50.7z"/>
		</g>
		<g>
			<line fill="none" x1="760.5" y1="83.2" x2="760.5" y2="180.4"/>
			<path d="M760.8,83.2c0.3,19.8,0.8,41,1.4,60.8c0.1,8.1,0.9,16.2,1.3,24.3c0.1,2,0.1,4.1,0.1,6.1c0.1,2,0.1,4.1-1.6,6.1
				c-0.7,0.9-2.2,0.9-2.9,0c-1.7-2-1.7-4.1-1.6-6.1c0-2,0-4.1,0.1-6.1c0.7-11.7,1.5-24.7,1.6-36.5c0.2-6,0.5-18.3,0.6-24.3
				c0.2-8.1,0.3-16.2,0.5-24.3c0-0.1,0.1-0.2,0.3-0.2C760.7,83,760.8,83.1,760.8,83.2L760.8,83.2z"/>
		</g>
		<g>
			<line fill="none" x1="775.4" y1="85.3" x2="775.4" y2="124.3"/>
			<path d="M775.6,85.3c0.4,6.9,1.3,22.6,1.8,29.3c0.2,2.4,0.4,4.9,0.4,7.3c0,0.8,0,1.6-1,2.4c-0.8,0.7-2,0.7-2.8,0
				c-1-0.8-1-1.6-1-2.4s0-1.6,0-2.4c0.3-4.9,0.7-9.8,1-14.6l1.1-19.5C775.1,85,775.6,85,775.6,85.3L775.6,85.3z"/>
		</g>
		<path stroke="#000000" stroke-linecap="round" stroke-miterlimit="10" d="M760.5,111c0,0,1.8-19,7.8-25s7,8.1,7,8.1V75.3
			l-13.8,13.8L760.5,111z"/>
		<path stroke="#000000" stroke-linecap="round" stroke-miterlimit="10" d="M792,61.7l-7.7,7.7l-0.6,12.3c0,0,2.7-13.3,6.1-16.6"/>
		<g>
			<line fill="none" x1="783.7" y1="76.5" x2="783.7" y2="103.2"/>
			<path d="M783.9,76.5c0.2,6.7,0.4,13.4,1,20.1l0.4,3.3c0.1,1,0.3,2.4,0.2,3.3c-0.1,1-1.1,1.7-2.1,1.5c-2.3-0.4-1.5-3.3-1.4-4.9
				l0.4-3.3c0.5-6.7,0.8-13.4,1-20.1C783.4,76.2,783.9,76.2,783.9,76.5L783.9,76.5z"/>
		</g>
		<path stroke="#000000" stroke-linecap="round" stroke-miterlimit="10" d="M777.3,85.1c0,0,0.8-8.2,3.3-10.7c2.6-2.6,3,3.5,3,3.5
			v-8l-5.9,5.9L777.3,85.1z"/>
	</g>
	<g display="inline">
		<path fill="none" stroke="#000000" stroke-width="3" stroke-miterlimit="10" d="M63.4,711.6h-1.3c-4.4,0-8.3-0.5-11.7-1.4
			s-6.1-2.1-8.1-3.5s-3.7-3.1-5-5s-2.2-3.8-2.7-5.6s-0.7-3.7-0.7-5.6V689c0-2,0.2-3.9,0.7-5.6c0.4-1.8,1.3-3.6,2.7-5.5
			c1.3-1.9,3.1-3.5,5.2-4.9c2.1-1.4,5-2.5,8.6-3.4c3.6-0.9,7.8-1.3,12.5-1.3h2.2c4.9,0,9.2,0.4,12.8,1.2c3.7,0.8,6.5,1.7,8.5,2.8
			s3.6,2.4,4.9,4s2.1,3,2.4,4.2c0.4,1.3,0.6,2.6,0.6,4v0.1H78.4c-0.1-0.3-0.2-0.7-0.4-1c-0.2-0.3-0.6-0.8-1.2-1.3
			c-0.6-0.6-1.3-1-2.2-1.4c-0.9-0.4-2.2-0.7-3.9-1.1c-1.7-0.3-3.7-0.5-5.9-0.5c-9.6,0-14.4,3.4-14.4,10.3v0.6c0,3,1.2,5.5,3.5,7.5
			c2.4,2,6,3.1,10.8,3.1c2.1,0,3.9-0.1,5.6-0.4s3-0.6,4.1-1c1-0.4,1.9-0.9,2.6-1.3c0.7-0.5,1.2-0.9,1.5-1.3c0.3-0.4,0.4-0.8,0.4-1.1
			H64.3v-8.1h31v23.5H85.2c-0.4-2.2-1.1-4.1-2-5.8C79.3,709.4,72.7,711.6,63.4,711.6z"/>
		<path fill="none" stroke="#000000" stroke-width="3" stroke-miterlimit="10" d="M128.7,696.5v14.3h-16V669h38
			c11.7,0,17.6,3.6,17.6,10.7v0.6c0,1.4-0.3,2.7-0.8,3.9s-1.3,2.1-2.2,2.8s-1.8,1.3-2.7,1.7s-1.8,0.7-2.7,1c2.7,0.6,4.8,1.8,6.3,3.5
			s2.3,3.9,2.3,6.5v6.2c0,2.2,0.3,3.7,0.8,4.7v0.3H153c-0.3-0.4-0.5-1.1-0.5-2.2v-4.9c0-2.5-0.6-4.3-1.9-5.5
			c-1.3-1.2-3.5-1.8-6.5-1.8H128.7z M128.7,679.2v7.2H147c3.2,0,4.8-1.2,4.8-3.6v-0.1c0-2.4-1.6-3.5-4.8-3.5L128.7,679.2
			L128.7,679.2z"/>
		<path fill="none" stroke="#000000" stroke-width="3" stroke-miterlimit="10" d="M228.8,710.8l-3.3-6.7h-23.9l-3.2,6.7h-16.2
			l20.7-41.8h21.5l21.9,41.8H228.8z M220.4,693.7l-7-14.4l-6.9,14.4H220.4z"/>
		<path fill="none" stroke="#000000" stroke-width="3" stroke-miterlimit="10" d="M295.3,697.8h-18.9v13.1h-16V669h34.8
			c13.2,0,19.8,4.6,19.8,13.8v0.9C315.1,693.1,308.5,697.8,295.3,697.8z M276.4,679.5v7.8h17c3.5,0,5.3-1.3,5.3-3.8v-0.2
			c0-2.5-1.8-3.8-5.3-3.8H276.4z"/>
		<path fill="none" stroke="#000000" stroke-width="3" stroke-miterlimit="10" d="M331.1,710.8V669h16v14.8h26.1V669h15.9v41.8
			h-15.9v-15.9H347v15.9H331.1z"/>
		<path fill="none" stroke="#000000" stroke-width="3" stroke-miterlimit="10" d="M422.7,669v41.8h-15.9V669H422.7z"/>
		<path fill="none" stroke="#000000" stroke-width="3" stroke-miterlimit="10" d="M470.8,711.6h-2.2c-4.9,0-9.2-0.5-12.9-1.5
			c-3.7-1-6.6-2.2-8.6-3.6c-2.1-1.4-3.7-3.2-5-5.1c-1.3-2-2.1-3.8-2.5-5.5s-0.6-3.4-0.6-5.3V689c0-1.9,0.2-3.6,0.5-5.3
			c0.4-1.6,1.2-3.5,2.4-5.4c1.2-2,2.9-3.7,4.9-5.1c2-1.4,4.9-2.6,8.7-3.5c3.7-1,8.1-1.4,13.1-1.4h2.2c3.5,0,6.7,0.2,9.6,0.7
			c2.9,0.4,5.3,1,7.3,1.7s3.7,1.6,5.2,2.6s2.7,2,3.6,3s1.6,2.1,2.1,3.2c0.5,1.1,0.9,2.2,1.1,3.1c0.2,0.9,0.3,1.8,0.3,2.6v0.7h-16.6
			c-1.3-4.3-5.9-6.4-13.8-6.4c-9.3,0-14,3.3-14,9.8v0.7c0,1.2,0.2,2.4,0.6,3.5s1.1,2.2,2.1,3.3s2.5,1.9,4.4,2.6c1.9,0.6,4.2,1,6.9,1
			c2.3,0,4.4-0.2,6.1-0.6c1.8-0.4,3.1-0.9,4-1.4s1.6-1.2,2.2-2s1-1.3,1.1-1.7s0.2-0.7,0.3-1.1h16.5v0.9c0,1.3-0.2,2.6-0.6,3.9
			c-0.4,1.3-1.2,2.8-2.5,4.5s-2.9,3.1-4.9,4.4c-2,1.3-4.8,2.3-8.5,3.2C479.9,711.2,475.6,711.6,470.8,711.6z"/>
		<path fill="none" stroke="#000000" stroke-width="3" stroke-miterlimit="10" d="M587.4,710.8l-3.3-6.7h-23.9l-3.2,6.7h-16.2
			l20.7-41.8H583l21.9,41.8H587.4z M579,693.7l-7-14.4l-6.9,14.4H579z"/>
		<path fill="none" stroke="#000000" stroke-width="3" stroke-miterlimit="10" d="M635,696.5v14.3h-16V669h38
			c11.7,0,17.6,3.6,17.6,10.7v0.6c0,1.4-0.3,2.7-0.8,3.9c-0.6,1.2-1.3,2.1-2.2,2.8s-1.8,1.3-2.7,1.7s-1.8,0.7-2.7,1
			c2.7,0.6,4.8,1.8,6.3,3.5s2.3,3.9,2.3,6.5v6.2c0,2.2,0.3,3.7,0.8,4.7v0.3h-16.3c-0.3-0.4-0.5-1.1-0.5-2.2v-4.9
			c0-2.5-0.6-4.3-1.9-5.5c-1.3-1.2-3.5-1.8-6.5-1.8H635z M635,679.2v7.2h18.3c3.2,0,4.8-1.2,4.8-3.6v-0.1c0-2.4-1.6-3.5-4.8-3.5
			L635,679.2L635,679.2z"/>
		<path fill="none" stroke="#000000" stroke-width="3" stroke-miterlimit="10" d="M707.7,710.8v-30.4h-18V669h52v11.4h-18v30.4
			L707.7,710.8L707.7,710.8z"/>
		<path fill="none" stroke="#000000" stroke-width="3" stroke-miterlimit="10" d="M774.1,669v41.8h-15.9V669H774.1z"/>
		<path fill="none" stroke="#000000" stroke-width="3" stroke-miterlimit="10" d="M820.6,711.6h-5.1c-17,0-25.5-4.9-25.5-14.8v-0.6
			h17.5c0.3,3.9,3.8,5.9,10.5,5.9h0.5c2.1,0,3.9-0.1,5.3-0.3c1.4-0.2,2.5-0.5,3.1-0.9c0.7-0.4,1.1-0.8,1.4-1.2
			c0.2-0.4,0.4-0.9,0.4-1.5v-0.1c0-0.8-0.2-1.4-0.6-1.9c-0.4-0.5-1.3-0.9-2.8-1.2c-1.5-0.4-3.6-0.6-6.4-0.6l-7.8-0.2
			c-13.7-0.4-20.5-4.6-20.5-12.6v-0.5c0-1.5,0.2-2.8,0.6-4c0.4-1.2,1.2-2.3,2.2-3.5c1.1-1.1,2.5-2.1,4.3-2.8s4.1-1.4,6.9-1.8
			c2.9-0.5,6.2-0.7,10-0.7h5c16.9,0,25.4,4.4,25.4,13.2v0.4h-17.4c-0.3-3-3.7-4.4-10.1-4.4H817c-2.6,0-4.6,0.2-6.1,0.5
			c-1.4,0.3-2.3,0.7-2.6,1.1s-0.5,0.9-0.5,1.5v0.1c0,0.6,0.2,1.2,0.6,1.6c0.4,0.4,1.3,0.8,2.7,1.1s3.3,0.5,5.8,0.5l7.5,0.2
			c7.9,0.2,13.6,1.3,17,3.3s5.1,5.1,5.1,9.3v0.8c0,1.5-0.2,2.9-0.6,4.2c-0.4,1.3-1.1,2.5-2.2,3.8c-1.1,1.3-2.6,2.4-4.5,3.3
			c-1.9,0.9-4.4,1.6-7.5,2.1C828.6,711.4,824.9,711.6,820.6,711.6z"/>
		<path fill="none" stroke="#000000" stroke-width="3" stroke-miterlimit="10" d="M877.9,710.8v-30.4h-18V669h52v11.4h-18v30.4
			L877.9,710.8L877.9,710.8z"/>
	</g>
	<g display="inline">
		<g>
			<path fill="#010101" stroke="#000000" stroke-width="3" stroke-miterlimit="10" d="M129.6,529.3v27.9H99.8v84.3H64.6v-84.3H35.1
				v-27.9H129.6z"/>
			<path fill="#010101" stroke="#000000" stroke-width="3" stroke-miterlimit="10" d="M274.6,529.3v112.2h-35.2v-43.8H206v43.8
				h-35.2V529.3H206v40.4h33.4v-40.4H274.6z"/>
			<path fill="#010101" stroke="#000000" stroke-width="3" stroke-miterlimit="10" d="M357.4,557.3v13.8h34.9v26.5h-34.9v15.9H397
				v28.1h-74.8V529.3H397v28.1L357.4,557.3L357.4,557.3z"/>
			<path fill="#010101" stroke="#000000" stroke-width="3" stroke-miterlimit="10" d="M636.2,578.3c-0.8-8.4-3.3-16.1-7.4-23
				c-5.1-8.8-12.1-15.6-20.8-20.5c-8.8-4.9-18.5-7.4-29-7.4c-10.6,0-20.3,2.4-29.1,7.4c-8.8,4.9-15.8,11.8-21,20.5
				c-1.8,3.1-3.3,6.3-4.5,9.6c-1.5,4.2-2.5,8.7-3,13.4c-0.2,2.1-0.3,4.4-0.3,6.6c0,2.3,0.1,4.6,0.4,6.8c0.5,4.7,1.5,9.2,3,13.4
				c1.2,3.2,2.6,6.4,4.4,9.4c0.8,1.4,1.7,2.8,2.6,4.1c3.7,5.3,8.2,9.8,13.5,13.4c1.6,1.1,3.2,2.1,4.9,3.1c8.8,5,18.5,7.5,29.1,7.5
				c10.5,0,20.1-2.5,28.9-7.5c8.8-5,15.8-11.8,20.9-20.6c1.8-3,3.2-6.1,4.3-9.4c1.5-4.2,2.5-8.7,3-13.4c0.2-2.2,0.4-4.5,0.4-6.8
				C636.5,582.7,636.4,580.5,636.2,578.3z M595.2,603.1c-0.7,0.8-1.4,1.5-2.1,2.1c-3.6,3.1-8.3,4.6-14.1,4.6
				c-5.9,0-10.6-1.5-14.2-4.6c-0.8-0.6-1.5-1.4-2.1-2.1c-2.6-3-4.3-6.8-5.1-11.3c-0.4-2.1-0.6-4.4-0.6-6.8c0-2.4,0.2-4.5,0.5-6.6
				c0.8-4.7,2.5-8.6,5.2-11.7c0.5-0.6,1.1-1.2,1.7-1.7c3.7-3.3,8.5-5,14.6-5c6,0,10.8,1.7,14.5,5c0.6,0.5,1.2,1.1,1.7,1.7
				c2.6,3.1,4.4,7,5.2,11.7c0.4,2.1,0.5,4.3,0.5,6.6c0,2.4-0.2,4.7-0.6,6.8C599.5,596.3,597.7,600,595.2,603.1z"/>
			<path fill="#010101" stroke="#000000" stroke-width="3" stroke-miterlimit="10" d="M715.3,529.3v63.2c0,5.2,1.1,9.3,3.4,12.3
				c2.3,3,5.9,4.5,11,4.5s8.8-1.5,11.3-4.5c2.4-3,3.6-7.1,3.6-12.3v-63.2h35v63.2c0,10.7-2.2,19.8-6.7,27.3
				c-4.4,7.6-10.5,13.2-18.2,17s-16.3,5.7-25.8,5.7s-17.9-1.9-25.3-5.7c-7.3-3.8-13.1-9.5-17.2-17c-4.1-7.5-6.2-16.6-6.2-27.4v-63.2
				h35.1L715.3,529.3L715.3,529.3z"/>
			<path fill="#010101" stroke="#000000" stroke-width="3" stroke-miterlimit="10" d="M837.3,633.2c-8.7-6.3-13.4-15.5-14.2-27.7
				h37.4c0.5,6.4,3.4,9.7,8.6,9.7c1.9,0,3.5-0.4,4.8-1.3c1.3-0.9,2-2.3,2-4.2c0-2.6-1.4-4.8-4.3-6.4c-2.9-1.6-7.3-3.5-13.3-5.6
				c-7.2-2.5-13.1-5-17.8-7.5c-4.7-2.4-8.7-6-12.1-10.6c-3.4-4.6-5-10.6-4.9-17.9c0-7.3,1.9-13.5,5.6-18.6c3.8-5.1,8.9-9,15.4-11.7
				c6.5-2.6,13.8-4,22-4c13.7,0,24.6,3.2,32.7,9.5c8.1,6.3,12.3,15.3,12.8,26.8h-38c-0.1-3.2-0.9-5.4-2.4-6.8
				c-1.5-1.4-3.3-2.1-5.4-2.1c-1.5,0-2.7,0.5-3.6,1.5c-1,1-1.4,2.4-1.4,4.2c0,2.5,1.4,4.6,4.2,6.3c2.8,1.6,7.3,3.6,13.4,5.9
				c7.1,2.6,12.9,5.2,17.5,7.6c4.6,2.4,8.6,5.8,12,10.1s5.1,9.8,5.1,16.3c0,6.9-1.7,13-5.1,18.5c-3.4,5.4-8.3,9.7-14.7,12.8
				s-14.1,4.6-23,4.6C857.1,642.6,846,639.5,837.3,633.2z"/>
		</g>
		<g>
			<line fill="none" stroke="#000000" stroke-width="3" stroke-miterlimit="10" x1="35.3" y1="529.6" x2="34.4" y2="530.5"/>
			<line fill="none" stroke="#000000" stroke-width="3" stroke-miterlimit="10" x1="54.4" y1="529.6" x2="34.4" y2="549.5"/>
			<line fill="none" stroke="#000000" stroke-width="3" stroke-miterlimit="10" x1="73.4" y1="529.6" x2="45.4" y2="557.5"/>
			<line fill="none" stroke="#000000" stroke-width="3" stroke-miterlimit="10" x1="92.4" y1="529.6" x2="63.9" y2="558"/>
			<line fill="none" stroke="#000000" stroke-width="3" stroke-miterlimit="10" x1="111.4" y1="529.6" x2="63.9" y2="577"/>
			<line fill="none" stroke="#000000" stroke-width="3" stroke-miterlimit="10" x1="128.7" y1="531.3" x2="102.5" y2="557.5"/>
			<line fill="none" stroke="#000000" stroke-width="3" stroke-miterlimit="10" x1="99.2" y1="560.8" x2="63.9" y2="596"/>
			<line fill="none" stroke="#000000" stroke-width="3" stroke-miterlimit="10" x1="99.2" y1="579.8" x2="63.9" y2="615"/>
			<path fill="#010101" stroke="#000000" stroke-width="3" stroke-miterlimit="10" d="M121.5,557.5"/>
			<path fill="#010101" stroke="#000000" stroke-width="3" stroke-miterlimit="10" d="M129,550"/>
			<line fill="none" stroke="#000000" stroke-width="3" stroke-miterlimit="10" x1="99.2" y1="598.8" x2="63.9" y2="634"/>
			<line fill="none" stroke="#000000" stroke-width="3" stroke-miterlimit="10" x1="99.2" y1="617.8" x2="75" y2="641.9"/>
			<line fill="none" stroke="#000000" stroke-width="3" stroke-miterlimit="10" x1="187.4" y1="529.6" x2="170.3" y2="546.7"/>
			<path fill="#010101" stroke="#000000" stroke-width="3" stroke-miterlimit="10" d="M94.1,641.9"/>
			<path fill="#010101" stroke="#000000" stroke-width="3" stroke-miterlimit="10" d="M99.2,636.8"/>
			<line fill="none" stroke="#000000" stroke-width="3" stroke-miterlimit="10" x1="205.5" y1="530.5" x2="170.3" y2="565.7"/>
			<line fill="none" stroke="#000000" stroke-width="3" stroke-miterlimit="10" x1="205.5" y1="549.5" x2="170.3" y2="584.7"/>
			<line fill="none" stroke="#000000" stroke-width="3" stroke-miterlimit="10" x1="205.5" y1="568.5" x2="170.3" y2="603.7"/>
			<path fill="#010101" stroke="#000000" stroke-width="3" stroke-miterlimit="10" d="M239,535"/>
			<path fill="#010101" stroke="#000000" stroke-width="3" stroke-miterlimit="10" d="M244.4,529.6"/>
			<line fill="none" stroke="#000000" stroke-width="3" stroke-miterlimit="10" x1="223" y1="570" x2="170.3" y2="622.7"/>
			<line fill="none" stroke="#000000" stroke-width="3" stroke-miterlimit="10" x1="263.4" y1="529.6" x2="239" y2="554"/>
			<line fill="none" stroke="#000000" stroke-width="3" stroke-miterlimit="10" x1="205.5" y1="606.5" x2="170.3" y2="641.8"/>
			<line fill="none" stroke="#000000" stroke-width="3" stroke-miterlimit="10" x1="274.2" y1="537.8" x2="213.9" y2="598.1"/>
			<line fill="none" stroke="#000000" stroke-width="3" stroke-miterlimit="10" x1="274.2" y1="556.8" x2="232.9" y2="598.1"/>
			<line fill="none" stroke="#000000" stroke-width="3" stroke-miterlimit="10" x1="205.5" y1="625.5" x2="189.1" y2="641.9"/>
			<line fill="none" stroke="#000000" stroke-width="3" stroke-miterlimit="10" x1="274.2" y1="575.8" x2="239" y2="611.1"/>
			<line fill="none" stroke="#000000" stroke-width="3" stroke-miterlimit="10" x1="339.4" y1="529.6" x2="321.8" y2="547.2"/>
			<line fill="none" stroke="#000000" stroke-width="3" stroke-miterlimit="10" x1="274.2" y1="594.8" x2="239" y2="630.1"/>
			<line fill="none" stroke="#000000" stroke-width="3" stroke-miterlimit="10" x1="358.4" y1="529.6" x2="321.8" y2="566.2"/>
			<line fill="none" stroke="#000000" stroke-width="3" stroke-miterlimit="10" x1="274.2" y1="613.8" x2="246.1" y2="641.9"/>
			<line fill="none" stroke="#000000" stroke-width="3" stroke-miterlimit="10" x1="377.4" y1="529.6" x2="321.8" y2="585.2"/>
			<line fill="none" stroke="#000000" stroke-width="3" stroke-miterlimit="10" x1="274.2" y1="632.8" x2="265.1" y2="641.9"/>
			<line fill="none" stroke="#000000" stroke-width="3" stroke-miterlimit="10" x1="357" y1="569" x2="321.8" y2="604.2"/>
			<line fill="none" stroke="#000000" stroke-width="3" stroke-miterlimit="10" x1="396.4" y1="529.6" x2="368.4" y2="557.7"/>
			<line fill="none" stroke="#000000" stroke-width="3" stroke-miterlimit="10" x1="373.6" y1="571.5" x2="321.8" y2="623.2"/>
			<line fill="none" stroke="#000000" stroke-width="3" stroke-miterlimit="10" x1="396.7" y1="548.4" x2="387.4" y2="557.7"/>
			<line fill="none" stroke="#000000" stroke-width="3" stroke-miterlimit="10" x1="357" y1="607" x2="322.1" y2="641.9"/>
			<path fill="#010101" stroke="#000000" stroke-width="3" stroke-miterlimit="10" d="M366.1,598"/>
			<line fill="none" stroke="#000000" stroke-width="3" stroke-miterlimit="10" x1="369.2" y1="613.9" x2="341.1" y2="641.9"/>
			<line fill="none" stroke="#000000" stroke-width="3" stroke-miterlimit="10" x1="391.3" y1="571.8" x2="365.1" y2="598.1"/>
			<line fill="none" stroke="#000000" stroke-width="3" stroke-miterlimit="10" x1="388.2" y1="613.9" x2="360.1" y2="641.9"/>
			<line fill="none" stroke="#000000" stroke-width="3" stroke-miterlimit="10" x1="396.7" y1="624.4" x2="379.1" y2="641.9"/>
			<line fill="none" stroke="#000000" stroke-width="3" stroke-miterlimit="10" x1="611.7" y1="538" x2="545.4" y2="538"/>
			<line fill="none" stroke="#000000" stroke-width="3" stroke-miterlimit="10" x1="625.5" y1="551.4" x2="531.8" y2="551.4"/>
			<polyline fill="#010101" stroke="#000000" stroke-width="3" stroke-miterlimit="10" points="524.4,564.9 524.4,564.9 
				564.3,564.9 			"/>
			<line fill="none" stroke="#000000" stroke-width="3" stroke-miterlimit="10" x1="633" y1="564.9" x2="593.5" y2="564.9"/>
			<polyline fill="#010101" stroke="#000000" stroke-width="3" stroke-miterlimit="10" points="521,578.3 521.5,578.3 557.5,578.3 
							"/>
			<polyline fill="#010101" stroke="#000000" stroke-width="3" stroke-miterlimit="10" points="600.3,578.3 636.2,578.3 
				636.5,578.3 			"/>
			<polyline fill="#010101" stroke="#000000" stroke-width="3" stroke-miterlimit="10" points="521,591.8 521.5,591.8 557.5,591.8 
							"/>
			<polyline fill="#010101" stroke="#000000" stroke-width="3" stroke-miterlimit="10" points="600.3,591.8 636.2,591.8 
				636.6,591.8 			"/>
			<polyline fill="#010101" stroke="#000000" stroke-width="3" stroke-miterlimit="10" points="524.3,605.2 524.5,605.2 
				564.8,605.2 			"/>
			<polyline fill="#010101" stroke="#000000" stroke-width="3" stroke-miterlimit="10" points="593,605.2 633.2,605.2 633.4,605.2 
							"/>
			<line fill="none" stroke="#000000" stroke-width="3" stroke-miterlimit="10" x1="626.1" y1="618.6" x2="531.5" y2="618.6"/>
			<line fill="none" stroke="#000000" stroke-width="3" stroke-miterlimit="10" x1="681.5" y1="529.6" x2="680.2" y2="530.9"/>
			<polyline fill="#010101" stroke="#000000" stroke-width="3" stroke-miterlimit="10" points="544.7,632.1 544.7,632.1 
				612.8,632.1 			"/>
			<path fill="#010101" stroke="#000000" stroke-width="3" stroke-miterlimit="10" d="M449.1,638.8c-0.6-0.6-1.1-1.2-1.6-1.8
				c-1.2-1.6-2.1-3.3-2.6-5.2c-0.7-2.6-0.7-5.2,0.1-7.8c0.5-1.9,1.4-3.5,2.5-5.1l0,0c0.5-0.6,1-1.2,1.6-1.8s1.3-1.2,2-1.7
				c1.1-0.8,2.3-1.5,3.6-1.9c0.4-0.2,0.8-0.3,1.3-0.4c0.8-0.2,1.5-0.4,2.3-0.5c1.2-0.1,2.4-0.1,3.6,0c0.7,0.1,1.3,0.2,2,0.4
				c0.6,0.1,1.1,0.3,1.6,0.5c1.3,0.5,2.5,1.1,3.6,2c0.6,0.5,1.3,1,1.9,1.6s1.2,1.3,1.7,2c1.1,1.6,1.9,3.2,2.4,5.1
				c0.7,2.6,0.6,5.2-0.1,7.8c-0.5,1.7-1.3,3.3-2.3,4.8c-0.5,0.7-1.1,1.4-1.8,2.1c-0.6,0.6-1.2,1.1-1.8,1.6c-1.1,0.8-2.3,1.5-3.6,2
				c-0.5,0.2-1,0.4-1.5,0.5c-0.7,0.2-1.4,0.3-2.1,0.4c-1.2,0.2-2.4,0.2-3.6,0c-0.7-0.1-1.4-0.2-2.1-0.4c-0.5-0.1-1-0.3-1.5-0.5
				c-1.3-0.5-2.5-1.1-3.6-2C450.4,640,449.8,639.4,449.1,638.8z"/>
			<path fill="#010101" stroke="#000000" stroke-width="3" stroke-miterlimit="10" d="M472.6,619"/>
			<path fill="#010101" stroke="#000000" stroke-width="3" stroke-miterlimit="10" d="M472.6,636.7"/>
			<line fill="none" stroke="#000000" stroke-width="3" stroke-miterlimit="10" x1="467.2" y1="641.6" x2="467.2" y2="613.8"/>
			<path fill="#010101" stroke="#000000" stroke-width="3" stroke-miterlimit="10" d="M465.5,613.4"/>
			<path fill="#010101" stroke="#000000" stroke-width="3" stroke-miterlimit="10" d="M465.5,642.4"/>
			<line fill="none" stroke="#000000" stroke-width="3" stroke-miterlimit="10" x1="460" y1="643.3" x2="460" y2="612.5"/>
			<path fill="#010101" stroke="#000000" stroke-width="3" stroke-miterlimit="10" d="M458.3,643.3"/>
			<line fill="none" stroke="#000000" stroke-width="3" stroke-miterlimit="10" x1="452.8" y1="641.6" x2="452.8" y2="614.7"/>
			<path fill="#010101" stroke="#000000" stroke-width="3" stroke-miterlimit="10" d="M451.1,615.3"/>
			<path fill="#010101" stroke="#000000" stroke-width="3" stroke-miterlimit="10" d="M451.1,640.5"/>
			<path fill="#010101" stroke="#000000" stroke-width="3" stroke-miterlimit="10" d="M447.5,637"/>
			<line fill="none" stroke="#000000" stroke-width="3" stroke-miterlimit="10" x1="447.5" y1="618.8" x2="447.5" y2="618.8"/>
			<line fill="none" stroke="#000000" stroke-width="3" stroke-miterlimit="10" x1="700.5" y1="529.6" x2="680.2" y2="549.9"/>
			<line fill="none" stroke="#000000" stroke-width="3" stroke-miterlimit="10" x1="715.3" y1="533.8" x2="680.2" y2="568.9"/>
			<line fill="none" stroke="#000000" stroke-width="3" stroke-miterlimit="10" x1="715.3" y1="552.8" x2="680.2" y2="587.9"/>
			<line fill="none" stroke="#000000" stroke-width="3" stroke-miterlimit="10" x1="715.3" y1="571.8" x2="681.4" y2="605.8"/>
			<line fill="none" stroke="#000000" stroke-width="3" stroke-miterlimit="10" x1="757.5" y1="529.6" x2="744.7" y2="542.5"/>
			<line fill="none" stroke="#000000" stroke-width="3" stroke-miterlimit="10" x1="715.3" y1="590.8" x2="686.2" y2="619.9"/>
			<line fill="none" stroke="#000000" stroke-width="3" stroke-miterlimit="10" x1="776.5" y1="529.6" x2="744.7" y2="561.5"/>
			<line fill="none" stroke="#000000" stroke-width="3" stroke-miterlimit="10" x1="719.3" y1="605.9" x2="694.4" y2="630.8"/>
			<line fill="none" stroke="#000000" stroke-width="3" stroke-miterlimit="10" x1="779.7" y1="545.4" x2="744.7" y2="580.5"/>
			<polyline fill="#010101" stroke="#000000" stroke-width="3" stroke-miterlimit="10" points="779.7,564.4 779.5,564.6 
				743.5,600.6 743.2,600.9 			"/>
			<polyline fill="#010101" stroke="#000000" stroke-width="3" stroke-miterlimit="10" points="705.8,638.4 735.1,609 735.2,608.9 
							"/>
			<line fill="none" stroke="#000000" stroke-width="3" stroke-miterlimit="10" x1="779.7" y1="583.4" x2="720.6" y2="642.5"/>
			<polyline fill="#010101" stroke="#000000" stroke-width="3" stroke-miterlimit="10" points="740,642.1 740,642.1 779,603.2 			
				"/>
			<line fill="none" stroke="#000000" stroke-width="3" stroke-miterlimit="10" x1="853.1" y1="529" x2="823.7" y2="558.5"/>
			<line fill="none" stroke="#000000" stroke-width="3" stroke-miterlimit="10" x1="873.2" y1="528" x2="825.8" y2="575.3"/>
			<polyline fill="#010101" stroke="#000000" stroke-width="3" stroke-miterlimit="10" points="888.8,531.3 864.8,555.3 
				864.8,555.4 			"/>
			<line fill="none" stroke="#000000" stroke-width="3" stroke-miterlimit="10" x1="861.6" y1="558.5" x2="834.1" y2="586.1"/>
			<line fill="none" stroke="#000000" stroke-width="3" stroke-miterlimit="10" x1="869.8" y1="569.3" x2="846" y2="593.1"/>
			<path fill="#010101" stroke="#000000" stroke-width="3" stroke-miterlimit="10" d="M824.5,614.6"/>
			<path fill="#010101" stroke="#000000" stroke-width="3" stroke-miterlimit="10" d="M833.3,605.9"/>
			<line fill="none" stroke="#000000" stroke-width="3" stroke-miterlimit="10" x1="900.8" y1="538.4" x2="875.1" y2="564"/>
			<line fill="none" stroke="#000000" stroke-width="3" stroke-miterlimit="10" x1="883.4" y1="574.8" x2="859.7" y2="598.4"/>
			<line fill="none" stroke="#000000" stroke-width="3" stroke-miterlimit="10" x1="852.2" y1="605.9" x2="830.8" y2="627.4"/>
			<line fill="none" stroke="#000000" stroke-width="3" stroke-miterlimit="10" x1="908.8" y1="549.3" x2="894.1" y2="564"/>
			<line fill="none" stroke="#000000" stroke-width="3" stroke-miterlimit="10" x1="863.6" y1="613.6" x2="841.2" y2="636"/>
			<line fill="none" stroke="#000000" stroke-width="3" stroke-miterlimit="10" x1="896.5" y1="580.7" x2="872.8" y2="604.3"/>
			<line fill="none" stroke="#000000" stroke-width="3" stroke-miterlimit="10" x1="907" y1="589.2" x2="854.8" y2="641.3"/>
			<line fill="none" stroke="#000000" stroke-width="3" stroke-miterlimit="10" x1="913.1" y1="602.1" x2="872.2" y2="643"/>
			<line fill="none" stroke="#000000" stroke-width="3" stroke-miterlimit="10" x1="908.2" y1="625.9" x2="898.3" y2="635.9"/>
		</g>
	</g>
	<g display="inline">
		<line fill="none" x1="22.7" y1="493.2" x2="913.1" y2="493.2"/>
		<path d="M22.7,493.2c296.7-10.3,593.7-10.4,890.4,0C616.4,503.6,319.4,503.5,22.7,493.2L22.7,493.2z"/>
	</g>
</g>
<g>
	<path fill="#434B66" d="M447.8,260.4c-7.2,5.7-14.5,20-13.5,26.5l6.2-6.6l0.8,0.7c-1.3,2.3-2.8,4.7-4,7.1c-0.2,0.2-0.2,0.6-0.4,0.8
		v0.1c-2.6,5.4-2.9,10.7-1.9,16.1c0.5,2.8,1.5,5.5,2.8,8.2c0.3,0.6,0.5,1,0.9,1.4c1.4,1.2,3.5,1.1,4.7-0.2c2.1-2,3.9-4.1,5.4-6.5
		c0.8-1,1.3-1.9,1.9-2.9c2.9-5.2,4.5-10.6,4.8-16.2v-0.8c0.2-4.8-0.4-9.6-1.7-14.6C452.7,268.7,451.5,264,447.8,260.4z"/>
	<path fill="#434B66" d="M530.3,249.2c-1.8,4.6-3.7,9.3-2,14.4c2.9-4.3,5.5-8.5,8.4-13l5.4,13.9c2.1-10.9,4-20.5,5.8-30.4
		C540.8,234.1,534.4,239.4,530.3,249.2z"/>
	<path fill="#434B66" d="M504.1,254.5c-3.2,3.4-6.2,7.1-9.2,10.7c-2.9,3.6-4.3,8.2-4.1,12.8c0,3.4,0.2,6.7,0.7,10
		c0.1,0.2,0.1,0.6,0.2,0.8c0.8,5.4,2.2,10.8,4,16.2c0.4,1.3,0.9,2.7,1.4,4c0.4-0.2,0.8-0.4,1.2-0.6c1-1,2-2.2,3-3.3
		c3.9-4.9,6.9-10.4,8.8-16.2c0-0.2,0.1-0.6,0.2-0.8c3.2-10.6,2.7-22.2-1.6-33C507.4,252.1,505.6,252.9,504.1,254.5z"/>
	<path fill="#434B66" d="M400.1,373c-0.8,4.7-2,6.7-2,6.7s9.5-6.8,10.1-17.5C408.2,362.2,400.9,368.2,400.1,373z"/>
	<path fill="#434B66" d="M436.8,335.1c5.9,5.7,5,11.6,1.9,17.7c6.1-3.5,9.3-8.8,7.7-12.8C444.9,336.4,441.8,334.9,436.8,335.1z"/>
	<path fill="#434B66" d="M412,262.4c-11.5,6.2-18.2,15-19.9,25.7c0,0.2-0.1,0.6-0.1,0.8c-0.6,5-0.2,10.4,1.4,16.2
		c0.1,0.5,0.2,1,0.4,1.5c2.1,6.6,4.3,13.2,6.2,19.8c2,7,0.2,12.9-4.6,18.1c-1.8,1.8-3.5,3.7-5.9,6.1c7.1-2.2,16.4-11.3,18.3-17.2
		c2.6-8.2,2-16.4,0.2-24.5c-0.2-1.3-0.5-2.6-0.7-3.9c-1-5.5-1.3-10.9-0.8-16.2c0-0.2,0.1-0.5,0-0.7c0.9-7.3,3.5-14.5,8.6-21.1
		c2-2.4,3.8-4.9,5.6-7.3l-0.8-1C417.3,260,414.6,261,412,262.4z"/>
	<path fill="#434B66" d="M538.5,346.2c-10.8,8.1-11.7,26.2-2,36.2c1.8-8.1,2.5-16.4,5.4-23.8c2.9-7.3,7.9-13.9,12.3-21.2
		c-1.3,0.3-2.5,0.8-3.6,1.3C546.4,341,542.4,343.5,538.5,346.2z"/>
	<path fill="#434B66" d="M350.6,450.5c0.1-0.2,0.2-0.4,0.2-0.6C350.7,450.2,350.7,450.3,350.6,450.5z"/>
	<path fill="#434B66" d="M599.8,486.1c-0.8-2.4-6.9-17.9-9.3-34.5c0-0.3-0.1-0.7-0.2-1h0.1c-0.1-0.3-0.2-1.2-0.4-2.5l-10.8-66
		c0-0.2-2-17.3-2-47.1c0-29.9,3.1-47.1,3.1-47.2l0.1-0.7c0.5-3.5,0.9-7,1.5-10.8v-0.2l0.1-0.2c0.4-0.7,40.2-66.3,58.1-85.3L620,108
		l1-0.2c1.9-0.5,45.5-11.5,50.5-11.5h0.2c1,0.1,2.7,0.1,4.8,0.1c7.1,0,17.9,0,21.5,2c0,0,0.2,0.1,0.9,0.1c5.5,0,24.6-5,56.9-14.9
		c3.3-1,3.3-1,3.5-1h1v0.6c0,0,0,0,0,0c-0.2,8.1-0.3,16.2-0.5,24.3c-0.1,6-0.4,18.3-0.6,24.3c-0.1,11.8-0.9,24.8-1.6,36.5
		c-0.1,2-0.1,4.1-0.1,6.1c-0.1,2-0.1,4.1,1.6,6.1c0.7,0.9,2.2,0.9,2.9,0c1.7-2,1.7-4.1,1.6-6.1c0-2,0-4.1-0.1-6.1
		c-0.4-8.1-1.2-16.2-1.3-24.3c-0.3-11.5-0.7-23.4-0.9-35.3c0.7-5.2,2.8-17.8,7.4-22.3c1.1-1.1,2.1-1.5,2.9-1.2
		c1.9,0.7,2.8,5.1,3.1,7.8l-0.7,12c-0.3,4.8-0.7,9.7-1,14.6c0,0.8,0,1.6,0,2.4c0,0.8,0,1.6,1,2.4c0.8,0.7,2,0.7,2.8,0
		c1-0.8,1-1.6,1-2.4c0-2.4-0.2-4.9-0.4-7.3c-0.4-5.7-1.2-18.1-1.6-25.8v-2.5c0.3-2.1,1.2-7.7,3.1-9.5c0.4-0.4,0.9-0.6,1.3-0.5
		c1.3,0.2,2.6,2.5,3,3.4l0.3,0.8c-0.2,5.4-0.4,10.8-0.9,16.2l-0.4,3.3c-0.1,1.6-0.9,4.5,1.4,4.9c1,0.2,2-0.5,2.1-1.5
		c0.1-0.9-0.1-2.3-0.2-3.3l-0.4-3.3c-0.5-5.9-0.7-11.8-0.9-17.8c0,0,0-0.1,0-0.1l0.3-2.4c0.1-0.4,0.2-0.7,0.3-1.1
		c0.8-2.5,2.4-5.8,3.9-8.1c7.1-6,14.8-11.7,22.4-16c0,10.8-0.3,22.8-0.6,33.7c-0.4,11.1-0.6,23.3-1.3,34.3
		c-0.5,7.7-1.4,15.3-1.6,22.9c0.1,5.3,7.7,5.2,7.7,0c-0.2-7.7-1.1-15.3-1.6-22.9c-1.2-22.7-1.8-46-2-68.6c0-0.1-0.1-0.3-0.3-0.2
		c-0.2,0-0.3,0.1-0.3,0.2c0,0.1,0,0.2,0,0.4c-7.1,0.9-17.6,2.2-30.8,2.2c-7.1,0-14.3-0.4-21.3-1.2c-7.6-0.8-14.2-2.8-20.5-4.6
		c-8.6-2.6-17.6-5.2-29.8-5.2c-2.4,0-4.9,0.1-7.4,0.3c-8.5,0.7-24.8,6.2-33.6,9.2c-4,1.4-6,2-6.7,2.1c-1.8,0.2-7.6,0.4-17.8,0.4
		c-26.1,0-71.7-0.8-72.2-0.8h-0.5l-0.3-0.5c-4.7-7.7-18-28-23.6-29.3c-0.3-0.1-0.8-0.1-1.2-0.1c-7.5,0-23.2,11.5-23.3,11.6l-0.7,0.5
		l-0.6-0.5c-0.2-0.1-15.8-14.1-31.5-14.1c-14,0-23.9,10.9-29.3,32.5l-0.4,1.5l-1.2-1c-0.1-0.1-11.4-9.1-21.1-9.8c-0.2,0-0.5,0-0.7,0
		c-9.8,0-24.9,11.8-30.8,28.7l-0.4,1.2l-1.1-0.7c-0.1-0.1-8.4-5.7-18.3-5.7c-12.9,0-22.3,9.2-27.9,27.2l-0.2,0.5l-0.5,0.2
		c-1.6,0.5-159.4,45.3-233,88.6c0.9-0.2,1.8-0.3,2.9-0.5c99.4-16.7,164.8-25.1,194.3-25.1c7,0,11.9,0.5,14.8,1.5l0.9,0.3l-0.2,0.9
		c-0.1,0.3-7.2,28.6,12.5,64.1c20,36,29.5,82.3,27.2,106.3c-5.2,54-20.7,102.7-25,115.7c-0.1,0.2-0.1,0.4-0.2,0.6
		c-0.1,0.2-0.1,0.4-0.2,0.5c-0.2,0.5-0.3,1-0.5,1.4c-0.1,0.2-0.1,0.4-0.2,0.6c-5.2,15-11.7,32.6-14.4,35.5
		c-104.5,1.1-209.1,3.4-313.6,7.1c296.7,10.3,593.7,10.4,890.4,0C808.7,489.5,704.3,487.2,599.8,486.1z M700.5,49.1
		c6.5,0,11.8,1.9,35.2,7.1c21.8,5,40.2,2.2,42.4,1.8c0,0,0.1,0,0.1,0c-5.8,1.7-17.4,11-23,14.6c-5.7,3.6-12.7,6.6-16.8,7.9
		c-4.2,1.3-31.9,11.5-42.9,10.2c-3.2-0.4-14.7-2.4-22.8-2.1c-0.3-0.5-0.6-0.9-1-1.2c-3.5-2.8-6.3-16.5-6.9-27.6c0-0.1,0-0.2-0.1-0.3
		C673.9,56.9,694.3,49.1,700.5,49.1z M655.7,60.5c0.2,4.2,1.5,20.9,6.9,29.9c-2.4,0.6-5.4,1.3-8.6,2c-0.1-0.1-0.2-0.2-0.3-0.3
		c-4.2-3.6-7-20.2-7.7-31.4C649.7,60.7,653,60.6,655.7,60.5z M571.3,60L571.3,60L571.3,60c5-0.6,40,0.7,65.7,0.8
		c0.3,5.3,1.8,24,7.5,34C631,98,617,101.5,617,101.5c-1.3-6.2-7-17.3-13.7-23.2c-17.2-15.4-33.6-10.8-33.6-10.8L571.3,60z
		 M522.7,42.4c4.7-3.6,9.6-6,15.7-6.2c0.4,0,0.9,0,1.3,0c0.5,0,0.9,0,1.4,0.1c8.8,0.7,16.9,9.8,15.4,18.9
		c-1.1,6.6-2.3,13.1-3.7,19.6c-0.3,1.2-1.2,2.2-2.4,2.6c-8.7,1.7-17.6,2.5-26.4,2.5c-5.3,0-10.6-0.3-16-0.9
		c3.2-10.5,6.2-20.7,9.7-30.6C518.4,46,520.7,43.9,522.7,42.4z M464.4,71.2c0.6-2.3,0.9-4.6,1.3-6.9c0.2-1.2,0.3-2.3,0.5-3.5
		s0.3-2.3,0.5-3.5c2.2-14.7,13.3-20.4,25.4-24.8c0,0,0.1,0,0.2-0.1c0.6-0.2,1.2-0.3,2-0.3c5,0.1,12.8,5.2,14.2,9.4
		c0.1,0.4,0.2,0.8,0.1,1.2c0,0.1,0,0.2,0,0.3c-2,11.7-4.1,23.4-6.2,35.2c-0.1,0.2-0.2,0.5-0.4,0.7c-3.2-0.2-6.1-0.7-9.1-0.7
		c-2.7,0-4.3,0.4-5.3,1.4s-1.3,2.7-1.3,5.4c0,2.6,0.3,5.1,0.7,7.6c0.2,1.2,0.5,2.5,0.8,3.6c0.2,0.6,0.3,1.2,0.5,1.8
		c1.7,5.3,4.2,10.4,6.8,15.5c0.8,1.2,1.2,2.7,1.3,4.1c-0.7,9.8-1.5,19.5-2.5,29.2c-0.2,2.2-0.7,4-1.5,5.4c-0.4,0.7-0.8,1.3-1.3,1.8
		c0,0,0,0.1-0.1,0.1c-1.6,1.6-3.9,2.5-6.8,2.6h-0.1c-0.8,0-1.7,0-2.7-0.1c-0.6-0.1-1.2-0.1-1.8-0.1c-0.6,0-1.2,0-1.8,0
		c-0.9,0.1-1.8,0.1-2.6,0.1c-9.8,0-12.8-5.8-13.8-15c-1.1-10-1.6-20-1.7-30C459.3,98.2,461,84.5,464.4,71.2z M409.2,154.5
		c0.4-18.7,0.6-37.4,1.4-56.1c0.4-9,1.9-18,3.1-26.9c0.1-1.3,0.7-2.5,1.7-3.4c6.6-4,13.2-8.1,20.1-11.7c4.8-2.6,9.5-0.8,12.8,2.8
		c3.7,4,6.8,8.5,9.4,13.3c0.7,1.7,1,3.5,1,5.2c0,1.1-0.1,2.1-0.3,3.2c-0.5,2.9-1.1,5.7-1.6,8.6c-2.2,12-4.5,24-6.9,36
		c-1.8,9.4-3.6,18.8-5.5,28.2c-0.6,3.3-1.5,6.6-2.1,10c-1.6,9-3.7,9-10.7,10.5c-3.9,0.7-7.8,1.1-11.7,1c-5.9,0-9.6-3.2-10.4-9.1
		c-0.5-3.9-0.7-7.7-1-11.5L409.2,154.5z M369.6,154.2c0.1-13.1,0.5-26.2,0.9-39.4c0.2-4.4,0.3-8.8,0.4-13.1c0.1-4,0.5-8.1,0.8-12.2
		c0.2-2.5,0.9-4.6,2.1-6.3c1.7-2.4,4.4-3.9,8-4.2c7.2-0.6,14.3,0.2,20.7,4.3c1.6,1.1,2.8,3,3,4.9c0.3,6.8,0.2,13.6,0.2,20.4l0.3,0.1
		c-0.7,12.2-1.2,24.5-2.1,36.6c-0.5,7.1-4.2,12.8-9,17.7c-0.3,0.3-0.7,0.7-1,1c-0.9,1-2.2,1.6-3.5,1.7c-5.1-0.4-10.1-1-15.2-1.9
		C369.8,163,369.5,158.1,369.6,154.2z M159.3,173c52-25.2,201.5-69.4,201.5-69.4s-1.5,29.2-0.8,46
		C237.2,153.3,160.5,172.7,159.3,173z M388.1,428.1c-4.4,8.6-9.7,15-13.7,19.5c2.1-6.1,3.2-13.2,3.8-19.4c0.5-4.7,0.6-8.9,0.8-11.8
		c0.4-8.7,17.6-18.2,17.6-18.2C395.5,410.3,392.1,420.2,388.1,428.1z M423.5,437.4c-0.8,7.9-8.7,13.1-8.7,13.1
		c1.8-4.1-0.4-13.8,0.3-22.3c0.3-2.9,0.8-5.6,2.1-7.9c4.8-9.1,6.3-10.3,6.3-10.3c-2.5,6.8-1.5,12.8-0.7,18.3
		C423.3,431.5,423.8,434.5,423.5,437.4z M456.9,441.4c-8,9.2-15.5-0.5-15.1-12.7c0.1-4.1,1.1-8.6,3.3-12.7c0,0,0.3,6.3,2.2,9.9
		c2,3.6,4-15.9,4-15.9s8,9.3,9.1,19.1C461,433.3,460.2,437.7,456.9,441.4z M543.1,434.9c-0.7-1-1.1-1.9-1.2-2.9
		c-0.8-7.9-0.2-11.3-4.2-22c0,0,5.4,11.1,10.1,20.2c1.1,2.2,2.7,4.1,4.4,5.9c5.6,5.8,13,10,14.8,14.3
		C566.5,450.2,548,442.2,543.1,434.9z M576.6,441.5c-3.6-15.7-12.9-47.6-31.2-56.8c-5.3-2.7,9.4,35.5,7.4,32.7
		c-6.2-8.9-13.4-12.7-19.3-17.5c-7.1-5.8-17.4-36.7-17.8-37.7c0.2,1,5.6,34,9.4,41c1.3,2.4,8.1,26,6.8,30.2
		c-0.7,2.3-4.4-23-14.7-19.8c-5.4,1.7-10.6,10-14.2,17.6c-3.3,6.7-5.3,12.8-5.3,12.8c-0.2-1.7,1.1-6.6,2.7-13
		c3.3-12.7,8.4-31.2,6.9-40.7c-2.2-14.2-4.2-28.3-4.4-32.9c-0.5-10.5,4-17.1,13.9-20.7c6.8-2.5,14-4,21-6.5c3.7-1.5,7-3.5,10.1-5.9
		c4.9-3.7,5.9-8.9,3.2-14.5c-0.8-1.6-1.6-3.2-2.5-4.8c-1.1-2-2.3-3.8-3.6-5.7c-2.3-3-3.1-6.9-2.3-10.5c0.1-0.2,0.2-0.6,0.2-0.8
		c0.1-0.3,0.2-0.7,0.4-1.1c0.8-2.2,1.4-4.5,2-6.8c-3.2,2.4-5.5,5.1-6.9,8c-0.2,0.2-0.3,0.6-0.4,0.8c-2,4.7-1.6,10.1,0.7,16.1
		c0,0.1,0,0.1,0,0.1c2.4,6.2,1.7,9.7-2.8,13.7c-3.6,3.2-5.8,3.2-12.1-0.2c-0.5-0.2-1.1-0.4-1.6-0.6c0.1,1.5,0.2,2.8,0.3,4.1
		c-3.6,0.5-7.5,0.5-11.1,1.5c-7.2,2.2-21,17.3-21,27c0,15.9,3.9,6.7,5.9,31.8c1.2,14.5-7,33.7-14.2,47.5c-5.2,10-9.9,17.2-10.4,18.1
		c0.2-0.5,3.3-8.4,6.8-18.2c4.2-11.9,8.8-26.8,9.5-35.5c1.3-16.3-4.5-36.4-4.5-36.4c-1.4,5.2-6.6,26.9-7.7,31c0,0-2.2-20.7-2.4-23.2
		c-0.7-6,3.7-12.1,7.9-16.2c7.7-7.7,7.8-15.1,0.1-22.9c-2.8-2.8-5.8-5.3-8.7-8c-5.6-5-6.7-8.8-3.6-13.5c0.8-1.2,1.9-2.5,3.2-3.9
		c0.7-0.7,1.1-1.4,2-2.3c-3.3,0.6-6.9,2.9-10.2,6.2c-7,7.2-12.6,18.9-10.9,26.6l4.1-8.4c2.3,4,4.4,8.4,7.1,12.3
		c3.1,4.5,3.5,5.2-0.6,8.7c-2.8,2.4-12.4,17.5-3.6,25.7c15,13.8,0.6,34.5-0.9,35.5c0,0,7.6-11.2,0.9-25.8c-6.8-14.6-19-19.4-19-19.4
		s3.1,2,7.2,10.7c7.8,16.7-8.5,32.4-9.3,31c0,0,4.4-15.3-0.4-26c0,5.4-8.5,12.3-17,17.8c-8.4,5.5-12.7,19.7-12.7,19.7
		s0.6-14.6,5.9-21.7c8.8-12,19.2-31.6,12.3-51.1c-2.9-8.2-5.1-29.9-6.6-30.7c0.3,2.7,1.9,48.1-10.9,66.1
		c-0.7,1.2-19.3,18.5-20.4,19.3c-0.8-7.2,5.9-24.1,13.2-37.4c-2.2,2.1-15.8,8.5-26,36.4c1.1-6.2,4.9-22.7,5.9-29
		c3.1-20.1,3.1-40.2,1.2-60.3c-0.2-2.9-0.6-5.9-0.9-8.9c-0.2-2.4-0.6-4.9-1-7.3c0-0.2,0-0.6-0.1-0.8c-1.9-11.9-4.9-23.6-9.1-34.9
		c-2.8-7.4-6.9-14.2-10.5-21.1c-7.7-14.4-12.4-30.3-13.8-46.6c0-0.2-0.1-0.6-0.1-0.8c-1.8-9.3,1.2-11.8,10.4-10.5
		c16.4,2.4,31.4,8.3,45.9,16.2c12.4,6.5,23.8,14.7,33.8,24.5c2.3,2.4,2.4,3.9-0.2,5.9c-7.6,6.2-11.3,14.9-14.6,23.8
		c-0.2,0.5-0.3,1-0.4,1.5c0,0.5,0.1,1,0.2,1.5c0.6-0.4,1.1-0.6,1.3-0.9c7.5-13.5,18.4-24.2,29.2-34.8c9.3-9.1,20-16.2,31.3-22.6
		c17-9.6,35.5-16.3,54.6-20c1.6-0.2,3.2-0.5,4.8-0.8c3.3-1.1,6.6-2.4,10.1-3.6c-4.8-12.7-0.3-24.5,0.7-36.2l10.6-2.3
		c0-0.4-0.1-0.9-0.1-1.4c-0.9-0.2-1.8-0.4-2.8-0.4c-19.7,1.2-38.9-1.5-57.8-6.4c-1.2-0.3-2.3-1-3-1.9c-6.8-9.7-12.3-19.9-13.1-32.1
		v-1.1c7.4,0,14.6-0.1,21.7,0c15.5,0.3,30.8,0.3,45.8-4c5.3-1.5,10.8-2.6,16.3-3.5c10.9-1.8,28.8,9.9,31.2,21.9
		c2.7,13.1,6.6,26,10.1,39c3.8,14,7.3,27.9,11.3,41.5c2.3,7.6-0.2,13.9-4.3,19.7c-9.4,13.6-19.3,26.8-28.7,40.4
		c-6.8,9.9-14.2,19.7-19.6,30.4c-3,6.2-4.9,12.8-5.5,19.6c-0.1,0.2-0.1,0.6-0.1,0.8c-0.1,0.9-0.2,1.9-0.2,2.8
		c-0.2,4.5-0.5,8.9-0.6,13.4c-0.7,19.1-1,38.2-1.3,57.3c-0.1,6.1,8.9,57.9,12.2,79.4c0.6,4.3,1.1,7.4,1.1,8.6
		C578.4,450.4,577.8,446.9,576.6,441.5z"/>
</g>
</svg>
