<?xml version="1.0" encoding="UTF-8"?>
<svg id="Layer_1" data-name="Layer 1" xmlns="http://www.w3.org/2000/svg" viewBox="0 0 935.8 521.2">
  <path d="M447.8,260.4c-7.2,5.7-14.5,20-13.5,26.5l6.2-6.6,.8,.7c-1.3,2.3-2.8,4.7-4,7.1-.2,.2-.2,.6-.4,.8v.1c-2.6,5.4-2.9,10.7-1.9,16.1,.5,2.8,1.5,5.5,2.8,8.2,.3,.6,.5,1,.9,1.4,1.4,1.2,3.5,1.1,4.7-.2,2.1-2,3.9-4.1,5.4-6.5,.8-1,1.3-1.9,1.9-2.9,2.9-5.2,4.5-10.6,4.8-16.2v-.8c.2-4.8-.4-9.6-1.7-14.6-1.1-4.8-2.3-9.5-6-13.1Z"/>
  <path d="M530.3,249.2c-1.8,4.6-3.7,9.3-2,14.4,2.9-4.3,5.5-8.5,8.4-13l5.4,13.9c2.1-10.9,4-20.5,5.8-30.4-7.1,0-13.5,5.3-17.6,15.1Z"/>
  <path d="M504.1,254.5c-3.2,3.4-6.2,7.1-9.2,10.7-2.9,3.6-4.3,8.2-4.1,12.8,0,3.4,.2,6.7,.7,10,.1,.2,.1,.6,.2,.8,.8,5.4,2.2,10.8,4,16.2,.4,1.3,.9,2.7,1.4,4,.4-.2,.8-.4,1.2-.6,1-1,2-2.2,3-3.3,3.9-4.9,6.9-10.4,8.8-16.2,0-.2,.1-.6,.2-.8,3.2-10.6,2.7-22.2-1.6-33-1.3-3-3.1-2.2-4.6-.6Z"/>
  <path d="M400.1,373c-.8,4.7-2,6.7-2,6.7,0,0,9.5-6.8,10.1-17.5,0,0-7.3,6-8.1,10.8Z"/>
  <path d="M436.8,335.1c5.9,5.7,5,11.6,1.9,17.7,6.1-3.5,9.3-8.8,7.7-12.8-1.5-3.6-4.6-5.1-9.6-4.9Z"/>
  <path d="M412,262.4c-11.5,6.2-18.2,15-19.9,25.7,0,.2-.1,.6-.1,.8-.6,5-.2,10.4,1.4,16.2,.1,.5,.2,1,.4,1.5,2.1,6.6,4.3,13.2,6.2,19.8,2,7,.2,12.9-4.6,18.1-1.8,1.8-3.5,3.7-5.9,6.1,7.1-2.2,16.4-11.3,18.3-17.2,2.6-8.2,2-16.4,.2-24.5-.2-1.3-.5-2.6-.7-3.9-1-5.5-1.3-10.9-.8-16.2,0-.2,.1-.5,0-.7,.9-7.3,3.5-14.5,8.6-21.1,2-2.4,3.8-4.9,5.6-7.3l-.8-1c-2.6,1.3-5.3,2.3-7.9,3.7Z"/>
  <path d="M538.5,346.2c-10.8,8.1-11.7,26.2-2,36.2,1.8-8.1,2.5-16.4,5.4-23.8,2.9-7.3,7.9-13.9,12.3-21.2-1.3,.3-2.5,.8-3.6,1.3-4.2,2.3-8.2,4.8-12.1,7.5Z"/>
  <path d="M350.6,450.5c.1-.2,.2-.4,.2-.6-.1,.3-.1,.4-.2,.6Z"/>
  <path d="M599.81,486.11c-.83-2.36-6.85-17.9-9.31-34.51,0-.3-.1-.7-.2-1h.1c-.1-.3-.2-1.2-.4-2.5l-10.8-66c0-.2-2-17.3-2-47.1s3.1-47.1,3.1-47.2l.1-.7c.5-3.5,.9-7,1.5-10.8v-.2l.1-.2c.4-.7,40.2-66.3,58.1-85.3l-20.1-82.6,1-.2c1.9-.5,45.5-11.5,50.5-11.5h.2c1,.1,2.7,.1,4.8,.1,7.1,0,17.9,0,21.5,2,0,0,.2,.1,.9,.1,5.5,0,24.6-5,56.9-14.9q3.3-1,3.5-1h1v.6s0,0,0,0c-.2,8.1-.3,16.2-.5,24.3-.1,6-.4,18.3-.6,24.3-.1,11.8-.9,24.8-1.6,36.5-.1,2-.1,4.1-.1,6.1-.1,2-.1,4.1,1.6,6.1,.7,.9,2.2,.9,2.9,0,1.7-2,1.7-4.1,1.6-6.1,0-2,0-4.1-.1-6.1-.4-8.1-1.2-16.2-1.3-24.3-.35-11.48-.66-23.42-.92-35.3,.7-5.23,2.81-17.78,7.37-22.35,1.12-1.12,2.08-1.54,2.88-1.25,1.88,.7,2.81,5.12,3.15,7.8l-.68,11.99c-.3,4.8-.7,9.7-1,14.6v2.4c0,.8,0,1.6,1,2.4,.8,.7,2,.7,2.8,0,1-.8,1-1.6,1-2.4,0-2.4-.2-4.9-.4-7.3-.43-5.74-1.15-18.09-1.6-25.85v-2.45c.28-2.13,1.16-7.66,3.05-9.54,.43-.43,.86-.61,1.31-.52,1.32,.24,2.6,2.52,2.98,3.37l.34,.75c-.17,5.41-.4,10.83-.88,16.24l-.4,3.3c-.1,1.6-.9,4.5,1.4,4.9,1,.2,2-.5,2.1-1.5,.1-.9-.1-2.3-.2-3.3l-.4-3.3c-.53-5.92-.75-11.84-.93-17.77,0-.03,.02-.05,.02-.08l.25-2.36c.08-.35,.19-.74,.33-1.13,.84-2.52,2.37-5.81,3.94-8.12,7.09-6,14.79-11.73,22.38-15.96-.01,10.85-.3,22.81-.6,33.72-.4,11.1-.6,23.3-1.3,34.3-.5,7.7-1.4,15.3-1.6,22.9,.1,5.3,7.7,5.2,7.7,0-.2-7.7-1.1-15.3-1.6-22.9-1.2-22.7-1.8-46-2-68.6,0-.1-.1-.3-.3-.2-.2,0-.3,.1-.3,.2,0,.12,0,.24,0,.36-7.1,.9-17.61,2.24-30.8,2.24-7.1,0-14.3-.4-21.3-1.2-7.6-.8-14.2-2.8-20.5-4.6-8.6-2.6-17.6-5.2-29.8-5.2-2.4,0-4.9,.1-7.4,.3-8.5,.7-24.8,6.2-33.6,9.2-4,1.4-6,2-6.7,2.1-1.8,.2-7.6,.4-17.8,.4-26.1,0-71.7-.8-72.2-.8h-.5l-.3-.5c-4.7-7.7-18-28-23.6-29.3-.3-.1-.8-.1-1.2-.1-7.5,0-23.2,11.5-23.3,11.6l-.7,.5-.6-.5c-.2-.1-15.8-14.1-31.5-14.1-14,0-23.9,10.9-29.3,32.5l-.4,1.5-1.2-1c-.1-.1-11.4-9.1-21.1-9.8h-.7c-9.8,0-24.9,11.8-30.8,28.7l-.4,1.2-1.1-.7c-.1-.1-8.4-5.7-18.3-5.7-12.9,0-22.3,9.2-27.9,27.2l-.2,.5-.5,.2c-1.6,.5-159.4,45.3-233,88.6,.9-.2,1.8-.3,2.9-.5,99.4-16.7,164.8-25.1,194.3-25.1,7,0,11.9,.5,14.8,1.5l.9,.3-.2,.9c-.1,.3-7.2,28.6,12.5,64.1,20,36,29.5,82.3,27.2,106.3-5.2,54-20.7,102.7-25,115.7-.1,.2-.1,.4-.2,.6-.1,.2-.1,.4-.2,.5-.2,.5-.3,1-.5,1.4-.1,.2-.1,.4-.2,.6-5.21,14.95-11.72,32.6-14.42,35.53-104.55,1.08-209.08,3.44-313.58,7.07,296.7,10.3,593.7,10.4,890.4,0-104.4-3.66-208.84-6.01-313.29-7.09ZM700.5,49.1c6.5,0,11.8,1.9,35.2,7.1,21.75,4.98,40.19,2.16,42.39,1.83,.03,0,.06,.01,.09,0-5.84,1.69-17.42,10.98-22.98,14.56-5.7,3.6-12.7,6.6-16.8,7.9-4.2,1.3-31.9,11.5-42.9,10.2-3.25-.42-14.74-2.36-22.83-2.07-.27-.46-.61-.88-1.05-1.23-3.48-2.8-6.3-16.53-6.93-27.65,0-.12-.04-.23-.05-.34,9.25-2.5,29.63-10.3,35.86-10.3Zm-44.78,11.38c.25,4.24,1.55,20.88,6.93,29.9-2.45,.57-5.39,1.28-8.59,2.05-.11-.11-.2-.24-.33-.34-4.24-3.64-6.99-20.18-7.68-31.36,3.64-.04,6.92-.12,9.67-.24Zm-84.42-.48h.1v-.1c4.89-.47,39.93,.77,65.63,.85,.3,5.26,1.76,24.05,7.52,33.98-13.56,3.3-27.56,6.77-27.56,6.77-1.3-6.2-7-17.3-13.7-23.2-17.2-15.4-33.6-10.8-33.6-10.8l1.6-7.5Zm-48.6-17.6c4.7-3.6,9.6-6,15.7-6.2h1.3c.5,0,.9,0,1.4,.1,8.8,.7,16.9,9.8,15.4,18.9-1.1,6.6-2.3,13.1-3.7,19.6-.3,1.2-1.2,2.2-2.4,2.6-8.7,1.7-17.6,2.5-26.4,2.5-5.3,0-10.6-.3-16-.9,3.2-10.5,6.2-20.7,9.7-30.6,.7-2.4,3-4.5,5-6Zm-58.3,28.8c.6-2.3,.9-4.6,1.3-6.9,.2-1.2,.3-2.3,.5-3.5s.3-2.3,.5-3.5c2.2-14.7,13.3-20.4,25.4-24.8,0,0,.1,0,.2-.1,.6-.2,1.2-.3,2-.3,5,.1,12.8,5.2,14.2,9.4,.1,.4,.2,.8,.1,1.2v.3c-2,11.7-4.1,23.4-6.2,35.2-.1,.2-.2,.5-.4,.7-3.2-.2-6.1-.7-9.1-.7-2.7,0-4.3,.4-5.3,1.4s-1.3,2.7-1.3,5.4,.3,5.1,.7,7.6c.2,1.2,.5,2.5,.8,3.6,.2,.6,.3,1.2,.5,1.8,1.7,5.3,4.2,10.4,6.8,15.5,.8,1.2,1.2,2.7,1.3,4.1-.7,9.8-1.5,19.5-2.5,29.2-.2,2.2-.7,4-1.5,5.4-.4,.7-.8,1.3-1.3,1.8,0,0,0,.1-.1,.1-1.6,1.6-3.9,2.5-6.8,2.6h-.1c-.8,0-1.7,0-2.7-.1-.6-.1-1.2-.1-1.8-.1h-1.8c-.9,.1-1.8,.1-2.6,.1-9.8,0-12.8-5.8-13.8-15-1.1-10-1.6-20-1.7-30-.4-13.4,1.3-27.1,4.7-40.4Zm-55.2,83.3c.4-18.7,.6-37.4,1.4-56.1,.4-9,1.9-18,3.1-26.9,.1-1.3,.7-2.5,1.7-3.4,6.6-4,13.2-8.1,20.1-11.7,4.8-2.6,9.5-.8,12.8,2.8,3.7,4,6.8,8.5,9.4,13.3,.7,1.7,1,3.5,1,5.2,0,1.1-.1,2.1-.3,3.2-.5,2.9-1.1,5.7-1.6,8.6-2.2,12-4.5,24-6.9,36-1.8,9.4-3.6,18.8-5.5,28.2-.6,3.3-1.5,6.6-2.1,10-1.6,9-3.7,9-10.7,10.5-3.9,.7-7.8,1.1-11.7,1-5.9,0-9.6-3.2-10.4-9.1-.5-3.9-.7-7.7-1-11.5l.7-.1Zm-39.6-.3c.1-13.1,.5-26.2,.9-39.4,.2-4.4,.3-8.8,.4-13.1,.1-4,.5-8.1,.8-12.2,.2-2.5,.9-4.6,2.1-6.3,1.7-2.4,4.4-3.9,8-4.2,7.2-.6,14.3,.2,20.7,4.3,1.6,1.1,2.8,3,3,4.9,.3,6.8,.2,13.6,.2,20.4l.3,.1c-.7,12.2-1.2,24.5-2.1,36.6-.5,7.1-4.2,12.8-9,17.7l-1,1c-.9,1-2.2,1.6-3.5,1.7-5.1-.4-10.1-1-15.2-1.9-5.4-.8-5.7-5.7-5.6-9.6Zm-210.3,18.8c52-25.2,201.5-69.4,201.5-69.4,0,0-1.5,29.2-.8,46-122.8,3.7-199.5,23.1-200.7,23.4Zm228.8,255.1c-4.4,8.6-9.7,15-13.7,19.5,2.1-6.1,3.2-13.2,3.8-19.4,.5-4.7,.6-8.9,.8-11.8,.4-8.7,17.6-18.2,17.6-18.2-1.1,12.1-4.5,22-8.5,29.9Zm35.4,9.3c-.8,7.9-8.7,13.1-8.7,13.1,1.8-4.1-.4-13.8,.3-22.3,.3-2.9,.8-5.6,2.1-7.9,4.8-9.1,6.3-10.3,6.3-10.3-2.5,6.8-1.5,12.8-.7,18.3,.5,3.2,1,6.2,.7,9.1Zm33.4,4c-8,9.2-15.5-.5-15.1-12.7,.1-4.1,1.1-8.6,3.3-12.7,0,0,.3,6.3,2.2,9.9,2,3.6,4-15.9,4-15.9,0,0,8,9.3,9.1,19.1,.6,4.2-.2,8.6-3.5,12.3Zm86.2-6.5c-.7-1-1.1-1.9-1.2-2.9-.8-7.9-.2-11.3-4.2-22,0,0,5.4,11.1,10.1,20.2,1.1,2.2,2.7,4.1,4.4,5.9,5.6,5.8,13,10,14.8,14.3-.5-.2-19-8.2-23.9-15.5Zm33.5,6.6c-3.6-15.7-12.9-47.6-31.2-56.8-5.3-2.7,9.4,35.5,7.4,32.7-6.2-8.9-13.4-12.7-19.3-17.5-7.1-5.8-17.4-36.7-17.8-37.7,.2,1,5.6,34,9.4,41,1.3,2.4,8.1,26,6.8,30.2-.7,2.3-4.4-23-14.7-19.8-5.4,1.7-10.6,10-14.2,17.6-3.3,6.7-5.3,12.8-5.3,12.8-.2-1.7,1.1-6.6,2.7-13,3.3-12.7,8.4-31.2,6.9-40.7-2.2-14.2-4.2-28.3-4.4-32.9-.5-10.5,4-17.1,13.9-20.7,6.8-2.5,14-4,21-6.5,3.7-1.5,7-3.5,10.1-5.9,4.9-3.7,5.9-8.9,3.2-14.5-.8-1.6-1.6-3.2-2.5-4.8-1.1-2-2.3-3.8-3.6-5.7-2.3-3-3.1-6.9-2.3-10.5,.1-.2,.2-.6,.2-.8,.1-.3,.2-.7,.4-1.1,.8-2.2,1.4-4.5,2-6.8-3.2,2.4-5.5,5.1-6.9,8-.2,.2-.3,.6-.4,.8-2,4.7-1.6,10.1,.7,16.1v.1c2.4,6.2,1.7,9.7-2.8,13.7-3.6,3.2-5.8,3.2-12.1-.2-.5-.2-1.1-.4-1.6-.6,.1,1.5,.2,2.8,.3,4.1-3.6,.5-7.5,.5-11.1,1.5-7.2,2.2-21,17.3-21,27,0,15.9,3.9,6.7,5.9,31.8,1.2,14.5-7,33.7-14.2,47.5-5.2,10-9.9,17.2-10.4,18.1,.2-.5,3.3-8.4,6.8-18.2,4.2-11.9,8.8-26.8,9.5-35.5,1.3-16.3-4.5-36.4-4.5-36.4-1.4,5.2-6.6,26.9-7.7,31,0,0-2.2-20.7-2.4-23.2-.7-6,3.7-12.1,7.9-16.2,7.7-7.7,7.8-15.1,.1-22.9-2.8-2.8-5.8-5.3-8.7-8-5.6-5-6.7-8.8-3.6-13.5,.8-1.2,1.9-2.5,3.2-3.9,.7-.7,1.1-1.4,2-2.3-3.3,.6-6.9,2.9-10.2,6.2-7,7.2-12.6,18.9-10.9,26.6l4.1-8.4c2.3,4,4.4,8.4,7.1,12.3,3.1,4.5,3.5,5.2-.6,8.7-2.8,2.4-12.4,17.5-3.6,25.7,15,13.8,.6,34.5-.9,35.5,0,0,7.6-11.2,.9-25.8-6.8-14.6-19-19.4-19-19.4,0,0,3.1,2,7.2,10.7,7.8,16.7-8.5,32.4-9.3,31,0,0,4.4-15.3-.4-26,0,5.4-8.5,12.3-17,17.8-8.4,5.5-12.7,19.7-12.7,19.7,0,0,.6-14.6,5.9-21.7,8.8-12,19.2-31.6,12.3-51.1-2.9-8.2-5.1-29.9-6.6-30.7,.3,2.7,1.9,48.1-10.9,66.1-.7,1.2-19.3,18.5-20.4,19.3-.8-7.2,5.9-24.1,13.2-37.4-2.2,2.1-15.8,8.5-26,36.4,1.1-6.2,4.9-22.7,5.9-29,3.1-20.1,3.1-40.2,1.2-60.3-.2-2.9-.6-5.9-.9-8.9-.2-2.4-.6-4.9-1-7.3,0-.2,0-.6-.1-.8-1.9-11.9-4.9-23.6-9.1-34.9-2.8-7.4-6.9-14.2-10.5-21.1-7.7-14.4-12.4-30.3-13.8-46.6,0-.2-.1-.6-.1-.8-1.8-9.3,1.2-11.8,10.4-10.5,16.4,2.4,31.4,8.3,45.9,16.2,12.4,6.5,23.8,14.7,33.8,24.5,2.3,2.4,2.4,3.9-.2,5.9-7.6,6.2-11.3,14.9-14.6,23.8-.2,.5-.3,1-.4,1.5,0,.5,.1,1,.2,1.5,.6-.4,1.1-.6,1.3-.9,7.5-13.5,18.4-24.2,29.2-34.8,9.3-9.1,20-16.2,31.3-22.6,17-9.6,35.5-16.3,54.6-20,1.6-.2,3.2-.5,4.8-.8,3.3-1.1,6.6-2.4,10.1-3.6-4.8-12.7-.3-24.5,.7-36.2l10.6-2.3c0-.4-.1-.9-.1-1.4-.9-.2-1.8-.4-2.8-.4-19.7,1.2-38.9-1.5-57.8-6.4-1.2-.3-2.3-1-3-1.9-6.8-9.7-12.3-19.9-13.1-32.1v-1.1c7.4,0,14.6-.1,21.7,0,15.5,.3,30.8,.3,45.8-4,5.3-1.5,10.8-2.6,16.3-3.5,10.9-1.8,28.8,9.9,31.2,21.9,2.7,13.1,6.6,26,10.1,39,3.8,14,7.3,27.9,11.3,41.5,2.3,7.6-.2,13.9-4.3,19.7-9.4,13.6-19.3,26.8-28.7,40.4-6.8,9.9-14.2,19.7-19.6,30.4-3,6.2-4.9,12.8-5.5,19.6-.1,.2-.1,.6-.1,.8-.1,.9-.2,1.9-.2,2.8-.2,4.5-.5,8.9-.6,13.4-.7,19.1-1,38.2-1.3,57.3-.1,6.1,8.9,57.9,12.2,79.4,.6,4.3,1.1,7.4,1.1,8.6,0,0-.6-3.5-1.8-8.9Z"/>
</svg>
