<?xml version="1.0" encoding="UTF-8"?>
<svg id="Layer_1" data-name="Layer 1" xmlns="http://www.w3.org/2000/svg" viewBox="0 0 640 799.99">
  <defs>
    <style>
      .cls-1 {
        fill: gray;
        opacity: .2;
      }
    </style>
  </defs>
  <path class="cls-1" d="M0,516.66c.9-.54,1.92-.94,2.67-1.64,8.91-8.26,18.38-15.75,29.29-21.22,4.15-2.08,8.48-3.82,13.12-5.89v-42.28c1.49-.07,2.66-.16,3.82-.17,8.88-.01,17.76-.08,26.64,0,15.17,.15,27.54-5.97,37.69-16.88,6.49-6.97,10.76-15.11,12.37-24.62,.77-4.54-.01-8.85-1.27-13.12-5.4-18.27-24.22-35.94-47.78-36.08-9.1-.05-18.21-.02-27.31-.02-1.2,0-2.4,0-3.95,0v-42.3c-.73-.38-1.1-.64-1.51-.78-15.73-5.46-28.87-14.96-40.91-26.17-.88-.82-1.91-1.46-2.87-2.19,0-9.78,0-19.56,0-29.33,1.64-.16,1.88,1.35,2.53,2.24,6.52,8.97,14.21,16.76,23.27,23.17,11.13,7.88,23.36,13.15,36.86,15.34,.43,.07,.84,.23,1.73,.48,.13,13.73-.04,27.54,.09,41.41,1.15,0,1.91,.08,2.66-.01,15.4-1.94,29.53,1.99,42.78,9.51,12.43,7.06,22.85,16.47,28.88,29.58,9.94,21.65,7.51,42.24-7.71,60.74-12.73,15.47-29.33,24.59-49.2,27.25-5.54,.74-11.27,.11-17.42,.11-.08,13.55,.02,27.38-.06,41.32-2.94,.64-5.67,1.13-8.34,1.82-22.34,5.74-39.77,18.59-53.38,36.96-.75,1.02-1.79,1.83-2.69,2.74,0-10,0-20,0-30Z"/>
  <path class="cls-1" d="M195.33,0c-.48,4.33,.67,8.42,2.3,12.29,7.67,18.27,21.2,29.43,40.84,32.84,2.38,.41,4.87,.32,7.31,.33,8.66,.04,17.32,.01,25.98,.01,1.21,0,2.41,0,4.07,0,.17,3.73,.08,7.24,.1,10.74,.02,3.55,.02,7.11,.03,10.66,0,3.44,0,6.88,0,10.33,0,3.55,0,7.1,0,10.99,17.12,5.78,31.33,16.21,44.49,28.89,13.01-12.4,27.1-23.01,44.7-28.89V45.44c1.65,0,2.85,0,4.04,0,8.66,0,17.32-.1,25.98,.02,15.57,.21,28.2-6.05,38.48-17.37,7.21-7.95,11.68-17.21,12.34-28.09,6.22,0,12.44,0,18.67,0-.34,3.53-.44,7.1-1.05,10.57-2.2,12.49-8.63,22.74-17.56,31.46-10.98,10.73-24.01,17.76-39.09,20.91-6.53,1.36-13.15,1.56-22.07,.55-.93,2.64-.31,5.4-.42,8.09-.12,2.77-.03,5.55-.03,8.33v25.26c-27.38,4.55-48.1,19.23-63.95,41.72-15.84-22.46-36.46-37.09-63.91-41.68V63.73c-4.45,.15-8.56,.54-12.63,.37-15.84-.69-29.75-6.6-42.23-16.12-6.77-5.17-12.5-11.33-17-18.58-5.59-8.99-8.54-18.73-8.06-29.4h18.67Z"/>
  <path class="cls-1" d="M446,799.99c-1.33-15.05-8.94-26.48-20.7-35.38-8.68-6.57-18.56-9.84-29.47-9.84-8.89,0-17.77,0-26.66,0-1.2,0-2.39,0-3.87,0v-42.51c-17.42-5.85-31.7-16.38-44.79-28.99-13.08,12.57-27.25,23.08-44.6,28.92v42.39c-1.39,.07-2.56,.18-3.73,.18-9.33,.02-18.66-.1-27.99,.05-21.71,.35-42.02,16.09-47.74,37-.72,2.63-.76,5.44-1.12,8.17h-18.67c-.5-16.94,6.85-30.47,18.58-41.93,11.42-11.14,25.05-18.23,40.82-21,5.38-.94,10.79-1.4,16.24-.59,1.29,.19,2.61,.23,4.34,.38,0-7.13,0-13.99,0-20.84s0-13.74,0-20.9c13.17-2.07,25.17-6.72,36.12-14.01,10.95-7.29,19.98-16.52,27.68-27.67,15.81,22.3,36.33,37.07,63.9,41.69,.27,13.8-.07,27.61,.19,41.53,1.05,0,1.81,.07,2.54-.01,19.79-2.25,36.98,4.18,52.43,15.98,9.89,7.55,17.48,16.99,21.87,28.79,2.04,5.47,2.97,11.13,3.02,16.95,0,.54,.18,1.08,.27,1.63h-18.67Z"/>
  <path class="cls-1" d="M640,284c-2.49,2.17-4.97,4.36-7.48,6.51-10.53,9.05-22,16.54-35.2,21.14-.41,.14-.79,.37-1.4,.66v42.24c-1.38,.07-2.55,.18-3.72,.18-9.33,.02-18.67-.11-28,.05-21.11,.36-40.97,15.31-47.4,35.38-2.37,7.4-2.27,14.72,.68,21.83,7.64,18.44,21.21,29.71,41.01,33.14,2.39,.41,4.87,.31,7.31,.32,8.67,.03,17.33,.01,26,.01h3.94v42.66c17.28,5.85,31.43,16.17,44.23,28.54v29.33c-2.7-3.34-5.27-6.8-8.13-10-13.48-15.08-29.85-25.36-49.76-29.68-1.72-.37-3.46-.7-5.52-1.11v-41.47c-4.46,.14-8.56,.54-12.64,.36-15.84-.69-29.77-6.58-42.23-16.14-9.05-6.94-16.65-15.29-20.81-25.97-8.14-20.93-5.61-40.64,8.95-58.06,13.81-16.51,31.63-25.84,53.17-27.72,2.96-.26,5.98,.09,8.97,.22,1.42,.06,2.83,.26,4.59,.42v-41.68c1.45-.3,2.62-.53,3.79-.77,25.34-5.21,44.77-19.13,59.35-40.22,.06-.08,.18-.13,.27-.19v30Z"/>
  <path class="cls-1" d="M0,116.67c.9-.54,1.92-.94,2.67-1.64,8.91-8.27,18.38-15.75,29.29-21.22,4.15-2.08,8.48-3.82,13.12-5.88V45.64c1.49-.06,2.66-.16,3.83-.16,8.88-.01,17.77-.07,26.65,0,15.3,.14,27.75-6.06,37.91-17.14,7.33-8,11.88-17.34,12.54-28.34,6.22,0,12.44,0,18.67,0-.34,3.52-.43,7.09-1.05,10.57-2.36,13.2-9.31,23.86-18.97,32.83-11.95,11.09-25.97,18.16-42.2,20.24-5.12,.65-10.39,.11-15.59,.09-.64,0-1.28-.14-2.27-.26v41.44c-1.08,.34-1.87,.7-2.7,.85-24.97,4.6-44.21,18.08-59.19,38.17-.76,1.02-1.79,1.83-2.69,2.74,0-10,0-20,0-30Z"/>
  <path class="cls-1" d="M126,799.99c-1.33-15.04-8.93-26.47-20.67-35.36-8.67-6.56-18.54-9.85-29.45-9.86-8.88,0-17.76,0-26.64,0-1.2,0-2.39,0-3.95,0v-42.3c-.73-.38-1.1-.64-1.51-.78-15.61-5.42-28.68-14.83-40.66-25.94-.96-.89-2.07-1.62-3.11-2.42,0-9.78,0-19.56,0-29.33,1.64-.16,1.88,1.35,2.53,2.24,7.27,9.97,15.94,18.46,26.29,25.22,10.35,6.76,21.58,11.31,33.81,13.29,.43,.07,.85,.22,1.7,.46,.32,13.73-.09,27.54,.22,41.45,1.05,0,1.81,.08,2.55-.01,14.91-1.93,28.65,1.79,41.62,8.82,10.5,5.69,19.31,13.38,26.09,23.29,6.05,8.83,9.49,18.51,9.58,29.29,0,.65,.18,1.31,.28,1.96h-18.67Z"/>
  <path class="cls-1" d="M515.33,0c-.46,4.45,.75,8.63,2.44,12.61,7.73,18.12,21.23,29.15,40.76,32.51,2.39,.41,4.87,.3,7.31,.31,8.67,.03,17.33,.01,26,.01,1.2,0,2.4,0,3.93,0v42.65c17.27,5.88,31.44,16.16,44.22,28.57v29.33c-2.7-3.34-5.25-6.82-8.12-10.01-14.15-15.77-31.32-26.35-52.37-30.17-.86-.16-1.71-.42-2.9-.72V63.69c-4.34,.16-8.33,.56-12.3,.4-15.96-.62-29.99-6.53-42.57-16.13-6.77-5.17-12.5-11.33-17.01-18.57-5.59-8.99-8.55-18.73-8.07-29.4h18.67Z"/>
  <path class="cls-1" d="M640,683.99c-3.68,3.17-7.28,6.42-11.05,9.49-9.52,7.76-19.88,14.1-31.54,18.16-.42,.14-.81,.36-1.51,.68v42.45c-1.49,0-2.67,0-3.85,0-9.32,0-18.64-.11-27.95,.05-21.65,.37-41.94,16.13-47.65,37.01-.72,2.63-.76,5.44-1.11,8.16h-18.67c-.49-16.94,6.85-30.48,18.59-41.94,11.51-11.24,25.27-18.32,41.16-21.06,5.26-.91,10.58-1.33,15.92-.52,1.29,.2,2.6,.22,4.26,.36v-41.65c27.24-4.65,47.9-18.99,63.4-41.19v30Z"/>
  <path class="cls-1" d="M256.54,505.21v-41.48c-4.38,.14-8.48,.54-12.55,.37-15.84-.68-29.78-6.55-42.24-16.12-9.14-7.01-16.76-15.45-20.95-26.26-8.04-20.74-5.35-40.19,8.84-57.51,12.3-15.01,28.29-24.05,47.44-27.32,5.15-.88,10.37-1.22,15.6-.36,1.18,.19,2.38,.2,3.93,.32v-41.66c27.41-4.59,48.04-19.23,63.89-41.7,15.79,22.34,36.36,37.05,63.84,41.63v41.53c1.21,0,2.06,.1,2.88-.01,12.03-1.66,23.45,.68,34.45,5.4,14.23,6.1,25.83,15.46,34.36,28.5,11.88,18.15,12.1,45.73-4.27,65.31-13.1,15.66-29.69,25.22-49.94,27.92-5.54,.74-11.25,.11-17.23,.11v41.33c-27.45,4.57-48.2,19.21-64.07,41.75-15.82-22.43-36.42-37.1-63.96-41.71Zm108.69-59.75c1.72,0,2.93,0,4.13,0,8.66,0,17.33,.02,25.99-.01,2.33,0,4.7,.1,6.98-.29,20.22-3.46,33.92-14.99,41.45-33.93,2.95-7.42,2.62-14.92-.07-22.44-6.19-17.28-24.37-34.06-47.67-34.04-9,0-17.99,0-26.99,0-1.18,0-2.36,0-3.92,0v-42.61c-17.53-5.83-31.64-16.45-44.64-28.86-13.1,12.63-27.3,23.1-44.57,28.93,.07,14.27,.04,28.32-.03,42.58-1.38,0-2.26,0-3.14,0-9.33,0-18.66,0-27.99,0-23.65,.05-41.99,17.5-47.75,34.86-2.25,6.77-2.46,13.46-.28,20.26,6.59,20.57,27.15,35.81,47.49,35.58,9.33-.11,18.66-.02,27.99,0,1.17,0,2.35,.11,3.8,.18v42.62c17.45,5.79,31.5,16.45,44.53,28.81,13.19-12.7,27.41-23.12,44.69-28.95v-42.67Z"/>
  <path class="cls-1" d="M416.43,135.24v-40.16c26.87-5.12,47.82-19.21,64.06-41.1,16.14,21.75,37.04,35.93,64.04,41.06v40.36c1.49,0,2.66-.02,3.83,0,8.89,.2,17.8,.45,26.51,2.33,17.37,3.75,30.27,13.9,39.66,28.67,6.82,10.73,10.55,22.5,10.13,35.33-.48,14.73-5.82,27.71-15.05,39.07-9.58,11.8-21.68,19.75-36.84,22.14-7.54,1.19-15.25,1.29-22.89,1.83-1.63,.12-3.27,.02-5.21,.02v40.45c-26.96,5.09-47.9,19.21-64.17,41.09-16.22-21.83-37.14-35.97-64.13-41.1v-40.45c-2.02,0-3.66,.01-5.29,0-8.9-.08-17.81-.37-26.47-2.55-18.85-4.73-32.19-16.5-41.06-33.44-13.75-26.29-6.94-53.54,11.07-72.96,10.44-11.27,23.37-17.88,38.78-19.21,6.63-.57,13.29-.84,19.94-1.24,.88-.05,1.76-.09,3.09-.15Zm16.76-25.37v41.61c-2.44,0-4.53,.03-6.62,0-9.22-.15-18.45-.29-27.6,1.18-9.32,1.49-18.3,4.13-25.63,10.35-13.91,11.81-20.44,26.87-17.22,45.03,2.96,16.7,12.3,29.02,28.3,35.7,8.1,3.38,16.64,4.74,25.35,4.96,6.66,.16,13.33,.04,20,.06,1.07,0,2.15,.1,3.48,.16v41.57c17.73,5.5,32.86,15.28,47.29,26.29,14.55-11.22,29.69-20.8,47.34-26.35v-41.69c1.4,0,2.48,0,3.57,0,6.55,0,13.11,.06,19.66-.04,6.46-.1,12.82-1.09,19.08-2.72,27.17-7.06,39.39-34.26,34.46-55.34-3.45-14.73-11.51-26.09-25.34-32.84-7.37-3.6-15.28-5.45-23.44-5.81-8.09-.36-16.21-.34-24.31-.49-1.18-.02-2.35-.09-3.76-.15,0-1.46,0-2.55,0-3.65,0-10.89-.01-21.78,0-32.67q0-5.1-4.84-6.82c-14.37-5.15-27.12-13.16-39.25-22.26-1.05-.79-2.12-1.55-3.24-2.37-14.43,11.08-29.43,20.69-47.27,26.29Z"/>
  <path class="cls-1" d="M96.44,134.83v-39.73c26.9-5.15,47.76-19.18,64.03-41.09,16.17,21.75,37.11,35.99,64.15,41.08v40.36c1.74,0,3.15-.03,4.57,0,8.55,.23,17.13,.46,25.52,2.27,17.49,3.76,30.48,13.95,39.91,28.85,6.61,10.45,10.33,21.9,10.04,34.36-.39,16.97-6.96,31.49-18.46,43.79-11.12,11.88-24.92,18.29-41.18,19.31-5.76,.36-11.53,.57-17.3,.85-.87,.04-1.74,.11-2.95,.18v40.18c-26.92,5.11-47.92,19.13-64.25,41.13-16.17-21.75-37.04-35.95-64.04-41.06v-40.22c-1.54-.09-2.72-.2-3.89-.22-8.23-.08-16.45-.38-24.56-1.86-16.59-3.03-29.41-12.03-39.19-25.51-7.69-10.6-12.08-22.49-12.53-35.61-.42-12.07,2.91-23.3,9.05-33.64,8.87-14.94,21.36-25.45,38.36-29.94,9.18-2.43,18.67-2.57,28.11-2.88,1.22-.04,2.44-.07,3.66-.14,.19-.01,.38-.18,.95-.47Zm111.35,16.63c0-1.51,0-2.7,0-3.89,0-11.67,0-23.33,0-35,0-1.46,.11-2.71-1.84-3.34-15.85-5.1-29.75-13.76-42.9-23.76-.78-.6-1.62-1.12-2.63-1.82-14.43,11.1-29.63,20.76-47.24,26.29v41.02c-.43,.24-.62,.43-.81,.44-1.22,.06-2.44,.12-3.66,.11-9.88-.07-19.78-.42-29.6,1.14-9.32,1.48-18.32,4.09-25.66,10.28-14.05,11.85-20.63,27.01-17.32,45.3,3.02,16.68,12.42,28.98,28.43,35.6,7.89,3.26,16.21,4.64,24.7,4.86,6.77,.17,13.55,.05,20.33,.08,1.17,0,2.34,.09,3.77,.14v41.64c17.65,5.51,32.72,15.21,47.15,26.27,14.52-11.2,29.74-20.83,47.24-26.34,0-7.2-.02-14.08,0-20.96,.03-6.84-.07-13.68,.11-20.75,1.65,0,2.86,0,4.06,0,6.55-.01,13.11,.09,19.66-.07,7.7-.18,15.19-1.54,22.54-3.94,22.62-7.38,36.82-33.56,29.74-57.13-5.74-19.1-18.79-30.38-38.28-34.31-8.88-1.79-17.87-1.94-26.87-1.85-3.44,.03-6.88,0-10.94,0Z"/>
  <path class="cls-1" d="M96.45,535.45v-40.35c26.91-5.16,47.76-19.19,64.02-41.08,16.12,21.66,36.96,35.89,64.08,41.06,.03,4.3,.06,8.69,.07,13.09,.01,4.44,0,8.89,0,13.33v13.79c1.37,.06,2.65,.08,3.92,.17,7.53,.54,15.1,.76,22.57,1.72,15.25,1.96,27.56,9.53,37.41,21.11,10.35,12.17,16.27,26.23,16.11,42.34-.17,17.11-6.87,31.73-18.46,44.11-11.04,11.79-24.73,18.2-40.86,19.27-5.87,.39-11.75,.58-17.63,.87-.87,.04-1.74,.11-2.94,.18v40.2c-26.93,5.09-47.91,19.13-64.24,41.12-16.19-21.75-37.05-35.96-64.06-41.06v-40.23c-1.54-.09-2.72-.2-3.9-.21-8.23-.08-16.45-.4-24.56-1.86-15.47-2.8-27.74-10.92-37.37-23.13-8.7-11.03-13.71-23.6-14.3-37.68-.51-12.19,2.85-23.53,9.05-33.96,8.88-14.94,21.37-25.43,38.37-29.93,8.97-2.37,18.23-2.53,27.45-2.85,1.55-.05,3.09,0,5.26,0Zm16.74-25.53v41.6c-1.64,0-3.05,0-4.45,0-9.88-.08-19.78-.42-29.6,1.14-9.32,1.48-18.32,4.08-25.66,10.27-14.06,11.84-20.63,27.01-17.34,45.29,3.01,16.68,12.41,28.98,28.42,35.6,7.89,3.26,16.21,4.65,24.7,4.87,6.77,.17,13.55,.05,20.33,.08,1.17,0,2.34,.09,3.77,.14v41.63c17.65,5.51,32.72,15.21,47.16,26.27,14.52-11.18,29.73-20.83,47.25-26.33,0-7.19-.02-14.07,0-20.96,.03-6.84-.07-13.68,.12-20.77,1.63,0,2.84,0,4.04,0,6.55-.01,13.11,.05,19.66-.06,6.35-.11,12.59-1.12,18.74-2.73,26.97-7.07,39.32-34.16,34.3-55.44-3.47-14.71-11.57-26.07-25.44-32.76-7.49-3.62-15.51-5.44-23.79-5.79-7.87-.33-15.76-.32-23.65-.46-1.19-.02-2.38,0-3.96,0,0-1.56,0-2.75,0-3.94,0-11.67-.04-23.33,.03-35,.01-1.93-.35-3.1-2.5-3.55-1.93-.4-3.78-1.26-5.63-2-12.99-5.19-24.71-12.55-35.84-20.94-1.12-.84-2.26-1.66-3.4-2.49-14.53,11.19-29.55,20.74-47.26,26.31Z"/>
  <path class="cls-1" d="M416.33,705.25v-40.2c-1.47-.08-2.66-.18-3.84-.19-8.23-.08-16.45-.39-24.56-1.88-16.09-2.94-28.65-11.57-38.36-24.49-8.15-10.85-12.77-23.1-13.28-36.7-.4-10.65,2.26-20.72,7.18-30.12,8.22-15.71,20.38-27,37.45-32.58,5.95-1.95,12.14-2.62,18.35-3.04,5.53-.37,11.08-.55,17.08-.84,.02-4.41,.05-8.81,.06-13.21,.01-4.56,0-9.11,0-13.67v-13.1c31.58-8.53,42.63-15.64,64.11-41.17,16.08,21.63,36.94,35.85,63.94,40.98v40.21c1.59,.07,2.87,.09,4.15,.18,7.42,.52,14.88,.72,22.24,1.66,15.62,1.99,28.19,9.76,38.15,21.72,10.07,12.08,15.83,25.98,15.64,41.85-.21,17.1-6.9,31.72-18.51,44.09-11.05,11.78-24.75,18.17-40.87,19.23-5.87,.39-11.75,.58-17.63,.87-.87,.04-1.73,.13-2.91,.23v40.16c-26.93,5.1-47.92,19.15-64.2,41.12-16.21-21.82-37.11-35.97-64.18-41.12Zm111.52-56.42c6.46,0,12.34,0,18.22,0,8.13,0,16.17-.77,24.08-2.82,27.16-7.04,39.42-34.26,34.51-55.31-3.44-14.73-11.48-26.1-25.31-32.86-7.47-3.65-15.49-5.5-23.77-5.86-7.98-.35-15.98-.33-23.98-.47-1.17-.02-2.35,0-3.81,0,0-1.58,0-2.67,0-3.76,0-10.89-.02-21.78,0-32.67q0-5.12-4.81-6.84c-14.26-5.12-26.94-13.03-38.98-22.06-1.14-.85-2.29-1.7-3.51-2.6-14.5,11.16-29.61,20.78-47.28,26.33v41.55c-3.66,0-6.97,.03-10.28,0-9.23-.11-18.45-.03-27.53,1.86-7.9,1.65-15.52,4.2-21.78,9.47-14.17,11.93-20.81,27.16-17.44,45.57,3.05,16.67,12.49,28.94,28.53,35.51,7.8,3.2,16,4.57,24.37,4.8,6.77,.19,13.55,.06,20.33,.08,1.18,0,2.37,0,3.82,0v41.73c17.72,5.51,32.86,15.27,47.3,26.31,14.55-11.19,29.67-20.8,47.33-26.34v-41.62Z"/>
</svg>