<?xml version="1.0" encoding="UTF-8"?>
<svg id="Layer_2" data-name="Layer 2" xmlns="http://www.w3.org/2000/svg" viewBox="0 0 600.27 599.22">
  <defs>
    <style>
      .cls-1 {
        opacity: .2;
      }

      .cls-2 {
        fill: gray;
      }
    </style>
  </defs>
  <g class="cls-1">
    <path class="cls-2" d="M600.3,64.66c.04,.06,.07,.13,.11,.19v-13.06c-.04,.06-.08,.13-.12,.2-3.34-5.61-6.37-10.71-9.69-16.29-5.34,3.03-10.49,5.96-16.66,9.46V26.12h-19.28c3.31-6.02,6.16-11.19,9.31-16.92-5.21-3.14-10.29-6.2-16.19-9.75,.12-.07,.24-.14,.36-.21h-14.14c.15,.2,.33,.42,.55,.67-14.87,8.56-29.49,17.04-44.21,25.34-1.39,.79-3.4,.69-5.12,.69-19.9,.04-39.8-.05-59.71,.09-3.65,.03-6.07-.63-6.38-4.77-.09-1.34-.47-2.74-1.06-3.94-2.96-6.09-3.91-12.11-3.66-18.08h-9.44c.05,10.9-2.1,21.81-6.54,32.76-1.95,4.81-2.84,10.05-4.81,17.28-6.95-7.33-12.61-13.77-18.83-19.61-2.13-2-5.63-3.42-8.57-3.53-10.87-.41-21.77-.16-32.31-.16-5.51-13.36,5.13-18.86,12.03-26.45-.07-.1-.15-.2-.23-.29h-7.2s.01,.01,.02,.01c-10.02,6.46-14.21,14.76-11.15,26.74-11.4-1.48-20.9-.01-26.67,12.3-6.74-11.16-15.25-14.46-26.27-12.2-.29-5.76,.67-11.2-1.11-15.52-1.74-4.18-6.26-7.2-10.14-11.33h-9.74c4.56,4.18,7.94,7.02,10.97,10.19,1.51,1.58,3.09,3.69,3.38,5.74,1.44,10.43,.98,10.78-9.49,10.8-9.35,.03-19.69-2.38-27.78,.85-8.03,3.2-13.78,12.1-20.54,18.49-.81,.77-1.7,1.47-3.26,2.81-4.22-15.77-8.22-30.61-12.15-45.47-.29-1.09-.58-2.32-.46-3.41h-7.75c-.36,7.79-2.75,15.49-5.26,23.15-.51,1.56-3.17,3.41-4.85,3.43-20.67,.23-41.35,.18-62.03,.09-1.67,0-3.54-.42-4.99-1.24-14.21-8.1-28.36-16.32-43.79-25.24,.11-.06,.22-.13,.33-.19h-12.64s.01,.01,.02,.01c-5.71,3.42-10.88,6.52-16.51,9.9,3.06,5.44,5.98,10.61,9.37,16.64H26.97v19.38c-6.1-3.44-11.29-6.36-16.71-9.41-3.51,5.59-6.89,10.96-10.26,16.33v12.89c6.77,11.35,13.16,22.94,20.42,33.96,5.08,7.7,6.9,15.6,6.64,24.73-.52,18.33-.15,36.67-.15,55.47-9.09,2.6-18,5.14-26.91,7.69v5.85c16.16,4.31,32.32,8.62,50.06,13.35-7.25,6.98-13.85,12.99-19.98,19.44-1.77,1.86-3.03,4.96-3.11,7.54-.34,11.04-.14,22.1-.14,33.22-7.75,1.33-14.34,1.46-19.26-5.43-1.98-2.78-5.01-4.82-7.57-7.19v9.37c.19-.03,.47-.16,.56-.08,3.8,3.23,7.1,7.69,11.48,9.38,4.19,1.62,9.5,.35,15.34,.35-2.66,11.72,.8,20.32,11.3,26.64-10.38,6.33-13.97,14.87-11.54,25.69-11.67-1.37-19.87,3.51-27.14,10.66v9.37c2.42-2.25,5.3-4.16,7.16-6.8,5.01-7.11,11.83-6.94,19.82-5.64,0,10.73,.16,21.41-.09,32.07-.1,4.08,1.16,6.97,4.15,9.68,6.2,5.61,12.13,11.52,19.23,18.33-17.77,4.69-34.02,8.99-50.27,13.28v5.86c8.79,2.48,17.58,4.96,26.98,7.62,0,6.69-.01,13.48,0,20.27,.02,15.2,.08,30.4,.03,45.6,0,1.67-.15,3.59-.95,4.99-8.02,14.04-16.19,27.99-24.35,41.94-.35,.6-1.13,.96-1.71,1.42v12.89c3.44,5.33,6.88,10.66,10.49,16.26,5.27-2.92,10.45-5.8,16.45-9.12v18.8h19.39c-3.39,6.13-6.24,11.3-9.33,16.9,5.35,3.36,10.53,6.62,15.72,9.88h14.06c14.72-8.69,29.43-17.41,44.22-26,1.22-.7,3.01-.57,4.54-.57,19.9-.04,39.79,.09,59.69-.12,4.09-.05,5.86,1.16,6.71,5.21,1.51,7.23,3.64,14.33,5.51,21.48h7.03c3.99-15.96,7.98-31.92,12.42-49.71,6.68,6.9,12.44,12.54,17.81,18.52,3.12,3.47,6.49,5.03,11.2,4.84,8.94-.35,17.92-.04,26.87-.34,4.14-.15,5.12,1.36,5.36,5.35,.34,5.71-1,10.12-5.56,13.77-2.69,2.16-4.8,5.03-7.18,7.57h8.21c8-6.61,13.57-14.3,9.92-26.61,11.94,2.3,20.74-.82,26.96-11.44,6.36,10.45,15.04,13.83,27.05,11.37-3.38,12.22,1.68,20.14,9.88,26.68h8.2c-2.1-2.28-3.9-4.97-6.36-6.76-6.61-4.83-7.56-11.2-5.71-19.47,10.05,0,20.32-.26,30.56,.11,5.11,.19,8.88-1.18,12.27-5.05,5.22-5.97,10.89-11.53,17.53-18.48,4.51,17.75,8.57,33.7,12.63,49.65h7.03c1.91-7.35,3.99-14.66,5.67-22.07,.68-3.03,1.95-4.2,5.09-4.19,20.88,.09,41.76,.02,62.64,.08,1.49,.01,3.18,.34,4.45,1.07,14.31,8.31,28.56,16.73,42.82,25.11h15.23c4.58-3.12,9.15-6.24,14.35-9.78-2.76-5.01-5.59-10.18-8.94-16.29h18.86v-19.32c6.07,3.33,11.22,6.16,16.92,9.29,3.2-5.41,6.33-10.7,9.75-16.49v-12.45s-.03,.06-.05,.09c-5.8-10-10.67-19.76-16.8-28.63-7.67-11.07-10.56-22.74-9.8-36.15,.87-15.15,.3-30.4,.14-45.6-.03-3.25,.79-4.87,4.16-5.64,6.64-1.5,13.15-3.54,19.75-5.22,.83-.22,1.72-.37,2.6-.4v-6.9c-.71,.04-1.43-.03-2.07-.2-15.04-4.03-30.06-8.13-45.08-12.25-.32-.08-.57-.46-1.68-1.42,6.39-6.1,12.93-11.95,18.94-18.29,1.88-1.99,3.23-5.29,3.33-8.05,.37-10.88,.15-21.78,.15-32.44,13.46-5.46,18.7,5.33,26.31,11.87,.03-.03,.07-.06,.1-.09v-7.35c-6.37-10.4-15.07-13.55-27.01-11.1,2.81-12.18-.74-20.58-11.11-26.77,9.75-6.47,14.28-14.63,11.11-26.76,11.65,2.11,20.65-.48,26.71-11.7,.1,.15,.2,.3,.3,.45v-7.5c-4.71,4.31-8.8,9.18-13.96,12.23-2.87,1.71-7.59,.31-12.53,.31,0-6.5-.73-12.94,.15-19.15,1.93-13.6-2.14-24.23-13.36-32.25-3.3-2.35-6.19-5.29-10.47-9,14.95-4.06,28.05-7.33,40.96-11.25,3.15-.96,6.19-1.39,9.21-1.35v-8.65c-8.74,.04-17.53-2.08-26.49-6.57v-17.14c0-8.39,.81-16.88-.17-25.15-2.18-18.4,2.91-34.37,13.44-49.25,4.81-6.8,8.52-14.37,13.11-22.25ZM25.62,96.03c-6.98-12.07-14-24.11-20.85-36.24-.51-.9-.13-2.69,.44-3.75,2.12-3.93,4.49-7.73,7.12-12.18,4.42,2.56,8.34,4.71,12.12,7.09,1.02,.64,2.28,1.94,2.29,2.95,.16,13.94,.11,27.87-1.12,42.13Zm1.21,448.65c-.01,1.02-1.23,2.33-2.23,2.97-3.75,2.4-7.65,4.57-11.7,6.94-.61-.53-.8-.63-.9-.79q-8.38-12.76-.75-26c4.82-8.35,9.66-16.68,15.68-24.75,0,13.88,.05,27.76-.1,41.63Zm547.18-41.47c.39-.1,.77-.19,1.16-.29,6.86,11.88,13.78,23.74,20.5,35.7,.59,1.05,.34,3.04-.27,4.22-2.03,3.97-4.4,7.77-6.91,12.1-4.38-2.5-8.6-4.8-12.7-7.32-.83-.51-1.7-1.78-1.7-2.71-.11-13.9-.08-27.8-.08-41.7Zm-6.16-471.2c0,5.24,.17,9.87-.11,14.48-.08,1.25-1.22,2.89-2.35,3.56-11.72,6.94-23.55,13.71-35.34,20.54-.27-.3-.53-.59-.79-.88,6.79-11.8,13.55-23.63,20.47-35.36,.65-1.1,2.33-2.16,3.6-2.24,4.62-.26,9.26-.1,14.52-.1Zm-119.38,122.26c3.47,12.53,6.79,25.1,10.15,37.66-.45,.28-.89,.56-1.34,.84-4.18-4.58-8.35-9.15-12.8-14.03-18.14,10.44-35.76,20.58-53.37,30.72-.28-.23-.56-.47-.84-.71,10.12-17.56,20.25-35.12,30.92-53.63-4.73-4.5-9.47-9.01-14.21-13.52,.12-.27,.24-.54,.36-.81,12.88,3.55,25.78,7.06,38.63,10.74,1.03,.3,2.2,1.65,2.5,2.74Zm-5.11-48.1c3.93,4.88,7.86,9.76,11.74,14.58,19.35-11.13,36.88-21.21,54.41-31.29,.3,.21,.6,.42,.9,.62-10.08,17.53-20.17,35.06-30.95,53.79,4.88,3.99,9.83,8.05,14.78,12.11-.41,.59-.81,1.17-1.22,1.76-12.86-3.5-25.72-6.96-38.54-10.56-.89-.25-1.91-1.42-2.16-2.36-3.46-12.56-6.79-25.15-8.96-38.65Zm-133.27,229.53c-3.21,5.42-6.26,10.57-9.72,16.4-3.44-5.77-6.57-11.02-9.78-16.4-5.55,3.14-10.58,5.98-16.41,9.27v-18.62h-19.77c3.63-6.45,6.47-11.49,9.63-17.1-5.27-3.19-10.36-6.27-16.32-9.87,5.61-3.33,10.7-6.34,16.36-9.7-3.04-5.42-5.94-10.57-9.35-16.64h19.04v-19.34c6.09,3.42,11.22,6.3,16.85,9.46,3.14-5.36,6.16-10.5,9.71-16.56,3.42,5.8,6.42,10.88,9.75,16.53,5.3-2.99,10.48-5.91,16.59-9.36v18.97h19.61c-3.5,6.13-6.45,11.29-9.68,16.95,5.46,3.22,10.59,6.23,16.5,9.71-5.8,3.44-10.9,6.46-16.46,9.76,3.11,5.5,6.03,10.67,9.45,16.7h-19.2v19.26c-6.06-3.4-11.25-6.31-16.8-9.42Zm15.56,60.24c-3.35-5.73-6.72-11.46-10.06-17.19-1.86-3.2-3.67-6.41-5.53-9.61-6.95-11.96-6.82-13.27,2.76-24.96,3.79,2.18,7.74,4.24,11.43,6.7,1.21,.81,2.43,2.64,2.45,4.02,.18,13.54,.11,27.08-1.05,41.04Zm-30.1-35.45c-6.68,11.81-13.5,23.55-21.53,35.03,0-13.91-.05-27.83,.11-41.74,.01-1,1.3-2.29,2.33-2.92,3.77-2.35,7.69-4.49,11.97-6.95,2.6,4.46,5.15,8.56,7.37,12.83,.51,.96,.32,2.74-.25,3.75Zm-56.17-65.84c-11.98-6.76-23.87-13.7-35.79-20.59,.14-.4,.28-.8,.42-1.2,13.42,0,26.84-.08,40.25,.11,1.57,.03,3.68,1.2,4.58,2.51,2.52,3.64,4.54,7.63,7.03,11.95-4.31,2.53-8.23,5.01-12.33,7.14-1.13,.58-3.09,.67-4.16,.08Zm14.65,15.55c.3,.25,.6,.49,1.75,1.42-2.48,4.25-5,8.7-7.69,13.05-.42,.68-1.59,1.26-2.42,1.26-13.9,.08-27.81,.06-41.71,.06-.12-.42-.24-.84-.36-1.26,8.65-4.99,17.92-9.17,25.78-15.2,9.02-6.91,16.61-6.11,24.65,.67Zm-4.38-45.81c-6.87-11.72-13.63-23.51-20.41-35.28,.24-.29,.48-.59,.72-.89,11.92,6.88,23.86,13.7,35.71,20.7,1.09,.64,2.11,2.33,2.19,3.6,.26,4.42,.1,8.87,.1,14.24-5.4,0-10.37,.13-15.32-.11-1.05-.05-2.39-1.24-2.99-2.26Zm-5.73,2.4c-17.88,0-34.43,.03-50.98-.06-1.46-.01-3.07-.61-4.37-1.36-18.57-10.67-37.09-21.42-55.62-32.16-.4-.23-.75-.55-.82-.63,1.31-19.51,9.56-34.63,26.51-45.48,7.83,4.49,16.56,9.48,25.28,14.5,8.6,4.96,17.03,10.23,25.82,14.83,5.6,2.93,9.51,6.92,12.52,12.43,6.78,12.43,14.02,24.61,21.66,37.93Zm-53.4,6.79c14.67,8.4,29.29,16.87,44.86,25.86-15.32,8.83-29.47,17.08-43.74,25.1-1.9,1.07-4.44,1.41-6.68,1.42-19.71,.11-39.42-.04-59.13,.16-4,.04-6.38-.83-6.74-5.11-.09-1.15-.43-2.33-.92-3.38-6.61-14-3.37-27.71,1.45-41.27,.52-1.48,2.8-3.31,4.29-3.33,21.07-.23,42.15-.18,63.23-.15,1.13,0,2.42,.16,3.38,.7Zm-3.24,60.57c1.65-.94,3.55-2.01,5.35-2.03,16.73-.16,33.47-.09,51.35-.09-8.89,15.42-17.13,29.75-25.42,44.05-.57,.97-1.42,1.94-2.38,2.49-19.36,11.22-38.76,22.37-58.67,33.83-6.14-6.26-12.94-11.79-17.82-18.68-3.3-4.66-4.14-11.16-5.65-16.95-2.67-10.32-2.54-10.36,6.68-15.71,15.51-8.99,31.02-17.99,46.56-26.91Zm50.43,20.93c2.33-4.06,4.67-8.11,7-12.17,7.1-12.39,7.81-12.72,23.25-10.21,0,4.61,.2,8.9-.11,13.15-.11,1.45-1.16,3.4-2.38,4.12-11.72,6.98-23.56,13.74-36.26,19.94,2.83-4.95,5.66-9.89,8.5-14.83Zm36.27-151.75c.4-.09,.8-.18,1.2-.27,6.86,11.73,13.8,23.41,20.45,35.25,.73,1.3,.33,3.77-.42,5.25-1.92,3.78-4.33,7.31-6.78,11.32-4.24-2.43-8.34-4.6-12.23-7.1-1.07-.69-2.11-2.37-2.13-3.61-.15-13.61-.09-27.23-.09-40.84Zm36.93,23.9c5.74-7.47,9.91-16.14,15.87-24.08,0,13.88,.06,27.76-.12,41.64,0,1.15-1.48,2.61-2.64,3.35-3.58,2.3-7.35,4.33-11.2,6.55-.66-.49-.84-.58-.97-.73-7.88-8.64-8.36-17.08-.94-26.73Zm45.88,67.12c-3.84-1.84-7.42-4.23-11.94-6.89,2.58-4.45,4.98-8.8,7.61-13.01,.51-.8,1.89-1.49,2.87-1.5,13.79-.09,27.58-.06,41.37-.06,.07,.45,.13,.9,.2,1.35-11.63,6.7-23.21,13.47-34.93,20-1.36,.76-3.76,.78-5.18,.11Zm40.42,30.46c-.14,.4-.29,.8-.43,1.19-13.43,0-26.87,.07-40.3-.09-1.46-.01-3.49-.88-4.27-2.03-2.6-3.82-4.75-7.95-7.4-12.51,4.58-2.66,8.71-5.16,12.95-7.44,.84-.45,2.36-.48,3.18-.01,12.13,6.9,24.19,13.91,36.27,20.89Zm-63.14-58.77c-3.7-7.23-1.55-15.7,5.44-19.74,10.38-6,20.77-11.99,31.15-17.99,.29,.24,.57,.49,.86,.73-4.9,8.51-10.58,16.68-14.5,25.62-4.63,10.59-11.46,14.89-22.95,11.38Zm-1.29,65.97c5.2,0,10.01-.16,14.79,.11,1.23,.07,2.85,1.22,3.51,2.33,6.9,11.7,13.63,23.5,20.41,35.27-.27,.28-.54,.56-.81,.83-11.77-6.79-23.58-13.53-35.27-20.47-1.22-.73-2.41-2.56-2.51-3.97-.32-4.42-.12-8.88-.12-14.1Zm23.95-.03c17.61,0,34-.07,50.39,.09,2,.02,4.14,.99,5.94,2.01,17.46,9.94,34.82,20.06,52.31,29.94,3.12,1.76,4.33,3.67,2.93,7.01-.23,.54-.49,1.1-.54,1.67-1.46,15.84-10.26,27.32-22.18,36.8-1.34,1.07-4.35,1.59-5.73,.82-18.03-10.13-35.91-20.51-53.8-30.89-1.32-.76-2.82-1.67-3.55-2.92-8.46-14.44-16.79-28.96-25.77-44.53Zm52.77-7.18c-14.4-8.18-28.72-16.5-44.1-25.38,15.46-8.93,29.92-17.35,44.48-25.58,1.57-.89,3.75-.93,5.64-.93,20.11-.06,40.22,.06,60.32-.1,3.35-.03,5.13,.91,5.66,4.2,.18,1.15,.42,2.33,.9,3.38,6.51,14.13,3.58,27.99-.95,41.89-.98,3.01-2.5,3.81-5.46,3.8-20.49-.11-40.99-.03-61.49-.11-1.68,0-3.57-.35-5-1.17Zm4.59-60.54c-1.98,1.13-4.27,2.41-6.42,2.44-16.56,.2-33.11,.11-50.95,.11,9.02-15.57,17.37-30.03,25.8-44.45,.56-.96,1.54-1.78,2.51-2.34,19.18-11.12,38.39-22.19,58.17-33.6,6.18,6.31,12.94,12.06,18.15,18.98,2.95,3.93,3.49,9.74,4.87,14.77,3.35,12.24,3.27,12.22-7.58,18.44-14.86,8.53-29.67,17.16-44.55,25.65Zm-3.58-110.43c2.12,2.31,2.25,4.02,.76,6.56-10.51,18.03-20.93,36.11-31.41,54.16-.57,.98-1.27,2.09-2.2,2.63-14.61,8.51-29.26,16.94-44.86,25.95,0-17.77-.08-34.15,.09-50.53,.02-1.99,1.03-4.12,2.06-5.92,9.98-17.44,20.16-34.75,30.01-52.26,1.94-3.45,3.84-4.45,7.35-2.8,1.21,.57,2.6,.93,3.94,1.04,15.07,1.18,24.78,10.89,34.26,21.17Zm-26.95-25.56c-4.87-1.25-9.86-2.18-14.58-3.84-3.57-1.25-5.15-.18-6.88,2.88-8.62,15.28-17.45,30.44-26.23,45.64-.63,1.09-1.43,2.09-2.99,4.36v-62.35c-6.41-1.82-12.48-3.54-18.55-5.27,.01-.35,.02-.7,.03-1.06,12.66-3.42,25.3-6.89,37.98-10.18,1.05-.27,2.75,.33,3.57,1.12,9.49,9.2,18.88,18.51,28.29,27.8-.21,.3-.43,.6-.64,.9Zm-56.73-7.88v12.5c0,16.97,.11,33.95-.11,50.92-.03,2.94-.88,6.19-2.32,8.76-7.68,13.77-15.67,27.37-24.05,41.89-8.88-15.41-17.35-30.06-25.74-44.76-.54-.94-.6-2.25-.6-3.4-.02-21.65,0-43.31,.04-64.96,0-.56,.26-1.12,.27-1.17,17.41-8.58,34.63-8.65,52.51,.22Zm-40.59-10.57c-4.29,1.16-8.52,2.61-12.88,3.41-4.19,.76-5.57,2.66-5.49,7.01,.28,16.78,.13,33.56,.14,50.35,0,1.71,0,3.43-1.19,5.61-10.16-17.52-20.31-35.04-30.62-52.83-6.4,1.66-12.56,3.26-18.73,4.86-.35-.42-.71-.84-1.07-1.26,7.05-6.78,14.71-13.05,20.98-20.49,6.1-7.26,12.06-9.03,21.02-5.59,9.01,3.47,18.69,5.22,28.08,7.73-.08,.4-.16,.8-.24,1.2Zm-62.6,23.12c9.77-2.73,9.72-2.61,14.85,6.36,8.91,15.56,18.04,31.01,26.79,46.66,1.61,2.9,2.55,6.55,2.62,9.88,.28,13.65,.1,27.31,.07,40.96,0,1.7-.17,3.39-.31,6.18-15.33-8.84-29.67-17.09-43.98-25.41-.96-.56-1.85-1.48-2.41-2.44-11.25-19.35-22.45-38.74-33.86-58.46,6.3-6.23,11.77-13.13,18.67-17.97,4.84-3.38,11.6-4.09,17.56-5.76Zm-44.33,21.72c10.95,19.02,21,36.49,31.05,53.97-.25,.26-.51,.52-.77,.78-11.59-6.66-23.18-13.32-34.77-19.99-4.56-2.63-9.27-5.05-13.64-7.96-3.14-2.1-5.4-2.22-7.87,.9-3.1,3.92-6.5,7.6-9.77,11.39-.53-.44-1.06-.88-1.59-1.32,3.34-12.38,6.6-24.78,10.12-37.1,.45-1.58,2.02-3.59,3.47-4,12.51-3.61,25.11-6.89,37.69-10.27,.35,.45,.71,.91,1.07,1.36-5.05,4.12-10.09,8.25-14.99,12.24Zm-27.06-23.16c-1.69,11.94-7.35,18.26-19.67,19.75-8.37,1.01-16.48,4.17-25.29,5.53,4.76-4.1,9.52-8.2,14.3-12.31-11-19.11-21.11-36.69-31.22-54.26,.26-.27,.52-.55,.78-.82,17.46,10.05,34.91,20.1,53.6,30.87,4.31-4.62,8.52-9.15,12.73-13.67,.32,.14,.64,.28,.96,.43-2.13,8.15-5.02,16.2-6.19,24.48Zm-41.44,6.13c1.88,3.2,2.27,5.6-1.05,7.85-.63,.43-1.19,1.04-1.64,1.66-9.17,12.68-22.39,18.05-37.2,20.27-1.66,.26-4.48-.99-5.32-2.4-10.63-17.94-21.01-36.02-31.4-54.1-.66-1.14-1.27-2.52-1.28-3.79-.08-16.75-.05-33.49-.05-51.44,15.61,9.02,30.11,17.36,44.53,25.82,1.24,.73,2.17,2.22,2.93,3.53,10.17,17.53,20.22,35.13,30.48,52.6Zm7.69,23.26c8.91-1.55,17.57-4.53,27.2-7.1-.62,2.79-1.02,4.81-1.52,6.8-.9,3.59-1.84,7.17-2.8,10.74-9.75,36.15-10.35,37.05-44.48,66.83-2.16-7.95-4.4-15.16-6.01-22.51-.87-3.97-2.64-5.88-6.64-6.77-7.4-1.64-14.67-3.87-22.99-6.13,7.12-7.21,14.27-13.52,20.28-20.76,9.79-11.8,21.95-18.49,36.96-21.1Zm-18.13,83.31c9.09-9.53,18.51-18.74,27.83-28.05,.34,.19,.68,.38,1.02,.57-1.21,4.45-2.22,8.97-3.7,13.32-1.26,3.7-.68,5.8,3.05,7.86,14.15,7.8,28.06,16.03,42.05,24.12,1.96,1.13,3.85,2.37,7.13,4.4-3.52,.17-5.54,.35-7.56,.36-16.56,.04-33.12,.15-49.68-.01-3.56-.03-5.24,.89-5.93,4.56-.9,4.74-2.49,9.36-4.18,15.46-1.02-2.87-1.72-4.49-2.18-6.19-2.76-10.13-5.55-20.26-8.11-30.45-.48-1.9-.78-4.85,.26-5.95Zm9.16,69.43c.41,0,.82-.02,1.24-.03,1.29,4.64,2.88,9.21,3.79,13.92,.7,3.66,2.41,4.57,5.95,4.54,17.56-.16,35.13-.06,52.69-.04,1.11,0,2.23,.11,5.13,.26-18.83,10.9-36.24,20.99-53.94,31.24,1.56,6.18,3.07,12.16,4.58,18.13-.32,.26-.65,.52-.97,.78-5.64-5.7-10.64-12.27-17.05-16.89-11.21-8.08-12.66-17.43-7.65-29.56,2.92-7.1,4.21-14.87,6.23-22.35Zm-6.46,52.47c7.72,7.97,15.36,16.06,23.59,23.48,5.09,4.58,7.49,10.01,9.05,16.37,3.1,12.62,6.58,25.15,10.19,38.8-3-.76-5.13-1.28-7.26-1.85-7.33-1.96-14.55-4.62-22.01-5.77-14.84-2.29-26.18-9.65-35.63-21.04-5.77-6.97-12.53-13.13-19.34-20.15,7.47-2,14.1-4.15,20.9-5.49,5.26-1.05,7.93-3.49,8.95-8.87,1.29-6.81,3.51-13.44,5.33-20.15,.76-.55,1.53-1.11,2.29-1.66,1.3,2.13,2.25,4.58,3.94,6.33Zm4.65,75.01c12.51,3.36,25.04,6.66,37.52,10.15,1.25,.35,2.82,1.67,3.15,2.84,3.46,12.33,6.71,24.72,9.07,37.75-3.9-4.63-7.8-9.25-11.74-13.91-19.24,11.07-36.85,21.21-54.47,31.35-.24-.28-.49-.56-.74-.84,10.1-17.5,20.21-35.01,30.86-53.47-4.88-4.23-9.72-8.43-14.56-12.62,.3-.42,.61-.83,.91-1.25Zm42.9-2.79c-1.77-8.96-4.61-17.71-6.96-26.56-.37-1.4-.52-2.85-.77-4.28,.32-.2,.63-.4,.95-.6,3.93,4.52,7.85,9.04,11.8,13.59,18.79-10.82,36.31-20.91,54.97-31.66-1.04,2.31-1.5,3.6-2.17,4.77-8.65,15.04-17.23,30.13-26.08,45.05-1.93,3.25-2.04,5.37,.93,7.91,3.53,3.02,6.7,6.46,9.48,10.81-10.51-2.79-20.93-6-31.56-8.2-6.47-1.34-9.33-4.48-10.59-10.83Zm36.93,3.57c11.21-19.4,22.31-38.62,33.45-57.81,.57-.98,1.34-2.04,2.28-2.59,14.46-8.41,28.96-16.74,44.12-25.47,.25,2.13,.57,3.55,.57,4.97,.03,14.24,.14,28.47-.1,42.7-.05,2.97-.85,6.25-2.3,8.81-9.87,17.48-20.08,34.76-30,52.2-1.64,2.88-3.24,4.06-6.47,2.71-1.95-.81-4.09-1.47-6.19-1.63-16.29-1.27-25.2-13.22-35.36-23.89Zm44.21,32.5c3.5,1.2,5.16,.19,6.89-2.88,8.24-14.62,16.69-29.11,25.08-43.64,.96-1.65,1.99-3.26,2.99-4.89,.4,.12,.8,.24,1.2,.36v60.51c6.33,1.81,12.42,3.56,20.27,5.81-14.32,3.89-26.94,7.37-39.61,10.67-1.04,.27-2.73-.35-3.56-1.14-9.38-9.07-18.66-18.25-27.34-28.5,4.7,1.21,9.5,2.13,14.08,3.7Zm42.23,4.06c0-21.79-.02-44,.04-66.2,0-1.29,.39-2.73,1.03-3.85,8.21-14.36,16.49-28.67,25.26-43.87,3.94,6.73,6.98,13.19,11.14,18.81,12.84,17.37,17.72,36.45,15.59,57.99-1.22,12.34-.22,24.89-.22,37.16-17.47,8.53-34.8,9.07-52.84-.04Zm58.82,5.47v-60.77c.41-.1,.81-.21,1.21-.31,3.67,6.3,7.35,12.6,11.01,18.91,5.56,9.61,11.26,19.15,16.57,28.9,2,3.67,3.9,5.19,8.19,3.53,4.32-1.66,8.97-2.45,13.47-3.63,.31,.28,.61,.56,.92,.84-9.4,9.31-18.76,18.65-28.27,27.84-.89,.86-2.87,1.31-4.1,.99-12.61-3.26-25.17-6.72-39.27-10.54,7.51-2.14,13.56-3.86,20.27-5.76Zm36.04-16.05c-.81,.21-2.54-1.49-3.22-2.67-10.63-18.19-21.17-36.42-31.64-54.7-.74-1.28-1.13-2.94-1.14-4.42-.07-16.38-.05-32.76-.05-50.42,15.68,9.06,30.34,17.49,44.95,26.02,.93,.55,1.62,1.67,2.2,2.67,11.03,19.06,22.02,38.14,33.31,57.69-6.25,6.24-11.55,13.92-18.86,18.17-7.48,4.35-16.9,5.44-25.55,7.66Zm52.71-23.45c-10.98-19.1-21.09-36.68-31.2-54.26,.25-.26,.51-.53,.76-.79,17.43,10.04,34.86,20.09,53.87,31.04,3.82-4.65,7.95-9.69,12.08-14.72,.52,.38,1.04,.76,1.55,1.14-3.41,12.73-6.78,25.46-10.33,38.15-.29,1.05-1.68,2.24-2.78,2.54-12.52,3.47-25.08,6.77-38.47,9,4.81-4.01,9.62-8.02,14.52-12.1Zm30.69,10.37c.42-1.46,2.24-3.14,3.74-3.57,12.33-3.53,24.73-6.79,37.95-9.14-4.98,4.06-9.97,8.12-14.88,12.13,11.1,19.28,21.19,36.79,31.82,55.25-1.99-.79-3.16-1.1-4.17-1.68-15.21-8.73-30.46-17.39-45.54-26.33-3.23-1.92-5.39-2.23-7.88,.87-3.12,3.89-6.56,7.52-9.86,11.27-.49-.4-.97-.8-1.46-1.2,3.39-12.54,6.69-25.12,10.28-37.6Zm37.52,6.13c-1.73-2.93-2.29-5.26,.95-7.37,.64-.42,1.2-1.02,1.65-1.65,9.19-12.64,22.31-17.99,37.12-20.66,3.21-.58,4.46,.08,5.93,2.65,10.14,17.79,20.46,35.49,30.61,53.28,1.02,1.79,1.88,3.97,1.9,5.98,.16,16.2,.09,32.39,.09,49.96-9.4-5.37-17.55-10.72-26.27-14.86-13.9-6.59-24.05-16.12-30.74-30.29-6.05-12.84-13.98-24.79-21.24-37.04Zm12.65-28.66c-15.53,4.24-31.09,8.39-47.72,12.85,3.27-12.32,6.72-23.58,9.16-35.06,2.06-9.7,6.35-17.47,13.8-24.15,8.81-7.91,16.76-16.77,25.9-26.05,2.32,8.63,4.45,16.04,6.26,23.53,.87,3.56,2.36,5.6,6.28,6.45,7.55,1.62,14.95,3.95,23.96,6.41-12.24,12.04-23.47,23.1-34.74,34.12-.81,.8-1.83,1.61-2.9,1.9Zm-5.61-73.53c-8.22,7.64-15.79,16-23.63,24.06-.5-.31-1.01-.62-1.51-.93,1.16-4.41,2.08-8.91,3.55-13.22,1.3-3.82,.33-5.8-3.26-7.8-14.64-8.16-29.07-16.68-43.58-25.08-1.46-.85-2.88-1.78-5.75-3.57h62.14c1.87-6.68,3.58-12.84,5.78-20.7,3.43,12.54,6.22,23.6,9.55,34.49,1.59,5.22,.92,8.84-3.29,12.75Zm-6.74-73.16c-1.3-4.74-2.79-9.44-3.83-14.24-.75-3.45-2.34-4.63-5.95-4.59-16.76,.19-33.52,.06-50.27,.05h-5.71c-.07-.42-.13-.85-.2-1.27,15.66-9.04,31.23-18.24,47.03-27.02,4.11-2.28,5.66-4.42,3.88-9.06-1.58-4.11-2.31-8.54-2.54-13.48,9.37,9.4,18.76,18.79,28.04,28.27,.68,.69,1.06,2.22,.82,3.17-3.34,12.75-6.8,25.46-11.27,38.17Zm-20.99-81.57c-.77-.79-1.38-1.91-1.67-2.98-4.2-15.39-8.32-30.79-12.76-47.26,16.22,4.31,31.26,8.3,46.29,12.33,1.11,.29,2.4,.64,3.17,1.4,11.57,11.53,23.07,23.12,35.16,35.28-8.16,2.22-15.53,4.48-23.04,6.16-3.8,.85-5.51,2.73-6.37,6.37-1.78,7.52-3.94,14.95-6.35,23.91-12.1-12.36-23.29-23.76-34.43-35.21Zm19.15-61.39c-.12-.14-.15-.35-.45-1.07,9.14-15.87,18.74-31.91,27.67-48.31,4.16-7.64,9.39-13.37,17.22-17.38,10.4-5.33,20.32-11.6,30.46-17.43,1.31-.75,2.72-1.3,4.73-2.24,0,17.13,.09,33.32-.11,49.51-.02,2.38-1.08,4.95-2.29,7.07-9.87,17.27-19.97,34.42-29.79,51.71-1.75,3.08-3.33,3.41-6.89,2.99-17.44-2.11-30.08-11.6-40.55-24.85ZM539.25,4.2c.99-.56,2.74-.75,3.69-.25,4.27,2.23,8.38,4.78,12.93,7.43-2.6,4.5-4.83,8.58-7.32,12.5-.62,.97-2.1,1.96-3.19,1.98-13.77,.13-27.54,.08-41.31,.08-.06-.44-.13-.89-.19-1.34,11.78-6.82,23.55-13.68,35.39-20.4Zm-15.46,27.67c6.29,.79,12.76,.12,20.15,.12-7.01,12.23-13.87,23.51-20.01,35.16-3.97,7.53-9.36,12.79-16.9,16.86-16.6,8.96-32.76,18.74-48.49,27.84-16.52-10.9-25.2-25.82-26.44-45.77,9.63-5.59,20.59-10.88,30.36-17.84,18.56-13.24,38.58-19.21,61.33-16.37Zm-124.14,19.18c3.06-12.6,6.53-25.11,11-37.69,1.32,4.71,2.93,9.36,3.86,14.15,.71,3.67,2.48,4.59,5.98,4.56,16.39-.16,32.77-.08,49.16-.09h6.87c.07,.42,.13,.85,.2,1.27-16.01,9.27-31.94,18.69-48.11,27.68-3.75,2.09-4.32,4.17-3.1,7.85,1.41,4.22,2.37,8.59,2.53,13.69-2.21-2.18-4.43-4.34-6.62-6.53-6.48-6.48-13.04-12.88-19.37-19.51-1.31-1.37-2.78-3.84-2.4-5.38Zm-1.16,8.99c4.6,5.13,8.62,10.99,13.92,15.27,15.51,12.53,25.03,28.14,27.97,47.97,1.04,7.01,3.47,13.81,5.56,21.86-16.05-4.32-30.7-8.22-45.31-12.24-1.81-.5-3.79-1.33-5.1-2.61-11.25-11.04-22.36-22.22-34.34-34.19,8.41-2.29,15.92-4.54,23.54-6.31,3.51-.82,5.19-2.43,6-5.97,1.73-7.55,3.95-14.98,7.76-23.78Zm-65.71-28.06c11.87,0,23.12-.08,34.36,.1,1.31,.02,2.8,1.19,3.85,2.2,6.16,5.96,12.37,11.88,18.18,18.18,1.4,1.52,2.19,4.57,1.77,6.61-1.47,7.03-3.4,14-5.61,20.84-.59,1.81-2.58,3.88-4.37,4.45-7.03,2.24-14.2,4.15-21.42,5.69-1.83,.39-4.6-.45-5.99-1.75-6.27-5.83-12.25-11.99-18.22-18.15-1.13-1.17-2.41-2.87-2.44-4.34-.21-11.06-.11-22.11-.11-33.83Zm-62.98,42.25c2.2-2.48,3.84-6.29,3.99-9.57,.49-10.66,.18-21.35,.18-31.6,13.65-5.15,18.92,5.52,26.34,12,7.66-6.54,12.99-17.51,26.52-11.89,0,10.32-.24,21.2,.16,32.06,.11,2.92,1.52,6.38,3.49,8.53,5.78,6.29,12.15,12.05,19.02,18.73-2.57,.86-4.07,1.43-5.62,1.86-6.94,1.92-14.15,3.17-20.8,5.82-15.65,6.23-30.89,5.49-46.46-.28-7.8-2.89-16.08-4.51-25.43-7.05,6.7-6.61,13-12.3,18.61-18.61Zm-58.56-21.44c5.87-6.25,11.98-12.29,18.17-18.23,1.27-1.22,3.24-2.4,4.91-2.43,10.9-.22,21.81-.11,33.58-.11,0,11.88,.08,22.96-.1,34.03-.02,1.32-1.15,2.86-2.17,3.91-6.12,6.28-12.24,12.59-18.67,18.55-1.35,1.26-4,1.17-6.07,1.58-.51,.1-1.12-.28-1.68-.45-7.63-2.22-17.73-2.24-22.24-7.27-5.11-5.71-5.38-15.87-7.38-24.19-.38-1.61,.47-4.13,1.65-5.39Zm-1.47,30.42c.9,3.85,2.69,5.82,6.72,6.7,7.39,1.59,14.62,3.88,22.88,6.14-2.14,2.22-3.81,4-5.53,5.73-5.22,5.24-10.99,10.05-15.6,15.78-9.26,11.51-21.1,17.63-35.47,20.18-9.13,1.62-18.01,4.65-28.16,7.35,4.38-16.3,8.44-31.48,12.57-46.64,.35-1.26,.95-2.63,1.85-3.53,11.22-11.34,22.51-22.6,34.6-34.7,2.23,8.22,4.4,15.56,6.14,22.99Zm-60.07-51.22c9.95,0,19.91-.18,29.86,.11,4.01,.11,6.03-1.01,6.8-5.12,.89-4.7,2.45-9.27,4.2-15.67,3.9,14.48,7.38,27.22,10.69,40,.27,1.08-.23,2.83-1.02,3.64-9.18,9.46-18.49,18.8-27.76,28.18-.33-.23-.66-.46-.98-.68,1.21-4.66,2.09-9.44,3.74-13.93,1.49-4.05,.06-5.84-3.37-7.77-14.45-8.1-28.75-16.48-43.1-24.78-1.61-.93-3.15-1.95-4.49-3.98h25.43Zm-25.59,8.07c13.26,8.55,27.21,16.05,40.97,23.81,3.23,1.82,4.75,3.78,3.09,7.4-.32,.7-.53,1.49-.59,2.26-1.38,15.73-10.62,26.71-22.15,36.17-1.28,1.05-4.36,1.34-5.79,.53-18.18-10.25-36.22-20.74-54.24-31.27-1.43-.84-2.77-2.2-3.61-3.64-7.88-13.47-15.65-27-23.43-40.53-.36-.63-.51-1.38-1.01-2.8,12.15,0,23.81,.54,35.39-.16,11.55-.7,21.58,1.91,31.37,8.23ZM44.87,11.43c4.46-2.64,8.68-5.3,13.08-7.64,.9-.48,2.64-.08,3.66,.51,11.83,6.71,23.6,13.55,35.38,20.35-.06,.43-.12,.86-.18,1.3-13.75,0-27.51,.06-41.27-.1-1.22-.02-2.86-1.16-3.57-2.25-2.43-3.75-4.53-7.7-7.1-12.17Zm-12,20.6c5.42,0,10.24-.08,15.04,.08,.94,.03,2.24,.81,2.73,1.63,7.03,11.98,13.95,24.03,20.1,36.85-12-6.95-24.03-13.87-35.97-20.93-.94-.55-1.77-2.1-1.82-3.22-.2-4.6-.08-9.22-.08-14.41ZM12.52,189.73c7.62-2.22,13.73-4.01,20.15-5.88v-60.31c.37-.18,.73-.35,1.1-.53,.86,1.24,1.81,2.42,2.56,3.72,8.41,14.51,17,28.92,25.04,43.63,2.4,4.38,4.75,5.26,9.18,3.63,4.16-1.53,8.58-2.36,12.88-3.49,.15,.34,.3,.68,.45,1.03-9.12,9.05-18.17,18.17-27.47,27.05-1.18,1.13-3.82,1.66-5.48,1.25-12.28-3.04-24.48-6.39-38.41-10.1Zm20.4,43.19c.03-1.47,1.28-3.18,2.41-4.34,5.97-6.16,11.96-12.3,18.23-18.13,1.37-1.27,4.12-2.07,5.94-1.68,7.22,1.54,14.39,3.42,21.42,5.65,1.79,.57,3.62,2.62,4.38,4.43,1.35,3.19,1.35,7,2.89,10.06,5.46,10.91,.98,17.92-6.79,26.1-8.7,9.15-17.57,13.57-30.02,11.93-5.87-.78-11.93-.14-18.57-.14,0-11.77-.09-22.82,.11-33.88Zm13.12,66.42c-6.33-7.67-17.42-12.73-12.06-26.47,4.32,0,9.59-.69,14.61,.13,16.38,2.67,29.18-2.57,38.71-16.08,1.57-2.22,3.34-4.31,5.02-6.46,.64,.39,1.27,.77,1.91,1.16,4.13,15.4,8.28,30.8,12.35,46.21,.28,1.09,.23,2.38-.06,3.47-4.03,15.23-8.14,30.44-12.53,46.78-6.46-6.38-12.49-12.01-18.11-18.03-2.89-3.1-5.82-4.51-10.16-4.38-10.67,.32-21.37,.1-31.63,.1-5.49-13.4,5.35-18.85,11.95-26.43Zm-10.58,70.6c-1.23-1.29-2.4-3.27-2.43-4.95-.22-10.7-.11-21.39-.11-32.99,11.89,0,22.98-.09,34.06,.11,1.47,.03,3.18,1.27,4.34,2.4,6.01,5.84,12.07,11.66,17.66,17.88,1.47,1.64,2.26,4.88,1.82,7.07-1.37,6.86-3.28,13.64-5.45,20.29-.58,1.81-2.55,3.88-4.33,4.44-7.04,2.23-14.22,4.12-21.44,5.65-1.82,.39-4.57-.42-5.94-1.7-6.26-5.85-12.26-12-18.18-18.2Zm-22.75,38.99c13.94-3.75,26.47-7.15,39.04-10.42,1.12-.29,2.92-.14,3.65,.58,9.55,9.37,18.97,18.87,29.56,29.49-6.39-1.69-11.34-2.67-16.03-4.36-3.36-1.21-4.84-.18-6.45,2.64-8.95,15.73-18.05,31.37-27.12,47.03-.44,.75-1.03,1.42-2.31,3.17v-62.26c-6.5-1.87-12.76-3.68-20.34-5.87Zm24.84,72.75c9.73-15.69,18.79-31.81,27.9-47.88,1.69-2.98,3.26-3.62,6.47-2.61,5.73,1.81,11.71,2.84,17.4,4.75,3,1.01,5.91,2.84,8.32,4.92,5.57,4.83,10.81,10.04,16.18,15.1-11.71,20.28-22.8,39.5-33.95,58.69-.65,1.12-1.69,2.19-2.8,2.84-14.29,8.32-28.63,16.56-43.6,25.19-.23-2.03-.52-3.44-.53-4.84-.03-12.28,.17-24.57-.08-36.85-.14-6.94,.85-13.12,4.69-19.31Zm-3.38,84.64c-.17-.03-.32-.17-1.23-.68,0-4.28-.19-8.56,.11-12.79,.11-1.44,1.13-3.38,2.32-4.09,11.8-7.04,23.72-13.86,36.4-20.06-5.09,8.85-11.17,17.29-15,26.65-4.59,11.2-12.42,12.79-22.6,10.97Zm60.37,9.17c-10.1,5.86-20.35,11.49-30.29,17.61-3.46,2.13-6.06,2.49-9.37,.05-2.92-2.16-6.24-3.79-9.83-5.92,2.55-4.44,4.68-8.56,7.25-12.39,.78-1.16,2.78-2.1,4.24-2.11,13.43-.16,26.86-.1,41.47-.1-1.68,1.4-2.48,2.28-3.47,2.86Zm20.02-11.65c-2.9,1.62-6.54,2.58-9.87,2.65-13.86,.3-27.72,.15-41.59,.13-1.67,0-3.35-.2-5.92-.37,6.07-10.53,12.4-20.15,17.34-30.44,5.32-11.1,13.38-18.42,24.2-24.02,15.02-7.79,29.44-16.76,44.64-25.53,6.1,6.19,12.89,11.71,17.83,18.57,3.23,4.48,3.94,10.85,5.5,16.45,3.06,10.96,2.96,10.95-6.95,16.64-15.06,8.65-30.01,17.47-45.18,25.92Zm86.71-15.65c-3.16,12.39-6.59,24.71-10.97,37.13-1.76-6.14-3.52-12.28-5.34-18.66h-61.8c2.22-1.59,3.29-2.52,4.5-3.21,14.82-8.59,29.58-17.28,44.54-25.63,3.6-2.01,4.52-4.06,3.24-7.86-1.44-4.31-2.38-8.79-3.54-13.19,.36-.2,.71-.4,1.07-.61,8.99,9.11,18.04,18.17,26.91,27.39,1.02,1.06,1.74,3.27,1.39,4.64Zm2.26-9c-9.71-10.07-18.17-19.43-27.3-28.09-5.89-5.59-9.61-11.75-11.38-19.72-2.74-12.3-6.4-24.39-9.94-37.6,16.22,4.33,31.08,8.26,45.92,12.31,1.62,.45,3.35,1.29,4.53,2.46,10.84,10.69,21.57,21.48,32.31,32.27,.38,.37,.52,.98,1,1.94-7.45,2.05-14.63,4.4-21.98,5.91-4.39,.9-6.07,3.2-7,7.2-1.66,7.17-3.74,14.25-6.16,23.32Zm64.24,27.49c-11.74,0-22.99,.08-34.24-.1-1.3-.02-2.76-1.3-3.81-2.33-6.14-5.99-12.34-11.93-18.13-18.25-1.35-1.48-2.01-4.51-1.59-6.53,1.39-6.66,3.62-13.14,5.12-19.78,.74-3.29,2.25-4.97,5.53-5.73,6.82-1.59,13.52-3.71,20.37-5.15,1.83-.38,4.64,.3,5.96,1.57,7.11,6.9,17.1,13.05,19.96,21.53,3.48,10.27,.83,22.6,.83,34.77Zm63.03-42.32c-2.96,2.74-4.17,5.63-4.07,9.69,.27,10.69,.09,21.39,.09,31.74-13.48,5.39-18.78-5.57-26.29-12.05-7.48,6.52-12.78,17.21-26.49,11.72,0-6.98-.62-14.95,.15-22.78,1.01-10.14-1.49-18.13-9.95-24.32-4.51-3.29-8.33-7.53-13.48-12.28,17.28-4.66,32.82-8.86,48.37-13,.88-.23,1.94-.09,2.85,.15,15.43,4.09,30.86,8.23,47.63,12.72-6.68,6.58-12.59,12.66-18.81,18.41Zm38.9,41.42c-.72,.72-2.09,1.1-3.16,1.1-10.9,.08-21.81,.05-33.75,.05,0-11.85-.09-22.92,.12-33.99,.02-1.47,1.34-3.16,2.49-4.34,5.98-6.15,11.98-12.29,18.27-18.13,1.35-1.25,4.08-2.02,5.88-1.64,7.04,1.49,14.06,3.25,20.88,5.53,2.05,.69,3.47,3.32,5.1,5.14,.35,.39,.35,1.1,.49,1.67,1.83,7.54,3.65,15.08,5.48,22.63-7.25,7.34-14.47,14.71-21.8,21.98Zm21.25-50.14c-.88-3.95-2.72-5.87-6.68-6.76-7.4-1.66-14.67-3.87-22.86-6.08,1.79-1.97,3.11-3.54,4.55-4.98,6.47-6.5,13.51-12.53,19.34-19.56,7.66-9.23,17.29-13.8,28.75-16.14,10.42-2.13,20.61-5.36,31.94-8.39-2.5,9.49-5.4,17.96-6.87,26.68-2.69,15.87-10.03,28.54-22.43,38.83-6.7,5.57-12.26,12.5-19.51,20.02-2.42-9.05-4.61-16.27-6.23-23.62Zm85.33,50.92c-2,.11-4,.32-5.99,.32-16.58,.03-33.16,.1-49.74-.03-3.43-.02-5.32,.82-6.02,4.53-.89,4.76-2.46,9.39-3.74,14.08-.41,.01-.81,.02-1.22,.02-3.36-12.53-6.77-25.05-9.97-37.62-.32-1.24,.26-3.24,1.16-4.17,8.93-9.21,18.01-18.27,28.22-26.79-1.49,6.03-2.98,12.06-4.55,18.41,17.42,10.09,34.7,20.11,51.99,30.13-.05,.37-.09,.74-.14,1.12Zm.5-7.73c-13.48-8.58-27.54-16.26-41.49-24.09-3.15-1.77-3.44-3.52-2.95-6.96,2.51-17.42,11.33-30.69,26.2-40.79,18.85,10.89,38.25,22.08,57.63,33.32,.81,.47,1.58,1.21,2.05,2.02,8.42,14.45,16.78,28.93,25.86,44.62-13.14,0-25.16-.58-37.1,.17-11.25,.72-20.78-2.3-30.2-8.29Zm79.13,28.62c-4.5,2.62-8.6,5.13-12.84,7.36-.95,.5-2.67,.4-3.63-.15-11.78-6.67-23.48-13.47-35.21-20.24,.13-.45,.25-.91,.37-1.36,13.39,0,26.79-.07,40.18,.11,1.41,.01,3.29,1.14,4.1,2.33,2.47,3.67,4.53,7.61,7.03,11.95Zm12.1-20.58c-5.4,0-10.05,.21-14.65-.13-1.37-.1-3.12-1.46-3.88-2.73-6.82-11.51-13.45-23.14-20.14-34.73,.24-.33,.47-.66,.71-.99,11.89,6.86,23.8,13.69,35.64,20.64,1.01,.6,2.16,1.95,2.22,3,.23,4.78,.1,9.59,.1,14.94Zm18.49-157.18c-4.26,1.17-8.47,2.58-12.79,3.44-4.27,.84-5.88,2.74-5.8,7.37,.32,17.35,.14,34.71,.13,52.06,0,1.11-.09,2.21-.14,3.31-.38,.09-.77,.17-1.15,.25-10.12-17.48-20.24-34.97-30.52-52.72-6.37,1.64-12.52,3.23-18.68,4.81-.24-.33-.48-.66-.72-1,9.47-9.36,18.89-18.79,28.53-27.99,.9-.85,3.28-.67,4.79-.28,12.05,3.12,24.06,6.4,36.35,10.75Zm-18.63-43.32c-.02,1.14-1.11,2.44-2.01,3.36-6.27,6.4-12.51,12.85-19.04,18.99-1.25,1.18-3.89,1.79-5.61,1.41-7.21-1.61-14.38-3.49-21.42-5.74-1.78-.58-3.66-2.66-4.35-4.48-1.58-4.17-1.83-8.9-3.73-12.87-4.1-8.63-.62-13.89,5.17-20.64,9.89-11.54,20.97-16.81,35.98-14.54,4.71,.72,9.63,.11,15.1,.11,0,11.9,.06,23.15-.09,34.4Zm-5.68-74.39c-2.67,1.92-5.03,4.27-9,7.69,4.53,3.91,8.27,6.93,11.75,10.23,1.33,1.26,2.67,3.03,2.97,4.75,1.82,10.1,.65,11.38-9.47,11.38-7.99-.01-16.01-.37-23.98,.16-3.1,.21-6.7,1.76-8.99,3.86-6.13,5.63-11.68,11.89-18.5,18.99-4.55-17.06-8.62-32.27-12.63-47.5-.29-1.09-.47-2.37-.19-3.43,4.08-15.56,8.25-31.11,12.88-48.47,6.68,7.01,12.55,12.9,18.07,19.1,2.87,3.22,6.05,4.32,10.27,4.2,9.16-.26,18.33,.02,27.5-.17,3.71-.08,4.95,1.11,5.17,4.98,.35,5.9-.87,10.64-5.85,14.23Zm-6.46-73.82c8.97,8.9,14.16,17.68,12.31,30.47-.82,5.68-.14,11.58-.14,18.16-11.9,0-22.79,.11-33.68-.11-1.66-.04-3.58-1.31-4.88-2.54-6.06-5.77-12.11-11.58-17.79-17.72-1.38-1.5-2.06-4.41-1.78-6.49,.54-4.01,2.67-7.85,2.96-11.84,.77-10.78,7.35-13.91,16.79-16.89,11.2-3.54,18.04-1.16,26.21,6.96Zm32.43-28.48c-14.43,3.91-27.1,7.41-39.82,10.72-1.06,.28-2.77-.26-3.59-1.05-9.56-9.14-19-18.4-28.48-27.63,.31-.4,.61-.8,.92-1.21,4.84,1.27,9.78,2.27,14.5,3.9,3.49,1.2,5.17,.24,6.91-2.85,8.63-15.28,17.48-30.43,26.26-45.61,.57-.98,1.24-1.9,1.86-2.85,.4,.14,.8,.28,1.2,.42v60.38c6.36,1.81,12.45,3.55,20.24,5.78Zm-14.15-94.19c0-13.59-.07-27.19,.12-40.78,.01-1.35,1.34-3.12,2.56-3.94,3.54-2.36,7.34-4.34,11.68-6.85,2.57,4.38,5.19,8.58,7.49,12.95,.5,.95,.22,2.73-.36,3.75-6.69,11.79-13.51,23.5-20.3,35.24-.4-.12-.79-.25-1.19-.37Z"/>
  </g>
</svg>