<svg id="visual" viewBox="0 0 900 600" width="900" height="600" xmlns="http://www.w3.org/2000/svg" xmlns:xlink="http://www.w3.org/1999/xlink" version="1.1"><rect x="0" y="0" width="900" height="600" fill="#ffffff"></rect><path d="M0 278L13.7 277.7C27.3 277.3 54.7 276.7 82 278C109.3 279.3 136.7 282.7 163.8 272.3C191 262 218 238 245.2 230.5C272.3 223 299.7 232 327 233C354.3 234 381.7 227 409 224C436.3 221 463.7 222 491 231.3C518.3 240.7 545.7 258.3 573 266.8C600.3 275.3 627.7 274.7 654.8 272.8C682 271 709 268 736.2 268.7C763.3 269.3 790.7 273.7 818 266.5C845.3 259.3 872.7 240.7 886.3 231.3L900 222L900 0L886.3 0C872.7 0 845.3 0 818 0C790.7 0 763.3 0 736.2 0C709 0 682 0 654.8 0C627.7 0 600.3 0 573 0C545.7 0 518.3 0 491 0C463.7 0 436.3 0 409 0C381.7 0 354.3 0 327 0C299.7 0 272.3 0 245.2 0C218 0 191 0 163.8 0C136.7 0 109.3 0 82 0C54.7 0 27.3 0 13.7 0L0 0Z" fill="#de4d61"></path><path d="M0 146L13.7 143.8C27.3 141.7 54.7 137.3 82 144.3C109.3 151.3 136.7 169.7 163.8 168.3C191 167 218 146 245.2 137.5C272.3 129 299.7 133 327 145.8C354.3 158.7 381.7 180.3 409 181.8C436.3 183.3 463.7 164.7 491 152.8C518.3 141 545.7 136 573 143.5C600.3 151 627.7 171 654.8 180C682 189 709 187 736.2 186.8C763.3 186.7 790.7 188.3 818 185.7C845.3 183 872.7 176 886.3 172.5L900 169L900 0L886.3 0C872.7 0 845.3 0 818 0C790.7 0 763.3 0 736.2 0C709 0 682 0 654.8 0C627.7 0 600.3 0 573 0C545.7 0 518.3 0 491 0C463.7 0 436.3 0 409 0C381.7 0 354.3 0 327 0C299.7 0 272.3 0 245.2 0C218 0 191 0 163.8 0C136.7 0 109.3 0 82 0C54.7 0 27.3 0 13.7 0L0 0Z" fill="#98272f"></path><path d="M0 92L13.7 95C27.3 98 54.7 104 82 99C109.3 94 136.7 78 163.8 78.2C191 78.3 218 94.7 245.2 97C272.3 99.3 299.7 87.7 327 84.3C354.3 81 381.7 86 409 85C436.3 84 463.7 77 491 81C518.3 85 545.7 100 573 98.7C600.3 97.3 627.7 79.7 654.8 71.5C682 63.3 709 64.7 736.2 70.7C763.3 76.7 790.7 87.3 818 92.3C845.3 97.3 872.7 96.7 886.3 96.3L900 96L900 0L886.3 0C872.7 0 845.3 0 818 0C790.7 0 763.3 0 736.2 0C709 0 682 0 654.8 0C627.7 0 600.3 0 573 0C545.7 0 518.3 0 491 0C463.7 0 436.3 0 409 0C381.7 0 354.3 0 327 0C299.7 0 272.3 0 245.2 0C218 0 191 0 163.8 0C136.7 0 109.3 0 82 0C54.7 0 27.3 0 13.7 0L0 0Z" fill="#570000"></path></svg>
