<svg id="Layer_1" data-name="Layer 1" xmlns="http://www.w3.org/2000/svg" viewBox="0 0 1014.31 1014.31">
  <defs>
    <style>
      .cls-1 {
        fill: #e44748;
      }

      .cls-2 {
        fill: none;
        stroke: #e44748;
        stroke-dasharray: 0 0 19.96 39.93;
        stroke-linecap: round;
        stroke-miterlimit: 10;
        stroke-width: 10px;
      }

      .cls-3 {
        fill: #444555;
      }
    </style>
  </defs>
  <path class="cls-2" d="M949.67,507.16c0,184.92-114.5,343.12-276.47,407.53-3.18,1.27-6.39,2.51-9.6,3.69-11.9,4.41-24.05,8.32-36.42,11.7-36.93,10.1-75.79,15.5-115.91,15.5s-76.55-5.06-112.43-14.57c-28.29-7.47-55.44-17.71-81.16-30.39-1.88-.92-3.77-1.87-5.63-2.82-141.99-72.55-239.19-220.24-239.19-390.63,0-8.54,.24-17.01,.73-25.42,.14-2.5,.3-4.98,.49-7.47,.06-.91,.14-1.82,.21-2.72,.23-2.87,.49-5.72,.77-8.58,.26-2.69,.56-5.37,.89-8.05,.1-.89,.2-1.77,.32-2.66C103.26,236.04,287.72,68.74,511.27,68.74c167.12,0,312.41,93.52,386.37,231.09,.31,.56,.61,1.13,.9,1.69,1.94,3.61,3.81,7.25,5.63,10.92,2.85,5.72,5.56,11.52,8.16,17.39,1.58,3.54,3.1,7.11,4.57,10.7,2.46,5.99,4.8,12.04,6.99,18.15,4.07,11.28,7.68,22.77,10.81,34.46,1.41,5.23,2.72,10.49,3.93,15.79,7.22,31.58,11.04,64.45,11.04,98.22Z"/>
  <path class="cls-1" d="M915.27,414.31c-1.15-5.01-2.39-9.99-3.72-14.93-2.96-11.05-6.37-21.92-10.22-32.58-2.07-5.78-4.28-11.5-6.61-17.16-1.39-3.4-2.83-6.77-4.32-10.12-1.48,1.05-2.83,1.97-3.99,2.72-7.89,4.98-17.57,9.13-23.24,10.93-5.81,1.8-44.12,15.9-59.33,14.1-4.5-.58-20.39-3.26-31.58-2.86-.37-.63-.84-1.22-1.45-1.7-4.81-3.87-8.71-22.86-9.58-38.24,0-.17-.06-.32-.07-.47,12.79-3.46,40.98-14.25,49.59-14.25s16.32,2.63,48.69,9.82c8.22,1.88,16.09,2.96,23.25,3.51-1.72-3.47-3.49-6.91-5.32-10.32-.27-.53-.56-1.07-.85-1.6-69.92-130.05-207.27-218.46-365.26-218.46-211.33,0-385.71,158.16-411.24,362.57-.11,.84-.21,1.67-.3,2.51-.31,2.53-.59,5.07-.84,7.61,88.47-34.85,242.06-80.26,242.06-80.26,0,0-2.08,40.38-1.11,63.62-112.44,3.39-196.93,16.29-241.68,24.75-.07,.85-.14,1.71-.2,2.57-.18,2.35-.33,4.7-.46,7.06-.46,7.95-.69,15.96-.69,24.03,0,161.08,91.89,300.7,226.12,369.29,1.76,.9,3.54,1.8,5.32,2.67,24.32,11.99,49.99,21.67,76.73,28.73,33.92,8.99,69.55,13.77,106.29,13.77s74.67-5.1,109.58-14.65c11.69-3.19,23.18-6.89,34.43-11.06,3.04-1.12,6.07-2.29,9.08-3.49,153.12-60.89,261.36-210.44,261.36-385.26,0-31.92-3.61-63-10.44-92.85Zm-399.8-44.39c.28,1.66,.7,3.45,1.11,4.97,.28,.83,.42,1.66,.69,2.49,2.35,7.33,5.81,14.39,9.41,21.44,1.1,1.66,1.66,3.74,1.8,5.67-.97,13.56-2.08,26.97-3.46,40.39-.28,3.04-.97,5.53-2.08,7.46-.55,.97-1.1,1.8-1.79,2.49,0,0,0,.14-.14,.14-2.22,2.22-5.4,3.46-9.41,3.6h-.14c-1.1,0-2.35,0-3.73-.14-.83-.14-1.66-.14-2.49-.14h-2.49c-1.24,.14-2.49,.14-3.59,.14-13.56,0-17.71-8.02-19.09-20.75-1.52-13.83-2.21-27.66-2.35-41.49-.56-18.53,1.8-37.48,6.5-55.87,.83-3.18,1.24-6.36,1.8-9.54,.27-1.66,.41-3.19,.69-4.84,.27-1.66,.41-3.19,.69-4.85,3.04-20.33,18.39-28.21,35.13-34.29,0,0,.14,0,.27-.14,.83-.28,1.66-.42,2.77-.42,6.92,.14,17.7,7.19,19.64,13,.14,.56,.28,1.11,.14,1.66v.42c-2.77,16.18-5.67,32.36-8.58,48.68-.13,.28-.27,.69-.55,.97-4.43-.28-8.44-.97-12.59-.97-3.73,0-5.94,.55-7.33,1.94s-1.79,3.73-1.79,7.46,.41,7.06,.96,10.52Zm42.46-61.13c.97-3.32,4.15-6.23,6.92-8.3,6.5-4.98,13.28-8.3,21.71-8.58h1.8c.69,0,1.25,0,1.94,.14,12.17,.97,23.37,13.55,21.3,26.14-1.53,9.13-3.19,18.12-5.12,27.11-.42,1.66-1.66,3.04-3.32,3.59-12.03,2.35-24.34,3.46-36.51,3.46-7.33,0-14.66-.41-22.13-1.24,4.42-14.53,8.57-28.63,13.41-42.32Zm188.59,60.89c-.15-.15-.27-.33-.45-.47-5.87-5.03-9.67-27.91-10.62-43.37,5.03-.06,9.57-.17,13.37-.33,.35,5.9,2.15,28.87,9.59,41.34-3.39,.78-7.46,1.77-11.89,2.83Zm-114.47-44.85h.15v-.14c6.77-.65,55.23,1.07,90.77,1.18,.42,7.27,2.44,33.26,10.4,46.99-18.75,4.57-38.11,9.36-38.11,9.36-1.8-8.57-9.69-23.92-18.95-32.08-23.79-21.3-46.47-14.94-46.47-14.94l2.21-10.37Zm-278.94,130.28c.13-18.12,.69-36.23,1.24-54.49,.28-6.09,.42-12.17,.55-18.12,.14-5.53,.7-11.2,1.11-16.87,.28-3.46,1.25-6.36,2.91-8.71,2.35-3.32,6.08-5.4,11.06-5.81,9.96-.83,19.78,.27,28.63,5.94,2.21,1.52,3.87,4.15,4.15,6.78,.41,9.41,.27,18.81,.27,28.21l.42,.14c-.97,16.88-1.66,33.89-2.91,50.62-.69,9.82-5.8,17.7-12.44,24.48l-1.39,1.38c-1.24,1.39-3.04,2.22-4.84,2.36-7.05-.56-13.97-1.39-21.02-2.63-7.47-1.11-7.88-7.89-7.74-13.28Zm54.76,.42c.56-25.87,.83-51.73,1.94-77.59,.55-12.45,2.63-24.9,4.29-37.21,.14-1.79,.97-3.45,2.35-4.7,9.13-5.53,18.26-11.2,27.8-16.18,6.64-3.6,13.14-1.11,17.7,3.87,5.12,5.53,9.41,11.76,13,18.4,.97,2.35,1.38,4.84,1.38,7.19,0,1.52-.13,2.9-.41,4.42-.69,4.01-1.52,7.89-2.21,11.9-3.05,16.59-6.23,33.19-9.55,49.79-2.49,13-4.97,26-7.6,39-.83,4.56-2.08,9.13-2.91,13.83-2.21,12.45-5.11,12.45-14.8,14.52-5.39,.97-10.78,1.52-16.18,1.38-8.16,0-13.27-4.42-14.38-12.58-.69-5.4-.97-10.65-1.38-15.91l.96-.13Zm-29.18,378.39c-6.08,11.9-13.41,20.75-18.95,26.97,2.91-8.43,4.43-18.25,5.26-26.83,.69-6.5,.83-12.31,1.11-16.32,.55-12.03,24.34-25.17,24.34-25.17-1.52,16.74-6.23,30.43-11.76,41.35Zm37.34,.14c.42-4.01,1.11-7.74,2.91-10.92,6.43-12.2,8.58-14.14,8.7-14.24-3.45,9.41-2.06,17.69-.96,25.3,.7,4.43,1.39,8.58,.97,12.59-1.1,10.92-12.03,18.11-12.03,18.11,2.49-5.67-.55-19.08,.41-30.84Zm36.93,.69c.14-5.67,1.52-11.89,4.57-17.56,0,0,.41,8.71,3.04,13.69,2.76,4.98,5.53-21.99,5.53-21.99,0,0,11.06,12.86,12.59,26.42,.83,5.81-.28,11.89-4.84,17.01-11.07,12.72-21.44-.69-20.89-17.57Zm140.1,8.58c-.97-1.38-1.52-2.63-1.66-4.01-1.1-10.92-.27-15.62-5.79-30.39,.45,.92,7.65,15.7,13.95,27.9,1.52,3.04,3.74,5.67,6.09,8.16,7.74,8.02,17.98,13.83,20.47,19.78-.69-.28-26.28-11.35-33.06-21.44Zm46.33,9.13c-4.97-21.72-17.84-65.84-43.15-78.56-7.33-3.73,13,49.1,10.24,45.23-8.58-12.31-18.53-17.57-26.69-24.21-9.82-8.02-24.07-50.75-24.62-52.14,.27,1.39,7.74,47.03,13,56.71,1.8,3.32,11.2,35.96,9.4,41.76-.96,3.19-6.08-31.81-20.33-27.38-7.47,2.35-14.66,13.83-19.64,24.34-4.56,9.27-7.33,17.7-7.33,17.7-.27-2.35,1.52-9.12,3.74-17.97,4.56-17.57,11.62-43.16,9.54-56.29-3.04-19.64-5.81-39.14-6.08-45.51-.7-14.52,5.53-23.65,19.22-28.63,9.4-3.45,19.36-5.53,29.04-8.98,5.12-2.08,9.68-4.85,13.97-8.16,6.78-5.12,8.16-12.31,4.43-20.06-1.11-2.21-2.22-4.42-3.46-6.64-1.52-2.76-3.18-5.25-4.98-7.88-3.18-4.15-4.29-9.54-3.18-14.52,.14-.28,.28-.83,.28-1.11,.13-.41,.27-.97,.55-1.52,1.11-3.04,1.94-6.22,2.77-9.41-4.43,3.32-7.61,7.06-9.55,11.07-.27,.28-.41,.83-.55,1.11-2.77,6.5-2.21,13.96,.97,22.26v.14c3.32,8.58,2.35,13.42-3.87,18.95-4.98,4.42-8.03,4.42-16.74-.28-.69-.27-1.52-.55-2.21-.83,.14,2.08,.27,3.87,.41,5.67-4.98,.69-10.37,.69-15.35,2.08-9.96,3.04-29.04,23.92-29.04,37.34,0,21.99,5.39,9.27,8.16,43.98,1.66,20.05-9.68,46.61-19.64,65.69-7.19,13.83-13.69,23.79-14.39,25.04,.28-.69,4.57-11.62,9.41-25.17,5.81-16.46,12.17-37.07,13.14-49.1,1.8-22.55-6.23-50.34-6.23-50.34-1.93,7.19-9.12,37.2-10.65,42.87,0,0-3.04-28.63-3.31-32.09-.97-8.3,5.11-16.73,10.92-22.4,10.65-10.65,10.79-20.89,.14-31.67-3.87-3.88-8.02-7.33-12.03-11.07-7.75-6.91-9.27-12.17-4.98-18.67,1.1-1.66,2.63-3.46,4.42-5.39,.97-.97,1.53-1.94,2.77-3.18-4.56,.83-9.54,4.01-14.11,8.57-9.68,9.96-17.42,26.14-15.07,36.79l5.67-11.62c3.18,5.53,6.08,11.62,9.82,17.01,4.29,6.23,4.84,7.2-.83,12.04-3.87,3.32-17.15,24.2-4.98,35.54,20.75,19.09,.83,47.71-1.25,49.1,0,0,10.52-15.49,1.25-35.68-9.26-19.88-25.75-26.63-26.27-26.83,.26,.17,4.46,3.14,9.95,14.79,10.79,23.1-11.76,44.81-12.86,42.88,0,0,6.08-21.16-.56-35.96,0,7.47-11.75,17.01-23.51,24.62-11.61,7.6-17.56,27.24-17.56,27.24,0,0,.83-20.19,8.16-30.01,12.17-16.6,26.55-43.7,17.01-70.67-4.01-11.34-7.05-41.36-9.13-42.46,.42,3.73,2.63,66.52-15.07,91.42-.97,1.66-26.7,25.58-28.22,26.69-1.1-9.96,8.16-33.33,18.26-51.73-3.04,2.91-21.85,11.76-35.96,50.35,1.52-8.58,6.78-31.4,8.16-40.11,4.29-27.8,4.29-55.6,1.66-83.4-.28-4.01-.83-8.16-1.25-12.31-.27-3.32-.83-6.77-1.38-10.09,0-.28,0-.83-.14-1.11-2.62-16.46-6.77-32.64-12.58-48.27-3.88-10.23-9.55-19.64-14.52-29.18-10.65-19.92-17.15-41.91-19.09-64.45,0-.28-.14-.83-.14-1.11-2.49-12.86,1.66-16.32,14.38-14.52,22.69,3.32,43.43,11.48,63.49,22.41,17.15,8.99,32.91,20.33,46.74,33.88,3.18,3.32,3.32,5.39-.27,8.16-10.51,8.58-15.63,20.61-20.2,32.92-.27,.69-.41,1.38-.55,2.07,0,.69,.14,1.38,.28,2.08,.83-.56,1.52-.83,1.8-1.25,10.37-18.67,25.44-33.47,40.38-48.13,12.86-12.58,27.66-22.4,43.29-31.25,23.51-13.28,49.1-22.55,75.51-27.67,2.22-.27,4.43-.69,6.64-1.1,4.57-1.52,9.13-3.32,13.97-4.98-6.64-17.57-.42-33.89,.97-50.07l14.66-3.18c0-.55-.14-1.24-.14-1.93-1.25-.28-2.49-.56-3.87-.56-27.25,1.66-53.8-2.07-79.94-8.85-1.66-.41-3.18-1.38-4.15-2.63-9.41-13.41-17.01-27.52-18.12-44.39v-1.52c10.24,0,20.19-.14,30.01,0,21.44,.41,42.6,.41,63.35-5.54,7.33-2.07,14.93-3.59,22.54-4.84,15.07-2.49,39.83,13.7,43.15,30.29,3.73,18.12,9.13,35.96,13.97,53.94,5.25,19.36,10.09,38.59,15.63,57.4,1.66,5.48,1.51,10.47,.18,15.13l-14.74,24.37c-10.34,14.56-20.92,28.92-31.08,43.62-9.41,13.69-19.64,27.24-27.11,42.04-4.15,8.58-6.78,17.7-7.61,27.11-.14,.28-.14,.83-.14,1.11-.13,1.24-.27,2.62-.27,3.87-.28,6.22-.69,12.31-.83,18.53-.97,26.42-1.39,52.83-1.8,79.25-.14,8.44,12.31,80.08,16.87,109.81,.83,5.95,1.52,10.24,1.52,11.9,0,0-.83-4.84-2.49-12.31Z"/>
  <path class="cls-3" d="M967.3,406.83c-1.66-31.4-2.49-63.62-2.77-94.88,0-.14-.14-.41-.41-.27-.28,0-.42,.13-.42,.27v.5c-9.82,1.25-24.35,3.1-42.59,3.1-9.82,0-19.78-.55-29.46-1.66-5.36-.57-10.36-1.56-15.13-2.73-4.59-1.12-8.96-2.4-13.23-3.63-11.89-3.6-24.34-7.19-41.21-7.19-3.32,0-6.78,.13-10.23,.41-11.76,.97-34.3,8.57-46.47,12.72-5.54,1.94-8.3,2.77-9.27,2.91-2.49,.27-10.51,.55-24.62,.55-36.1,0-99.16-1.1-99.85-1.1h-.7l-.41-.7c-6.5-10.65-24.89-38.72-32.64-40.52-.41-.14-1.11-.14-1.66-.14-10.37,0-32.09,15.91-32.22,16.05l-.97,.69-.83-.69c-.28-.14-21.85-19.51-43.57-19.51-19.36,0-33.05,15.08-40.52,44.95l-.27,1.01-.28,1.07-.34-.29-1.32-1.1c-.14-.13-15.77-12.58-29.19-13.55h-.96c-13.56,0-34.44,16.32-42.6,39.69l-.55,1.66-1.53-.96c-.13-.14-11.61-7.89-25.31-7.89-17.84,0-30.84,12.73-38.58,37.62l-.28,.69-.69,.28c-1.69,.53-130.37,37.07-236.2,81.08-20.91,8.7-40.93,17.69-58.9,26.75-1.64,.83-3.27,1.65-4.87,2.48-7.9,4.07-15.36,8.16-22.28,12.23,1.25-.28,2.49-.42,4.01-.7,28.54-4.8,55.05-9.09,79.51-12.9,93.38-14.51,156.89-21.81,189.22-21.81,9.68,0,16.46,.69,20.47,2.07l1.24,.42-.28,1.24c-.13,.42-9.95,39.56,17.29,88.66,27.66,49.79,40.8,113.82,37.62,147.01-7.19,74.69-28.63,142.04-34.58,160.02-.13,.28-.13,.55-.27,.83-.14,.28-.14,.55-.28,.69-.27,.69-.41,1.39-.69,1.94-.14,.28-.14,.55-.28,.83-1.3,3.73-2.66,7.59-4.03,11.42,1.76,.9,3.54,1.8,5.32,2.67,24.32,11.99,49.99,21.67,76.73,28.73,33.92,8.99,69.55,13.77,106.29,13.77s74.67-5.1,109.58-14.65c11.69-3.19,23.18-6.89,34.43-11.06,3.04-1.12,6.07-2.29,9.08-3.49-2.18-7.69-4.36-16.71-5.73-25.99,0-.42-.14-.97-.28-1.39h.14c-.14-.41-.28-1.66-.55-3.46l-14.94-91.28c0-.27-2.77-23.92-2.77-65.14s4.29-65.14,4.29-65.28l.14-.96c.69-4.84,1.25-9.69,2.07-14.94v-.28l.14-.27c.56-.97,55.6-91.7,80.36-117.98l-27.8-114.24,1.38-.27c2.63-.69,62.93-15.91,69.84-15.91h.28c1.38,.14,3.74,.14,6.64,.14,9.82,0,24.76,0,29.74,2.77,0,0,.27,.14,1.24,.14,7.61,0,34.02-6.92,78.69-20.61,3.05-.92,4.66-1.38,4.85-1.38h1.38v.83c-.28,11.2-.42,22.4-.69,33.6-.14,8.3-.56,25.31-.83,33.61-.14,16.32-1.25,34.3-2.22,50.48-.13,2.77-.13,5.67-.13,8.44-.14,2.76-.14,5.67,2.21,8.43,.97,1.25,3.04,1.25,4.01,0,2.35-2.76,2.35-5.67,2.21-8.43,0-2.77,0-5.67-.14-8.44-.55-11.2-1.66-22.4-1.79-33.61-.49-15.87-.92-32.39-1.28-48.82,.76-5.64,2.7-17.46,6.52-25.38,1.08-2.23,2.3-4.14,3.68-5.53,1.55-1.55,2.87-2.13,3.98-1.73,2.6,.97,3.89,7.08,4.36,10.79l-.94,16.58c-.26,4.11-.57,8.28-.86,12.47-.19,2.57-.37,5.15-.53,7.73v3.31c0,1.11,0,2.22,1.39,3.32,.8,.71,1.9,.9,2.86,.57,.36-.12,.7-.31,1.01-.57,1.38-1.1,1.38-2.21,1.38-3.32,0-3.31-.27-6.77-.55-10.09-.6-7.94-1.59-25.02-2.21-35.75v-3.39c.38-2.95,1.6-10.6,4.21-13.2,.6-.59,1.19-.84,1.82-.71,1.82,.33,3.59,3.48,4.12,4.66l.47,1.03c-.24,7.49-.56,14.98-1.22,22.46l-.55,4.57c-.14,2.21-1.25,6.22,1.93,6.77,1.39,.28,2.77-.69,2.91-2.07,.14-1.24-.14-3.18-.28-4.56l-.55-4.57c-.74-8.19-1.04-16.37-1.29-24.57,0-.05,.03-.07,.03-.11l.34-3.27c.12-.48,.27-1.02,.46-1.56,1.16-3.49,3.28-8.04,5.45-11.23,9.81-8.3,20.46-16.23,30.95-22.08,0,15.01-.41,31.55-.83,46.64-.55,15.35-.83,32.23-1.79,47.44-.7,10.65-1.94,21.16-2.22,31.67,.14,7.33,10.65,7.19,10.65,0-.27-10.65-1.52-21.16-2.21-31.67Zm-80.89-64.59c-7.89,4.98-17.57,9.13-23.24,10.93-5.81,1.8-44.12,15.9-59.33,14.1-4.5-.58-20.39-3.26-31.58-2.86-.37-.63-.84-1.22-1.45-1.7-4.81-3.87-8.71-22.86-9.58-38.24,0-.17-.06-.32-.07-.47,12.79-3.46,40.98-14.25,49.59-14.25s16.32,2.63,48.69,9.82c8.22,1.88,16.09,2.96,23.25,3.51,19.08,1.51,33.16-.65,35.37-.98,.03,0,.06,0,.09,0-6.87,2.01-19.43,11.56-27.75,17.41-1.48,1.05-2.83,1.97-3.99,2.72Zm-254.36-17.41h.15v-.14c6.77-.65,55.23,1.07,90.77,1.18,.42,7.27,2.44,33.26,10.4,46.99-18.75,4.57-38.11,9.36-38.11,9.36-1.8-8.57-9.69-23.92-18.95-32.08-23.79-21.3-46.47-14.94-46.47-14.94l2.21-10.37Zm116.77,.68c.35,5.9,2.15,28.87,9.59,41.34-3.39,.78-7.46,1.77-11.89,2.83-.15-.15-.27-.33-.45-.47-5.87-5.03-9.67-27.91-10.62-43.37,5.03-.06,9.57-.17,13.37-.33Zm-183.97-25.02c6.5-4.98,13.28-8.3,21.71-8.58h1.8c.69,0,1.25,0,1.94,.14,12.17,.97,23.37,13.55,21.3,26.14-1.53,9.13-3.19,18.12-5.12,27.11-.42,1.66-1.66,3.04-3.32,3.59-12.03,2.35-24.34,3.46-36.51,3.46-7.33,0-14.66-.41-22.13-1.24,4.42-14.53,8.57-28.63,13.41-42.32,.97-3.32,4.15-6.23,6.92-8.3Zm-80.63,39.83c.83-3.18,1.24-6.36,1.8-9.54,.27-1.66,.41-3.19,.69-4.84,.27-1.66,.41-3.19,.69-4.85,3.04-20.33,18.39-28.21,35.13-34.29,0,0,.14,0,.27-.14,.83-.28,1.66-.42,2.77-.42,6.92,.14,17.7,7.19,19.64,13,.14,.56,.28,1.11,.14,1.66v.42c-2.77,16.18-5.67,32.36-8.58,48.68-.13,.28-.27,.69-.55,.97-4.43-.28-8.44-.97-12.59-.97-3.73,0-5.94,.55-7.33,1.94s-1.79,3.73-1.79,7.46,.41,7.06,.96,10.52c.28,1.66,.7,3.45,1.11,4.97,.28,.83,.42,1.66,.69,2.49,2.35,7.33,5.81,14.39,9.41,21.44,1.1,1.66,1.66,3.74,1.8,5.67-.97,13.56-2.08,26.97-3.46,40.39-.28,3.04-.97,5.53-2.08,7.46-.55,.97-1.1,1.8-1.79,2.49,0,0,0,.14-.14,.14-2.22,2.22-5.4,3.46-9.41,3.6h-.14c-1.1,0-2.35,0-3.73-.14-.83-.14-1.66-.14-2.49-.14h-2.49c-1.24,.14-2.49,.14-3.59,.14-13.56,0-17.71-8.02-19.09-20.75-1.52-13.83-2.21-27.66-2.35-41.49-.56-18.53,1.8-37.48,6.5-55.87Zm-131.11,114.79c.13-18.12,.69-36.23,1.24-54.49,.28-6.09,.42-12.17,.55-18.12,.14-5.53,.7-11.2,1.11-16.87,.28-3.46,1.25-6.36,2.91-8.71,2.35-3.32,6.08-5.4,11.06-5.81,9.96-.83,19.78,.27,28.63,5.94,2.21,1.52,3.87,4.15,4.15,6.78,.41,9.41,.27,18.81,.27,28.21l.42,.14c-.97,16.88-1.66,33.89-2.91,50.62-.69,9.82-5.8,17.7-12.44,24.48l-1.39,1.38c-1.24,1.39-3.04,2.22-4.84,2.36-7.05-.56-13.97-1.39-21.02-2.63-7.47-1.11-7.88-7.89-7.74-13.28Zm54.76,.42c.56-25.87,.83-51.73,1.94-77.59,.55-12.45,2.63-24.9,4.29-37.21,.14-1.79,.97-3.45,2.35-4.7,9.13-5.53,18.26-11.2,27.8-16.18,6.64-3.6,13.14-1.11,17.7,3.87,5.12,5.53,9.41,11.76,13,18.4,.97,2.35,1.38,4.84,1.38,7.19,0,1.52-.13,2.9-.41,4.42-.69,4.01-1.52,7.89-2.21,11.9-3.05,16.59-6.23,33.19-9.55,49.79-2.49,13-4.97,26-7.6,39-.83,4.56-2.08,9.13-2.91,13.83-2.21,12.45-5.11,12.45-14.8,14.52-5.39,.97-10.78,1.52-16.18,1.38-8.16,0-13.27-4.42-14.38-12.58-.69-5.4-.97-10.65-1.38-15.91l.96-.13Zm-68.04-6.78c-112.44,3.39-196.93,16.29-241.68,24.75-22.85,4.31-35.34,7.47-35.9,7.61,9.94-4.82,22.45-10.13,36.63-15.72,88.47-34.85,242.06-80.26,242.06-80.26,0,0-2.08,40.38-1.11,63.62Zm38.86,385.17c-6.08,11.9-13.41,20.75-18.95,26.97,2.91-8.43,4.43-18.25,5.26-26.83,.69-6.5,.83-12.31,1.11-16.32,.55-12.03,24.34-25.17,24.34-25.17-1.52,16.74-6.23,30.43-11.76,41.35Zm37.34,.14c.42-4.01,1.11-7.74,2.91-10.92,6.43-12.2,8.58-14.14,8.7-14.24-3.45,9.41-2.06,17.69-.96,25.3,.7,4.43,1.39,8.58,.97,12.59-1.1,10.92-12.03,18.11-12.03,18.11,2.49-5.67-.55-19.08,.41-30.84Zm36.93,.69c.14-5.67,1.52-11.89,4.57-17.56,0,0,.41,8.71,3.04,13.69,2.76,4.98,5.53-21.99,5.53-21.99,0,0,11.06,12.86,12.59,26.42,.83,5.81-.28,11.89-4.84,17.01-11.07,12.72-21.44-.69-20.89-17.57Zm140.1,8.58c-.97-1.38-1.52-2.63-1.66-4.01-1.1-10.92-.27-15.62-5.79-30.39,.45,.92,7.65,15.7,13.95,27.9,1.52,3.04,3.74,5.67,6.09,8.16,7.74,8.02,17.98,13.83,20.47,19.78-.69-.28-26.28-11.35-33.06-21.44Zm107.88-328.06c-2.84,4.11-5.71,8.19-8.61,12.26-10.34,14.56-20.92,28.92-31.08,43.62-9.41,13.69-19.64,27.24-27.11,42.04-4.15,8.58-6.78,17.7-7.61,27.11-.14,.28-.14,.83-.14,1.11-.13,1.24-.27,2.62-.27,3.87-.28,6.22-.69,12.31-.83,18.53-.97,26.42-1.39,52.83-1.8,79.25-.14,8.44,12.31,80.08,16.87,109.81,.83,5.95,1.52,10.24,1.52,11.9,0,0-.83-4.84-2.49-12.31-4.97-21.72-17.84-65.84-43.15-78.56-7.33-3.73,13,49.1,10.24,45.23-8.58-12.31-18.53-17.57-26.69-24.21-9.82-8.02-24.07-50.75-24.62-52.14,.27,1.39,7.74,47.03,13,56.71,1.8,3.32,11.2,35.96,9.4,41.76-.96,3.19-6.08-31.81-20.33-27.38-7.47,2.35-14.66,13.83-19.64,24.34-4.56,9.27-7.33,17.7-7.33,17.7-.27-2.35,1.52-9.12,3.74-17.97,4.56-17.57,11.62-43.16,9.54-56.29-3.04-19.64-5.81-39.14-6.08-45.51-.7-14.52,5.53-23.65,19.22-28.63,9.4-3.45,19.36-5.53,29.04-8.98,5.12-2.08,9.68-4.85,13.97-8.16,6.78-5.12,8.16-12.31,4.43-20.06-1.11-2.21-2.22-4.42-3.46-6.64-1.52-2.76-3.18-5.25-4.98-7.88-3.18-4.15-4.29-9.54-3.18-14.52,.14-.28,.28-.83,.28-1.11,.13-.41,.27-.97,.55-1.52,1.11-3.04,1.94-6.22,2.77-9.41-4.43,3.32-7.61,7.06-9.55,11.07-.27,.28-.41,.83-.55,1.11-2.77,6.5-2.21,13.96,.97,22.26v.14c3.32,8.58,2.35,13.42-3.87,18.95-4.98,4.42-8.03,4.42-16.74-.28-.69-.27-1.52-.55-2.21-.83,.14,2.08,.27,3.87,.41,5.67-4.98,.69-10.37,.69-15.35,2.08-9.96,3.04-29.04,23.92-29.04,37.34,0,21.99,5.39,9.27,8.16,43.98,1.66,20.05-9.68,46.61-19.64,65.69-7.19,13.83-13.69,23.79-14.39,25.04,.28-.69,4.57-11.62,9.41-25.17,5.81-16.46,12.17-37.07,13.14-49.1,1.8-22.55-6.23-50.34-6.23-50.34-1.93,7.19-9.12,37.2-10.65,42.87,0,0-3.04-28.63-3.31-32.09-.97-8.3,5.11-16.73,10.92-22.4,10.65-10.65,10.79-20.89,.14-31.67-3.87-3.88-8.02-7.33-12.03-11.07-7.75-6.91-9.27-12.17-4.98-18.67,1.1-1.66,2.63-3.46,4.42-5.39,.97-.97,1.53-1.94,2.77-3.18-4.56,.83-9.54,4.01-14.11,8.57-9.68,9.96-17.42,26.14-15.07,36.79l5.67-11.62c3.18,5.53,6.08,11.62,9.82,17.01,4.29,6.23,4.84,7.2-.83,12.04-3.87,3.32-17.15,24.2-4.98,35.54,20.75,19.09,.83,47.71-1.25,49.1,0,0,10.52-15.49,1.25-35.68-9.26-19.88-25.75-26.63-26.27-26.83,.26,.17,4.46,3.14,9.95,14.79,10.79,23.1-11.76,44.81-12.86,42.88,0,0,6.08-21.16-.56-35.96,0,7.47-11.75,17.01-23.51,24.62-11.61,7.6-17.56,27.24-17.56,27.24,0,0,.83-20.19,8.16-30.01,12.17-16.6,26.55-43.7,17.01-70.67-4.01-11.34-7.05-41.36-9.13-42.46,.42,3.73,2.63,66.52-15.07,91.42-.97,1.66-26.7,25.58-28.22,26.69-1.1-9.96,8.16-33.33,18.26-51.73-3.04,2.91-21.85,11.76-35.96,50.35,1.52-8.58,6.78-31.4,8.16-40.11,4.29-27.8,4.29-55.6,1.66-83.4-.28-4.01-.83-8.16-1.25-12.31-.27-3.32-.83-6.77-1.38-10.09,0-.28,0-.83-.14-1.11-2.62-16.46-6.77-32.64-12.58-48.27-3.88-10.23-9.55-19.64-14.52-29.18-10.65-19.92-17.15-41.91-19.09-64.45,0-.28-.14-.83-.14-1.11-2.49-12.86,1.66-16.32,14.38-14.52,22.69,3.32,43.43,11.48,63.49,22.41,17.15,8.99,32.91,20.33,46.74,33.88,3.18,3.32,3.32,5.39-.27,8.16-10.51,8.58-15.63,20.61-20.2,32.92-.27,.69-.41,1.38-.55,2.07,0,.69,.14,1.38,.28,2.08,.83-.56,1.52-.83,1.8-1.25,10.37-18.67,25.44-33.47,40.38-48.13,12.86-12.58,27.66-22.4,43.29-31.25,23.51-13.28,49.1-22.55,75.51-27.67,2.22-.27,4.43-.69,6.64-1.1,4.57-1.52,9.13-3.32,13.97-4.98-6.64-17.57-.42-33.89,.97-50.07l14.66-3.18c0-.55-.14-1.24-.14-1.93-1.25-.28-2.49-.56-3.87-.56-27.25,1.66-53.8-2.07-79.94-8.85-1.66-.41-3.18-1.38-4.15-2.63-9.41-13.41-17.01-27.52-18.12-44.39v-1.52c10.24,0,20.19-.14,30.01,0,21.44,.41,42.6,.41,63.35-5.54,7.33-2.07,14.93-3.59,22.54-4.84,15.07-2.49,39.83,13.7,43.15,30.29,3.73,18.12,9.13,35.96,13.97,53.94,5.25,19.36,10.09,38.59,15.63,57.4,1.66,5.48,1.51,10.47,.18,15.13-1.21,4.27-3.42,8.27-6.13,12.11Zm-29.46,398.87h.02s0,0,0,0h-.02Z"/>
</svg>
