<svg width="52" height="53" viewBox="0 0 52 53" fill="none" xmlns="http://www.w3.org/2000/svg">
<g clip-path="url(#clip0_5_602)">
<path d="M-0.5 19.4999C-0.5 12.8494 -0.5 9.52406 0.794294 6.98386C1.93279 4.74944 3.74944 2.93279 5.98386 1.79429C8.52406 0.5 11.8494 0.5 18.4999 0.5H33.0001C39.6507 0.5 42.976 0.5 45.5161 1.79429C47.7505 2.93279 49.5672 4.74944 50.7057 6.98386C52 9.52406 52 12.8494 52 19.4999V34.0001C52 40.6507 52 43.976 50.7057 46.5161C49.5672 48.7505 47.7505 50.5672 45.5161 51.7057C42.976 53 39.6507 53 33.0001 53H18.4999C11.8494 53 8.52406 53 5.98386 51.7057C3.74944 50.5672 1.93279 48.7505 0.794294 46.5161C-0.5 43.976 -0.5 40.6507 -0.5 34.0001V19.4999Z" fill="#B5C4CF"/>
<path d="M26.9622 15.9384L20.4115 27.0279L27.4199 38.8035C27.5656 39.0705 27.4199 39.1295 27.2088 39.1295H22.2078C21.8554 39.1295 21.6089 39.1168 21.4681 38.8758C20.998 37.9366 20.5285 37.0035 20.0592 36.0763C19.5893 35.1495 19.0904 34.2043 18.5626 33.2407C18.0342 32.2779 17.5118 31.3027 16.9953 30.315C16.5254 31.2783 16.0028 32.2415 15.4984 33.2047C14.9933 34.1681 14.4944 35.1253 14.0016 36.0763C13.5086 37.0278 13.0038 37.973 12.4873 38.9118C12.3932 39.1286 12.2286 39.1509 11.9941 39.1509H7.16924C6.97966 39.1509 6.95678 39.0084 7.0636 38.8396L13.8608 27.389L7.23963 15.9022C7.11937 15.7383 7.22287 15.5638 7.41577 15.5771H12.3815C12.5966 15.5651 12.7866 15.6461 12.9098 15.83C13.3325 16.7934 13.8021 17.7568 14.3186 18.7198C14.8347 19.6831 15.3573 20.6345 15.8858 21.5733C16.4142 22.5125 16.9366 23.4637 17.3826 24.4271C17.8519 23.4399 18.3274 22.4767 18.8089 21.5373C19.2901 20.5981 19.783 19.653 20.2881 18.7018C20.7929 17.7508 21.28 16.8056 21.7497 15.8662C21.8121 15.6601 21.9614 15.5557 22.1723 15.5771H26.7859C26.9622 15.5771 27.0349 15.8176 26.9622 15.9384Z" fill="white"/>
<path d="M37.0695 39.5984C33.9636 39.647 30.7103 38.3681 29.0749 35.5347C28.2765 34.1744 27.8773 32.4708 27.8775 30.4235C27.8642 28.7656 28.2773 27.1334 29.0749 25.6916C31.1331 22.0124 35.2794 20.6339 39.2179 20.9958V13.8797C39.2179 13.7115 39.2884 13.6269 39.4292 13.6269H43.8668C43.9881 13.6091 44.0953 13.7192 44.0781 13.8436V35.1916C44.0781 36.0723 44.1654 36.95 44.2191 37.8284C44.2277 37.9784 44.1409 38.1269 44.0076 38.1898C41.8151 39.1276 39.4427 39.5876 37.0695 39.5984ZM39.2179 35.1193V25.2581C36.0011 24.3644 32.8781 26.8145 32.8785 30.2067C32.8022 33.7139 35.8254 36.137 39.2179 35.1193Z" fill="white"/>
</g>
<defs>
<clipPath id="clip0_5_602">
<rect width="52" height="53" fill="white"/>
</clipPath>
</defs>
</svg>
