<svg width="52" height="53" viewBox="0 0 52 53" fill="none" xmlns="http://www.w3.org/2000/svg">
<g clip-path="url(#clip0_5_611)">
<path d="M-0.5 18.4999C-0.5 11.8494 -0.5 8.52406 0.794294 5.98386C1.93279 3.74944 3.74944 1.93279 5.98386 0.794294C8.52406 -0.5 11.8494 -0.5 18.4999 -0.5H33.0001C39.6507 -0.5 42.976 -0.5 45.5161 0.794294C47.7505 1.93279 49.5672 3.74944 50.7057 5.98386C52 8.52406 52 11.8494 52 18.4999V33.0001C52 39.6507 52 42.976 50.7057 45.5161C49.5672 47.7505 47.7505 49.5672 45.5161 50.7057C42.976 52 39.6507 52 33.0001 52H18.4999C11.8494 52 8.52406 52 5.98386 50.7057C3.74944 49.5672 1.93279 47.7505 0.794294 45.5161C-0.5 42.976 -0.5 39.6507 -0.5 33.0001V18.4999Z" fill="#B5C4CF"/>
<path d="M30.244 36.5L25.668 29.62L21.636 36.5H15.428L22.628 25.076L15.268 14.036H21.636L26.148 20.82L30.116 14.036H36.324L29.188 25.364L36.612 36.5H30.244Z" fill="white"/>
</g>
<defs>
<clipPath id="clip0_5_611">
<rect width="52" height="53" fill="white"/>
</clipPath>
</defs>
</svg>
