<svg width="52" height="53" viewBox="0 0 52 53" fill="none" xmlns="http://www.w3.org/2000/svg">
<g clip-path="url(#clip0_5_612)">
<path d="M-0.5 18.4999C-0.5 11.8494 -0.5 8.52406 0.794294 5.98386C1.93279 3.74944 3.74944 1.93279 5.98386 0.794294C8.52406 -0.5 11.8494 -0.5 18.4999 -0.5H33.0001C39.6507 -0.5 42.976 -0.5 45.5161 0.794294C47.7505 1.93279 49.5672 3.74944 50.7057 5.98386C52 8.52406 52 11.8494 52 18.4999V33.0001C52 39.6507 52 42.976 50.7057 45.5161C49.5672 47.7505 47.7505 49.5672 45.5161 50.7057C42.976 52 39.6507 52 33.0001 52H18.4999C11.8494 52 8.52406 52 5.98386 50.7057C3.74944 49.5672 1.93279 47.7505 0.794294 45.5161C-0.5 42.976 -0.5 39.6507 -0.5 33.0001V18.4999Z" fill="#B5C4CF"/>
<path d="M34.604 21.268C34.604 22.5693 34.3053 23.764 33.708 24.852C33.1107 25.9187 32.1933 26.7827 30.956 27.444C29.7187 28.1053 28.1827 28.436 26.348 28.436H22.956V36.5H17.484V14.036H26.348C28.14 14.036 29.6547 14.3453 30.892 14.964C32.1293 15.5827 33.0573 16.436 33.676 17.524C34.2947 18.612 34.604 19.86 34.604 21.268ZM25.932 24.084C26.9773 24.084 27.756 23.8387 28.268 23.348C28.78 22.8573 29.036 22.164 29.036 21.268C29.036 20.372 28.78 19.6787 28.268 19.188C27.756 18.6973 26.9773 18.452 25.932 18.452H22.956V24.084H25.932Z" fill="white"/>
</g>
<defs>
<clipPath id="clip0_5_612">
<rect width="52" height="53" fill="white"/>
</clipPath>
</defs>
</svg>
