<svg width="52" height="54" viewBox="0 0 52 54" fill="none" xmlns="http://www.w3.org/2000/svg">
<g clip-path="url(#clip0_5_613)">
<path d="M-0.5 18.4999C-0.5 11.8494 -0.5 8.52406 0.794294 5.98386C1.93279 3.74944 3.74944 1.93279 5.98386 0.794294C8.52406 -0.5 11.8494 -0.5 18.4999 -0.5H33.0001C39.6507 -0.5 42.976 -0.5 45.5161 0.794294C47.7505 1.93279 49.5672 3.74944 50.7057 5.98386C52 8.52406 52 11.8494 52 18.4999V33.0001C52 39.6507 52 42.976 50.7057 45.5161C49.5672 47.7505 47.7505 49.5672 45.5161 50.7057C42.976 52 39.6507 52 33.0001 52H18.4999C11.8494 52 8.52406 52 5.98386 50.7057C3.74944 49.5672 1.93279 47.7505 0.794294 45.5161C-0.5 42.976 -0.5 39.6507 -0.5 33.0001V18.4999Z" fill="#B5C4CF"/>
<path d="M9 29.6875C9 22.9375 12.375 16.1875 16.3125 16.1875C18.375 16.1875 20.25 17.5 23.0625 21.4375C20.4375 25.375 18.9375 28 18.9375 28C15.375 33.4375 14.25 34.75 12.1875 34.75C10.125 34.5625 9 32.875 9 29.6875ZM32.0625 27.25L29.625 23.3125C29.0625 22.1875 28.3125 21.25 27.75 20.3125C30 16.9375 31.6875 15.25 33.9375 15.25C38.4375 15.25 42 21.8125 42 29.875C42 32.875 41.0625 34.75 39 34.75C36.75 34.5625 35.8125 33.25 32.0625 27.25ZM25.6875 17.5C22.3125 13.375 19.6875 11.6875 16.3125 11.6875C9.5625 11.6875 4.5 20.5 4.5 29.6875C4.5 35.5 7.3125 39.0625 12 39.0625C15.375 39.0625 17.8125 37.5625 22.125 29.875C22.125 29.875 24 26.6875 25.125 24.4375C25.5 25.1875 26.0625 25.9375 26.4375 26.6875L28.5 30.0625C32.4375 36.625 34.6875 38.875 38.625 38.875C43.125 38.875 45.75 35.125 45.75 29.3125C45.75 19.5625 40.5 11.5 34.125 11.5C30.75 11.6875 28.125 14.3125 25.6875 17.5Z" fill="white"/>
</g>
<defs>
<clipPath id="clip0_5_613">
<rect width="52" height="54" fill="white"/>
</clipPath>
</defs>
</svg>
