<svg width="52" height="53" viewBox="0 0 52 53" fill="none" xmlns="http://www.w3.org/2000/svg">
<g clip-path="url(#clip0_5_614)">
<path d="M-0.5 17.4999C-0.5 10.8494 -0.5 7.52406 0.794294 4.98386C1.93279 2.74944 3.74944 0.932794 5.98386 -0.205706C8.52406 -1.5 11.8494 -1.5 18.4999 -1.5H33.0001C39.6507 -1.5 42.976 -1.5 45.5161 -0.205706C47.7505 0.932794 49.5672 2.74944 50.7057 4.98386C52 7.52406 52 10.8494 52 17.4999V32.0001C52 38.6507 52 41.976 50.7057 44.5161C49.5672 46.7505 47.7505 48.5672 45.5161 49.7057C42.976 51 39.6507 51 33.0001 51H18.4999C11.8494 51 8.52406 51 5.98386 49.7057C3.74944 48.5672 1.93279 46.7505 0.794294 44.5161C-0.5 41.976 -0.5 38.6507 -0.5 32.0001V17.4999Z" fill="#B5C4CF"/>
<path d="M40.3658 22.1935L40.1994 21.5373H26.4403V27.462H34.6699C34.2107 29.27 33.1667 30.8695 31.7048 32.0048C30.2431 33.14 28.448 33.7455 26.6068 33.7243C24.2041 33.7042 21.8956 32.7746 20.1341 31.1181C19.2681 30.2528 18.579 29.2228 18.1062 28.0871C17.6333 26.9515 17.3861 25.7324 17.3786 24.4996C17.4065 22.0238 18.3734 19.6538 20.0786 17.8812C21.8153 16.2132 24.122 15.2925 26.5143 15.3125C28.5632 15.3285 30.5359 16.1019 32.0623 17.4875L36.1308 13.2501C33.4493 10.8246 29.9785 9.48917 26.3848 9.50027C24.4079 9.48836 22.4482 9.87134 20.6173 10.6273C18.7864 11.3833 17.1203 12.4975 15.7142 13.9063C13.0394 16.723 11.5315 20.472 11.5005 24.3817C11.4695 28.2915 12.918 32.0644 15.5477 34.9242C17.0047 36.3959 18.7364 37.5585 20.6416 38.3439C22.5467 39.1295 24.5871 39.5221 26.6437 39.499C28.5086 39.5131 30.357 39.1432 32.0769 38.4116C33.7966 37.68 35.3519 36.6021 36.6486 35.243C39.1932 32.4064 40.5696 28.6895 40.4953 24.8559C40.5152 23.9664 40.472 23.0768 40.3658 22.1935Z" fill="white"/>
</g>
<defs>
<clipPath id="clip0_5_614">
<rect width="52" height="53" fill="white"/>
</clipPath>
</defs>
</svg>
