<svg width="52" height="54" viewBox="0 0 52 54" fill="none" xmlns="http://www.w3.org/2000/svg">
<g clip-path="url(#clip0_5_603)">
<path d="M-0.5 19.4999C-0.5 12.8494 -0.5 9.52406 0.794294 6.98386C1.93279 4.74944 3.74944 2.93279 5.98386 1.79429C8.52406 0.5 11.8494 0.5 18.4999 0.5H33.0001C39.6507 0.5 42.976 0.5 45.5161 1.79429C47.7505 2.93279 49.5672 4.74944 50.7057 6.98386C52 9.52406 52 12.8494 52 19.4999V34.0001C52 40.6507 52 43.976 50.7057 46.5161C49.5672 48.7505 47.7505 50.5672 45.5161 51.7057C42.976 53 39.6507 53 33.0001 53H18.4999C11.8494 53 8.52406 53 5.98386 51.7057C3.74944 50.5672 1.93279 48.7505 0.794294 46.5161C-0.5 43.976 -0.5 40.6507 -0.5 34.0001V19.4999Z" fill="#B5C4CF"/>
<path d="M27.0723 39.1627H13.196C12.9611 39.1627 12.8437 39.0301 12.8438 38.7654V15.828C12.8178 15.6414 12.9789 15.4762 13.1608 15.5028H17.4576C17.599 15.4824 17.7237 15.6129 17.704 15.7558V34.6113H27.8119C28.0231 34.6113 28.1054 34.7197 28.0583 34.9365L27.4244 38.8376C27.4189 39.0341 27.2577 39.1606 27.0723 39.1627Z" fill="white"/>
<path d="M30.5974 21.1848H34.4363C34.648 21.1867 34.8381 21.3367 34.8942 21.5461C35.1754 22.1868 35.2101 22.9593 35.2112 23.651C35.8695 22.8648 36.6634 22.2097 37.5531 21.7186C38.5075 21.1647 39.5894 20.884 40.6857 20.9058C40.8675 20.8792 41.0286 21.0443 41.0025 21.2309V25.6017C41.0025 25.7705 40.8848 25.8545 40.6504 25.8545C39.0255 25.7395 36.4958 26.1333 35.3151 27.4439V38.8085C35.3151 39.0252 35.2212 39.1336 35.0333 39.1336H30.9145C30.7122 39.1632 30.5337 38.9765 30.5622 38.7723V26.4325C30.5622 24.779 30.5972 23.0757 30.3509 21.4377C30.313 21.287 30.4538 21.1469 30.5974 21.1848Z" fill="white"/>
</g>
<defs>
<clipPath id="clip0_5_603">
<rect width="52" height="54" fill="white"/>
</clipPath>
</defs>
</svg>
