<svg width="52" height="53" viewBox="0 0 52 53" fill="none" xmlns="http://www.w3.org/2000/svg">
<g clip-path="url(#clip0_5_601)">
<path d="M-0.5 19.4999C-0.5 12.8494 -0.5 9.52406 0.794294 6.98386C1.93279 4.74944 3.74944 2.93279 5.98386 1.79429C8.52406 0.5 11.8494 0.5 18.4999 0.5H33.0001C39.6507 0.5 42.976 0.5 45.5161 1.79429C47.7505 2.93279 49.5672 4.74944 50.7057 6.98386C52 9.52406 52 12.8494 52 19.4999V34.0001C52 40.6507 52 43.976 50.7057 46.5161C49.5672 48.7505 47.7505 50.5672 45.5161 51.7057C42.976 53 39.6507 53 33.0001 53H18.4999C11.8494 53 8.52406 53 5.98386 51.7057C3.74944 50.5672 1.93279 48.7505 0.794294 46.5161C-0.5 43.976 -0.5 40.6507 -0.5 34.0001V19.4999Z" fill="#B5C4CF"/>
<path d="M10.75 38.9679V15.8814C10.75 15.7244 10.8156 15.6346 10.9688 15.6346C13.2293 15.6346 15.4889 15.5 17.7499 15.5C21.4191 15.5 25.3919 16.7546 26.7844 20.5929C27.1126 21.5352 27.2875 22.4999 27.2875 23.5096C27.2875 25.4392 26.8501 27.032 25.975 28.2884C23.5308 31.7981 19.2944 31.7435 15.4969 31.7435V38.9456C15.5266 39.1587 15.3449 39.2596 15.1688 39.2596H11.0125C10.8375 39.2596 10.75 39.1698 10.75 38.9679ZM15.5187 19.9647V27.5032C17.0245 27.6134 18.6001 27.6254 20.0468 27.1443C21.6441 26.6834 22.5188 25.301 22.5188 23.6443C22.5631 22.2326 21.7939 20.8781 20.4844 20.3686C19.0551 19.7742 17.0616 19.7386 15.5187 19.9647Z" fill="white"/>
<path d="M40.9313 26.0139C40.2694 25.6649 39.5644 25.4097 38.8356 25.2552C37.8992 25.0349 34.2059 24.2632 34.2044 26.1944C34.2372 27.2725 35.9487 27.8007 36.7049 28.1088C39.3597 29.0202 42.3638 30.6494 42.3047 33.9245C42.3859 38.0015 38.4357 39.6314 35.0496 39.6318C33.2869 39.65 31.4505 39.377 29.8373 38.6202C29.6832 38.5387 29.5842 38.3645 29.5907 38.1867V34.2856C29.5733 34.1292 29.7413 33.9925 29.8725 34.105C31.4532 35.0609 33.3267 35.5252 35.1554 35.5499C35.9625 35.5499 37.5623 35.4717 37.5503 34.2856C37.5503 33.1475 35.6365 32.6242 34.8735 32.335C33.7677 31.9404 32.7192 31.3934 31.7567 30.7096C30.4116 29.7502 29.5679 28.2119 29.5907 26.5195C29.5829 22.6807 33.219 20.9575 36.4937 20.9568C38.0245 20.944 39.6685 21.0575 41.0935 21.6792C41.2984 21.7394 41.3408 21.9554 41.34 22.1487V25.7971C41.353 26.0236 41.1015 26.1007 40.9313 26.0139Z" fill="white"/>
</g>
<defs>
<clipPath id="clip0_5_601">
<rect width="52" height="53" fill="white"/>
</clipPath>
</defs>
</svg>
