<svg width="52" height="53" viewBox="0 0 52 53" fill="none" xmlns="http://www.w3.org/2000/svg">
<g clip-path="url(#clip0_5_600)">
<path d="M-0.5 19.4999C-0.5 12.8494 -0.5 9.52406 0.794294 6.98386C1.93279 4.74944 3.74944 2.93279 5.98386 1.79429C8.52406 0.5 11.8494 0.5 18.4999 0.5H33.0001C39.6507 0.5 42.976 0.5 45.5161 1.79429C47.7505 2.93279 49.5672 4.74944 50.7057 6.98386C52 9.52406 52 12.8494 52 19.4999V34.0001C52 40.6507 52 43.976 50.7057 46.5161C49.5672 48.7505 47.7505 50.5672 45.5161 51.7057C42.976 53 39.6507 53 33.0001 53H18.4999C11.8494 53 8.52406 53 5.98386 51.7057C3.74944 50.5672 1.93279 48.7505 0.794294 46.5161C-0.5 43.976 -0.5 40.6507 -0.5 34.0001V19.4999Z" fill="#B5C4CF"/>
<path d="M24.9411 33.4931H16.8057L15.1504 38.7669C15.1045 38.9628 14.9241 39.1016 14.7278 39.0918H10.6072C10.3722 39.0918 10.29 38.9594 10.3607 38.6945L17.4044 17.8884C17.4749 17.6716 17.5454 17.4249 17.6157 17.1479C17.7079 16.6659 17.755 16.1761 17.7567 15.6851C17.7364 15.5399 17.8639 15.4118 18.0031 15.4321H23.6029C23.767 15.4321 23.8607 15.4923 23.8846 15.6127L31.8794 38.7307C31.9497 38.9716 31.8794 39.092 31.6681 39.0918H27.0895C26.929 39.1102 26.7756 39.0001 26.7374 38.8391L24.9411 33.4931ZM18.0736 28.9417H23.6382C22.7239 25.8176 21.6921 22.7345 20.8559 19.5862C19.9536 22.7399 18.9692 25.8809 18.0736 28.9417Z" fill="white"/>
<path d="M36.6334 19.2609C36.2742 19.2757 35.916 19.2125 35.5821 19.0756C35.2484 18.9388 34.9465 18.731 34.6964 18.4663C34.447 18.1899 34.2531 17.8659 34.1262 17.5124C33.9992 17.1592 33.9417 16.7836 33.9567 16.4073C33.9439 16.0348 34.0079 15.6637 34.1444 15.3182C34.281 14.9728 34.4871 14.6608 34.7492 14.4025C35.0087 14.147 35.3151 13.9468 35.6507 13.8135C35.9862 13.6802 36.3441 13.6164 36.7037 13.6259C37.5492 13.6259 38.2124 13.8848 38.6937 14.4025C38.9367 14.6716 39.1255 14.9872 39.2494 15.3312C39.3732 15.6751 39.4298 16.0409 39.4155 16.4073C39.4304 16.7849 39.3709 17.162 39.2408 17.5156C39.1109 17.8693 38.9127 18.1925 38.6584 18.4663C38.3927 18.7349 38.0755 18.9442 37.7271 19.0811C37.3786 19.2178 37.0062 19.2791 36.6334 19.2609ZM34.2032 38.7305V21.4644C34.2032 21.2476 34.2968 21.1393 34.4851 21.1393H38.8171C39.0046 21.1393 39.0985 21.2476 39.0987 21.4644V38.7305C39.0987 38.9716 39.0047 39.092 38.8171 39.0918H34.5203C34.309 39.0918 34.2032 38.9714 34.2032 38.7305Z" fill="white"/>
</g>
<defs>
<clipPath id="clip0_5_600">
<rect width="52" height="53" fill="white"/>
</clipPath>
</defs>
</svg>
