<svg width="52" height="53" viewBox="0 0 52 53" fill="none" xmlns="http://www.w3.org/2000/svg">
<g clip-path="url(#clip0_5_605)">
<path d="M-0.5 18.4999C-0.5 11.8494 -0.5 8.52406 0.794294 5.98386C1.93279 3.74944 3.74944 1.93279 5.98386 0.794294C8.52406 -0.5 11.8494 -0.5 18.4999 -0.5H33.0001C39.6507 -0.5 42.976 -0.5 45.5161 0.794294C47.7505 1.93279 49.5672 3.74944 50.7057 5.98386C52 8.52406 52 11.8494 52 18.4999V33.0001C52 39.6507 52 42.976 50.7057 45.5161C49.5672 47.7505 47.7505 49.5672 45.5161 50.7057C42.976 52 39.6507 52 33.0001 52H18.4999C11.8494 52 8.52406 52 5.98386 50.7057C3.74944 49.5672 1.93279 47.7505 0.794294 45.5161C-0.5 42.976 -0.5 39.6507 -0.5 33.0001V18.4999Z" fill="#B5C4CF"/>
<path d="M21.6049 32.4321H13.4695L11.8142 37.716C11.7683 37.912 11.5878 38.0507 11.3916 38.0411H7.27101C7.03603 38.0411 6.95385 37.9088 7.02449 37.6438L14.0682 16.9236C14.1387 16.707 14.2091 16.4951 14.2796 16.218C14.3717 15.736 14.4188 15.2462 14.4204 14.7551C14.4002 14.61 14.5255 14.4815 14.6669 14.5022H20.2667C20.4308 14.5022 20.5246 14.5624 20.5484 14.6828L28.5432 37.6798C28.6135 37.921 28.543 38.0413 28.3319 38.0411H23.7533C23.5928 38.0593 23.4394 37.9493 23.4012 37.7882L21.6049 32.4321ZM14.7374 27.9769H20.302C19.3877 24.8528 18.3559 21.7699 17.5197 18.6214C16.5721 21.8873 15.697 24.9161 14.7374 27.9769Z" fill="white"/>
<path d="M34.489 30.3919C34.8128 33.0749 37.0658 34.354 39.5605 34.2994C40.9673 34.2719 42.4707 34.0534 43.7853 33.5215C43.9023 33.4257 43.9613 33.4855 43.9613 33.7023V37.1337C43.9724 37.3122 43.8978 37.4718 43.75 37.5672C42.1161 38.3093 40.2408 38.5332 38.4687 38.5047C33.1853 38.5047 29.557 34.7821 29.5585 29.3659C29.5446 24.2333 32.8745 19.9032 38.0461 19.9032C42.43 19.7896 45.4651 23.2994 45.4773 27.6683C45.4773 28.4639 45.4328 29.2624 45.3365 30.0522C45.3177 30.2149 45.1791 30.3413 45.0194 30.3413C41.5182 30.3413 38 30.3919 34.489 30.3919ZM34.489 27.1013C36.4403 27.1013 38.4029 27.1703 40.3529 27.0833C40.646 27.0533 40.8636 26.9976 40.8636 26.6929C40.823 25.0733 39.4561 23.7411 37.87 23.8032C35.9538 23.6843 34.7273 25.3021 34.489 27.1013Z" fill="white"/>
</g>
<defs>
<clipPath id="clip0_5_605">
<rect width="52" height="53" fill="white"/>
</clipPath>
</defs>
</svg>
