<svg width="52" height="53" viewBox="0 0 52 53" fill="none" xmlns="http://www.w3.org/2000/svg">
<g clip-path="url(#clip0_5_604)">
<path d="M-0.5 18.4999C-0.5 11.8494 -0.5 8.52406 0.794294 5.98386C1.93279 3.74944 3.74944 1.93279 5.98386 0.794294C8.52406 -0.5 11.8494 -0.5 18.4999 -0.5H33.0001C39.6507 -0.5 42.976 -0.5 45.5161 0.794294C47.7505 1.93279 49.5672 3.74944 50.7057 5.98386C52 8.52406 52 11.8494 52 18.4999V33.0001C52 39.6507 52 42.976 50.7057 45.5161C49.5672 47.7505 47.7505 49.5672 45.5161 50.7057C42.976 52 39.6507 52 33.0001 52H18.4999C11.8494 52 8.52406 52 5.98386 50.7057C3.74944 49.5672 1.93279 47.7505 0.794294 45.5161C-0.5 42.976 -0.5 39.6507 -0.5 33.0001V18.4999Z" fill="#B5C4CF"/>
<path d="M10.75 36.6169V13.0149C10.75 12.8544 10.8158 12.7626 10.9694 12.7626C13.2367 12.7626 15.5029 12.625 17.7709 12.625C21.4508 12.625 25.4356 13.9076 26.8322 17.8317C27.1613 18.7951 27.3368 19.7813 27.3368 20.8135C27.3368 22.786 26.8981 24.4144 26.0204 25.699C23.569 29.287 19.3199 29.2313 15.511 29.2313V36.5939C15.5408 36.8119 15.3586 36.9151 15.1819 36.9151H11.0133C10.8378 36.9151 10.75 36.8234 10.75 36.6169ZM15.5329 17.1895V24.8961C17.0433 25.009 18.6235 25.0212 20.0746 24.5292C21.6766 24.0582 22.5539 22.6448 22.5539 20.9511C22.5985 19.5079 21.8269 18.1231 20.5135 17.6024C19.0799 16.9947 17.0806 16.9583 15.5329 17.1895Z" fill="white"/>
<path d="M30.3109 18.6473H34.1614C34.3737 18.6494 34.5644 18.8026 34.6204 19.0167C34.9026 19.6716 34.9375 20.4616 34.9384 21.1686C35.5988 20.3648 36.3949 19.6952 37.2874 19.1929C38.2446 18.6269 39.3297 18.3398 40.4292 18.3621C40.6118 18.3347 40.7732 18.5037 40.7472 18.6944V23.1627C40.7472 23.3354 40.629 23.4212 40.3939 23.4212C38.7642 23.3037 36.2269 23.7062 35.0427 25.0461V36.6644C35.0427 36.886 34.9485 36.9968 34.7601 36.9968H30.6289C30.426 37.0272 30.247 36.8363 30.2757 36.6274V24.0121C30.2757 22.3217 30.3107 20.5804 30.0638 18.9059C30.0257 18.7517 30.1667 18.6085 30.3109 18.6473Z" fill="white"/>
</g>
<defs>
<clipPath id="clip0_5_604">
<rect width="52" height="53" fill="white"/>
</clipPath>
</defs>
</svg>
