<svg width="52" height="53" viewBox="0 0 52 53" fill="none" xmlns="http://www.w3.org/2000/svg">
<g clip-path="url(#clip0_5_606)">
<path d="M-0.5 17.4999C-0.5 10.8494 -0.5 7.52406 0.794294 4.98386C1.93279 2.74944 3.74944 0.932794 5.98386 -0.205706C8.52406 -1.5 11.8494 -1.5 18.4999 -1.5H33.0001C39.6507 -1.5 42.976 -1.5 45.5161 -0.205706C47.7505 0.932794 49.5672 2.74944 50.7057 4.98386C52 7.52406 52 10.8494 52 17.4999V32.0001C52 38.6507 52 41.976 50.7057 44.5161C49.5672 46.7505 47.7505 48.5672 45.5161 49.7057C42.976 51 39.6507 51 33.0001 51H18.4999C11.8494 51 8.52406 51 5.98386 49.7057C3.74944 48.5672 1.93279 46.7505 0.794294 44.5161C-0.5 41.976 -0.5 38.6507 -0.5 32.0001V17.4999Z" fill="#B5C4CF"/>
<path d="M38.5501 34.8686C37.5897 36.3336 36.2263 37.1707 34.5033 37.4276C34.247 37.4659 33.9908 37.4608 33.8491 37.4659C32.8183 37.4881 31.9572 37.2745 31.1292 36.8772C30.5234 36.5871 30.0161 36.172 29.58 35.6632C29.0073 34.9903 28.5594 34.2408 28.1725 33.4479C27.5014 32.0697 27.0111 30.626 26.6072 29.1491C26.5198 28.8259 26.4435 28.4983 26.3561 28.1699C26.3179 28.0057 26.3018 27.8415 26.3018 27.6774C26.3018 27.486 26.3832 27.3379 26.5308 27.218C26.6454 27.1252 26.776 27.0589 26.9177 27.0155C28.3023 26.5783 29.7098 26.2337 31.1495 26.0312C31.8698 25.9325 32.5952 25.867 33.3257 25.878C33.9416 25.8883 34.5576 25.9436 35.1633 26.0746C36.2645 26.3154 37.1757 26.8845 37.9393 27.7046C38.8174 28.6506 39.3357 29.777 39.4664 31.0624C39.6081 32.4346 39.3026 33.715 38.5501 34.8686Z" fill="white"/>
<path d="M24.6822 28.1529C24.4472 29.1976 24.1417 30.2312 23.782 31.2428C23.4876 32.0791 23.1499 32.9051 22.7462 33.698C22.4025 34.3709 22.0037 35.0107 21.5295 35.6011C20.7498 36.5692 19.7351 37.1154 18.5406 37.3783C18.1368 37.4651 17.7329 37.5093 17.3732 37.4983C14.5591 37.5204 12.0826 35.5245 11.5973 32.7188C11.2596 30.7553 11.8044 29.0325 13.1736 27.5889C13.9754 26.7415 14.957 26.2056 16.1134 26.0031C16.5121 25.9325 16.9151 25.8882 17.319 25.8721C18.7484 25.8236 20.15 26.0201 21.5406 26.3264C22.3805 26.5127 23.2042 26.7424 24.0221 26.9993C24.6661 27.2009 24.8128 27.5676 24.6822 28.1529Z" fill="white"/>
<path d="M30.8779 19.3249C30.5292 20.1671 30.055 20.9439 29.5255 21.6823C28.9419 22.4973 28.2979 23.257 27.6218 23.9954C27.1415 24.5152 26.6402 25.0188 26.1328 25.5217C26.0183 25.6424 25.8817 25.7351 25.729 25.8006C25.5712 25.8662 25.4185 25.8662 25.2657 25.7896C25.113 25.719 24.9705 25.6262 24.8509 25.5166C23.3891 24.1817 22.0418 22.744 20.9728 21.0647C20.5037 20.3262 20.1058 19.5444 19.8657 18.6911C19.7401 18.2427 19.6638 17.7945 19.6799 17.3844C19.6688 14.5353 21.7525 11.9975 24.6269 11.5704C26.3941 11.3085 27.9645 11.7789 29.3126 12.9538C30.4528 13.9491 31.0909 15.2184 31.2818 16.7166C31.3963 17.6243 31.2266 18.4878 30.8779 19.3249Z" fill="white"/>
</g>
<defs>
<clipPath id="clip0_5_606">
<rect width="52" height="53" fill="white"/>
</clipPath>
</defs>
</svg>
