<svg width="52" height="53" viewBox="0 0 52 53" fill="none" xmlns="http://www.w3.org/2000/svg">
<g clip-path="url(#clip0_5_607)">
<path d="M-0.5 17.4999C-0.5 10.8494 -0.5 7.52406 0.794294 4.98386C1.93279 2.74944 3.74944 0.932794 5.98386 -0.205706C8.52406 -1.5 11.8494 -1.5 18.4999 -1.5H33.0001C39.6507 -1.5 42.976 -1.5 45.5161 -0.205706C47.7505 0.932794 49.5672 2.74944 50.7057 4.98386C52 7.52406 52 10.8494 52 17.4999V32.0001C52 38.6507 52 41.976 50.7057 44.5161C49.5672 46.7505 47.7505 48.5672 45.5161 49.7057C42.976 51 39.6507 51 33.0001 51H18.4999C11.8494 51 8.52406 51 5.98386 49.7057C3.74944 48.5672 1.93279 46.7505 0.794294 44.5161C-0.5 41.976 -0.5 38.6507 -0.5 32.0001V17.4999Z" fill="#B5C4CF"/>
<path d="M33.8375 10.8463C33.7837 11.2963 33.7943 11.7287 33.6704 12.1214C33.4902 12.692 32.9983 13.0352 32.4796 13.3186C31.448 13.8824 30.3181 14.1896 29.1739 14.4363C27.4593 14.8061 25.7265 15.0999 24.0196 15.4989C21.2393 16.1487 18.6723 17.2621 16.4192 18.9947C16.2893 19.0946 16.165 19.2531 16.127 19.4051C15.538 21.763 15.7002 24.0777 16.6279 26.331C19.0375 32.1843 25.695 35.1573 31.7211 33.8941C31.9711 33.8417 32.1432 33.7368 32.2886 33.5355C34.4702 30.5167 35.6612 27.1326 36.2679 23.5274C36.4684 22.3358 36.6575 21.1382 36.9509 19.9666C37.2532 18.7594 37.8976 17.7277 39.0467 17.0725C39.3817 16.8816 39.7437 16.7348 40.1057 16.5619C38.7582 13.8748 36.6586 11.9729 33.8375 10.8463Z" fill="white"/>
<path d="M25.0327 41.0591C24.3193 40.9743 23.5976 40.9308 22.8937 40.7984C16.4376 39.5836 11.8242 36.1093 9.55642 30.1064C7.60285 24.9355 8.38329 19.9602 11.694 15.4766C14.785 11.2906 19.1034 9.04998 24.3886 8.57048C26.6807 8.36247 28.9345 8.61854 31.1314 9.29019C31.7463 9.47815 32.2746 9.80958 32.6383 10.3415C33.0431 10.9337 32.995 11.4935 32.4885 12.0073C31.9054 12.5988 31.1728 12.9851 30.3784 13.197C29.1431 13.5264 27.8893 13.8009 26.6311 14.0379C24.0446 14.5251 21.5098 15.1548 19.1553 16.3388C17.3617 17.2407 15.7439 18.3707 14.3404 19.7852C12.6729 21.4658 11.7933 23.5047 11.371 25.763C10.7486 29.0922 11.8176 31.9298 14.0511 34.4285C15.5575 36.1139 17.309 37.5183 19.5343 38.171C23.8044 39.4236 27.7175 38.7381 31.1935 35.9391C33.4916 34.0886 34.8557 31.6763 35.857 29.0154C36.6715 26.8508 37.1387 24.6172 37.4147 22.337C37.5506 21.214 37.9026 20.1444 38.3915 19.1193C38.6644 18.5467 39.1073 18.1177 39.6849 17.8268C40.5534 17.3896 41.3319 17.6164 41.733 18.4762C42.0284 19.1093 42.2868 19.7664 42.4804 20.4348C44.4852 27.3529 41.5171 34.6707 35.1997 38.4495C32.667 39.9645 29.9245 40.8299 26.9499 41.0036C26.8512 41.0094 26.7541 41.04 26.6562 41.0591H25.0328H25.0327Z" fill="white"/>
<path d="M33.8375 10.8463C36.6586 11.9728 38.7581 13.8748 40.1057 16.5619C39.7436 16.7348 39.3816 16.8815 39.0467 17.0725C37.8976 17.7277 37.2532 18.7594 36.9509 19.9666C36.6575 21.1382 36.4684 22.3358 36.2679 23.5274C35.6612 27.1326 34.4702 30.5166 32.2886 33.5355C32.1432 33.7368 31.9712 33.8417 31.721 33.8941C25.695 35.1573 19.0375 32.1843 16.6278 26.331C15.7002 24.0777 15.538 21.7631 16.127 19.4051C16.165 19.2531 16.2892 19.0946 16.4191 18.9947C18.6723 17.2622 21.2392 16.1488 24.0195 15.4989C25.7264 15.0999 27.4593 14.8062 29.1739 14.4363C30.3181 14.1896 31.448 13.8824 32.4796 13.3186C32.9983 13.0352 33.4902 12.692 33.6703 12.1214C33.7943 11.7287 33.7837 11.2963 33.8375 10.8463Z" fill="white"/>
</g>
<defs>
<clipPath id="clip0_5_607">
<rect width="52" height="53" fill="white"/>
</clipPath>
</defs>
</svg>
