<svg width="52" height="53" viewBox="0 0 52 53" fill="none" xmlns="http://www.w3.org/2000/svg">
<g clip-path="url(#clip0_5_608)">
<path d="M-0.5 18.4999C-0.5 11.8494 -0.5 8.52406 0.794294 5.98386C1.93279 3.74944 3.74944 1.93279 5.98386 0.794294C8.52406 -0.5 11.8494 -0.5 18.4999 -0.5H33.0001C39.6507 -0.5 42.976 -0.5 45.5161 0.794294C47.7505 1.93279 49.5672 3.74944 50.7057 5.98386C52 8.52406 52 11.8494 52 18.4999V33.0001C52 39.6507 52 42.976 50.7057 45.5161C49.5672 47.7505 47.7505 49.5672 45.5161 50.7057C42.976 52 39.6507 52 33.0001 52H18.4999C11.8494 52 8.52406 52 5.98386 50.7057C3.74944 49.5672 1.93279 47.7505 0.794294 45.5161C-0.5 42.976 -0.5 39.6507 -0.5 33.0001V18.4999Z" fill="#B5C4CF"/>
<path fill-rule="evenodd" clip-rule="evenodd" d="M30.2256 40.4617L26.2541 29.9656L21.7065 40.4934C19.9861 40.4506 18.9885 39.4239 18.9885 39.4239L12.2104 18.3571C12.2104 18.3571 11.9432 17.3117 10.4298 17.3117H9.5L10.1174 15.7242H18.7796V17.3117C18.7796 17.3117 17.9194 17.9974 18.1208 18.9477C18.3241 19.898 21.7912 33.5861 21.7912 33.5861L25.1341 26.2613L23.5831 21.4166C22.9883 19.9278 22.4989 18.4931 22.1093 18.113C21.5597 17.5223 20.5583 17.3117 20.5583 17.3117V15.7242H31.2308V17.3117H29.4652C29.4652 17.3117 28.5354 17.4962 28.4544 18.849C28.4375 19.121 28.5975 20.0676 28.5975 20.0676L32.7385 33.5451C32.7385 33.5451 36.9924 25.8122 37.0526 24.1278C37.1147 22.4471 36.456 19.6949 34.5982 18.5956C31.6261 16.8235 32.3771 13.2981 34.6678 12.0515C35.6466 11.5205 36.5181 11.5 37.51 11.5C41.0073 11.5 41.4007 15.4242 41.4007 15.4242C41.6322 16.777 41.4684 19.0782 40.8096 21.1073C39.0892 26.3843 34.8316 35.878 33.1827 39.4928C31.8576 40.7953 30.2257 40.4617 30.2257 40.4617" fill="white"/>
</g>
<defs>
<clipPath id="clip0_5_608">
<rect width="52" height="53" fill="white"/>
</clipPath>
</defs>
</svg>
