<svg width="52" height="53" viewBox="0 0 52 53" fill="none" xmlns="http://www.w3.org/2000/svg">
<g clip-path="url(#clip0_5_609)">
<path d="M-0.5 18.4999C-0.5 11.8494 -0.5 8.52406 0.794294 5.98386C1.93279 3.74944 3.74944 1.93279 5.98386 0.794294C8.52406 -0.5 11.8494 -0.5 18.4999 -0.5H33.0001C39.6507 -0.5 42.976 -0.5 45.5161 0.794294C47.7505 1.93279 49.5672 3.74944 50.7057 5.98386C52 8.52406 52 11.8494 52 18.4999V33.0001C52 39.6507 52 42.976 50.7057 45.5161C49.5672 47.7505 47.7505 49.5672 45.5161 50.7057C42.976 52 39.6507 52 33.0001 52H18.4999C11.8494 52 8.52406 52 5.98386 50.7057C3.74944 49.5672 1.93279 47.7505 0.794294 45.5161C-0.5 42.976 -0.5 39.6507 -0.5 33.0001V18.4999Z" fill="#B5C4CF"/>
<path fill-rule="evenodd" clip-rule="evenodd" d="M25.8333 26C25.8333 23.1466 28.1465 20.8334 30.9999 20.8334C33.8533 20.8334 36.1666 23.1466 36.1666 26C36.1666 28.8535 33.8533 31.1667 30.9999 31.1667C28.1465 31.1667 25.8333 28.8535 25.8333 26Z" fill="white"/>
<path fill-rule="evenodd" clip-rule="evenodd" d="M15.5 36.3333C15.5 33.4799 17.8132 31.1666 20.6667 31.1666H25.8333V36.3333C25.8333 39.1867 23.5201 41.5 20.6667 41.5C17.8132 41.5 15.5 39.1867 15.5 36.3333Z" fill="white"/>
<path fill-rule="evenodd" clip-rule="evenodd" d="M25.8333 10.5V20.8333H30.9999C33.8533 20.8333 36.1666 18.5201 36.1666 15.6667C36.1666 12.8132 33.8533 10.5 30.9999 10.5H25.8333Z" fill="white"/>
<path fill-rule="evenodd" clip-rule="evenodd" d="M15.5 15.6667C15.5 18.5201 17.8132 20.8333 20.6667 20.8333H25.8333V10.5H20.6667C17.8132 10.5 15.5 12.8132 15.5 15.6667Z" fill="white"/>
<path fill-rule="evenodd" clip-rule="evenodd" d="M15.5 26C15.5 28.8535 17.8132 31.1667 20.6667 31.1667H25.8333V20.8334H20.6667C17.8132 20.8334 15.5 23.1466 15.5 26Z" fill="white"/>
</g>
<defs>
<clipPath id="clip0_5_609">
<rect width="52" height="53" fill="white"/>
</clipPath>
</defs>
</svg>
